<svg width="16" height="16" viewBox="0 0 16 16" fill="none" xmlns="http://www.w3.org/2000/svg">
<path fill-rule="evenodd" clip-rule="evenodd" d="M9.6502 1.10028C9.42409 0.45887 8.81317 0 8.09376 0C7.37311 0 6.76132 0.460451 6.53615 1.1036C6.51723 1.10141 6.49793 1.10028 6.4783 1.10028H4.4628H1.25617H0.526118C0.251912 1.10028 -0.0100674 1.35334 0.0021583 1.65041C0.014384 1.94931 0.232701 2.20054 0.526118 2.20054H2.54162H5.74825H6.4783C6.49772 2.20054 6.51708 2.19927 6.53629 2.1968C6.76158 2.83974 7.37326 3.3 8.09376 3.3C8.81286 3.3 9.42357 2.84152 9.64991 2.20054H10.9389H14.1456H14.8756C15.1498 2.20054 15.4118 1.94748 15.3996 1.65041C15.3874 1.35151 15.169 1.10028 14.8756 1.10028H12.8601H9.6535H9.6502ZM13.1433 7.15168C12.9172 6.51027 12.3062 6.0514 11.5868 6.0514C10.8662 6.0514 10.2544 6.51185 10.0292 7.15499C10.0103 7.1528 9.991 7.15168 9.97136 7.15168H9.02649H6.77696H4.04014H1.68931C1.56181 7.15168 1.43431 7.15086 1.30682 7.15005C1.05182 7.14842 0.796831 7.14679 0.541837 7.15168H0.526118C0.251912 7.15168 -0.0100674 7.40474 0.0021583 7.70181C0.014384 8.00071 0.232701 8.25193 0.526118 8.25193H1.47099H3.72053H6.45734H8.80818C8.93552 8.25193 9.06287 8.25275 9.19022 8.25356L9.19067 8.25356C9.44566 8.25519 9.70065 8.25682 9.95565 8.25193H9.97136C9.99079 8.25193 10.0101 8.25066 10.0294 8.2482C10.2546 8.89113 10.8663 9.3514 11.5868 9.3514C12.3059 9.3514 12.9166 8.89292 13.143 8.25193H14.5665H14.8756C15.1498 8.25193 15.4118 7.99887 15.3996 7.70181C15.3874 7.4029 15.169 7.15168 14.8756 7.15168H13.1433ZM14.8756 13.2031H13.9674H11.7965H9.17145H6.90096C6.77827 13.2031 6.65557 13.2023 6.53287 13.2014L6.53244 13.2014L6.5058 13.2013C6.27918 12.5608 5.66873 12.1028 4.95 12.1028C4.22935 12.1028 3.61756 12.5632 3.39239 13.2064C3.37347 13.2042 3.35418 13.2031 3.33454 13.2031H0.870185H0.524372C0.250166 13.2031 -0.011814 13.4561 0.000411772 13.7532C0.0126375 14.0521 0.230954 14.3033 0.524372 14.3033H2.98873H3.33454C3.35397 14.3033 3.37333 14.3021 3.39254 14.2996C3.61782 14.9425 4.2295 15.4028 4.95 15.4028C5.6691 15.4028 6.27981 14.9443 6.50615 14.3033H6.68788H8.85882H11.4839H13.7544C13.8771 14.3033 13.9997 14.3041 14.1224 14.305L14.1229 14.305C14.3686 14.3066 14.6142 14.3082 14.8599 14.3033H14.8756C15.1498 14.3033 15.4118 14.0503 15.3996 13.7532C15.3874 13.4543 15.169 13.2031 14.8756 13.2031Z" fill="#453830"/>
</svg>
