<svg width="24" height="24" viewBox="0 0 24 24" fill="none" xmlns="http://www.w3.org/2000/svg">
<rect width="24" height="24" fill="#C0C0C0"/>
<path d="M12 7C9.25 7 7 9.25 7 12C7 14.75 9.25 17 12 17H17C19.75 17 22 14.75 22 12C22 6.4745 17.5255 2 12 2C6.4745 2 2 6.4745 2 12C2 17.5255 6.4745 22 12 22H22V19.5H12C7.8495 19.5 4.5 16.1505 4.5 12C4.5 7.8495 7.8495 4.5 12 4.5C16.1505 4.5 19.5 7.8495 19.5 12C19.5 13.375 18.375 14.5 17 14.5H16.2998C16.7246 13.75 17 12.9248 17 12C17 9.25 14.75 7 12 7ZM12 14.5C10.625 14.5 9.5 13.375 9.5 12C9.5 10.625 10.625 9.5 12 9.5C13.375 9.5 14.5 10.625 14.5 12C14.5 13.375 13.375 14.5 12 14.5Z" fill="black"/>
</svg>
