<svg width="24" height="24" viewBox="0 0 24 24" fill="none" xmlns="http://www.w3.org/2000/svg">
<rect width="24" height="24" fill="#C0C0C0"/>
<path fill-rule="evenodd" clip-rule="evenodd" d="M11.7 4C11.4239 4 11.2 4.22386 11.2 4.5V11.2H4.5C4.22386 11.2 4 11.4239 4 11.7V12.3C4 12.5761 4.22386 12.8 4.5 12.8H11.2V19.5C11.2 19.7761 11.4239 20 11.7 20H12.3C12.5761 20 12.8 19.7761 12.8 19.5V12.8H19.5C19.7761 12.8 20 12.5761 20 12.3V11.7C20 11.4239 19.7761 11.2 19.5 11.2H12.8V4.5C12.8 4.22386 12.5761 4 12.3 4H11.7Z" fill="black"/>
</svg>
