<svg width="24" height="24" viewBox="0 0 24 24" fill="none" xmlns="http://www.w3.org/2000/svg">
<rect width="24" height="24" fill="#C0C0C0"/>
<path d="M1.47358 3.78357C1.20414 3.80941 0.998985 4.03885 1 4.31274V18.0712C1 18.3637 1.23373 18.6004 1.52257 18.6004H14.5866C14.7265 18.6025 14.8612 18.5477 14.9612 18.4485C15.0602 18.3482 15.1163 18.2128 15.1163 18.0712C15.1163 17.9296 15.0602 17.7942 14.9612 17.694C14.8612 17.5948 14.7265 17.54 14.5866 17.542H2.04513V15.1525L6.98491 11.3409L10.8469 14.7641C11.0214 14.9181 11.3021 14.9326 11.492 14.7972L13.7782 13.1766L16.342 15.3015C16.5533 15.4793 16.9013 15.4493 17.0769 15.2354C17.2524 15.0214 17.2228 14.6607 17.0115 14.4829L14.1374 12.1017C13.9619 11.9539 13.6873 11.9425 13.5006 12.0769L11.2225 13.6892L7.35241 10.2578C7.24728 10.1679 7.10643 10.1214 6.96864 10.1338C6.86862 10.142 6.77064 10.1792 6.69103 10.2412L2.04518 13.8296V4.84184H19.8123V12.2503C19.8103 12.3918 19.8644 12.5283 19.9623 12.6296C20.0613 12.7298 20.195 12.7867 20.3349 12.7867C20.4747 12.7867 20.6084 12.7298 20.7074 12.6296C20.8054 12.5283 20.8595 12.3918 20.8574 12.2503V4.31266C20.8574 4.02016 20.6237 3.78349 20.3349 3.78349H1.52263C1.5063 3.78246 1.48997 3.78246 1.47364 3.78349L1.47358 3.78357ZM11.974 6.42943C10.6818 6.42943 9.62242 7.50225 9.62242 8.81071C9.62242 10.1192 10.6818 11.192 11.974 11.192C13.2661 11.192 14.3255 10.1192 14.3255 8.81071C14.3255 7.50225 13.2661 6.42943 11.974 6.42943ZM11.8433 7.48777C11.8872 7.48364 11.928 7.48777 11.974 7.48777C12.7017 7.48777 13.2804 8.07378 13.2804 8.81071C13.2804 9.54763 12.7017 10.1336 11.974 10.1336C11.2462 10.1336 10.6675 9.54763 10.6675 8.81071C10.6675 8.12029 11.1799 7.55495 11.8433 7.48777ZM20.2777 14.3588C20.0083 14.3888 19.8062 14.6224 19.8123 14.8962V17.5421H17.1995C17.1832 17.5411 17.1669 17.5411 17.1505 17.5421C17.0117 17.5483 16.8811 17.6103 16.7882 17.7147C16.6943 17.8181 16.6463 17.9555 16.6525 18.0961C16.6586 18.2366 16.7198 18.3689 16.8229 18.463C16.925 18.5581 17.0607 18.6066 17.1995 18.6004H19.8123V21.2463C19.8103 21.3879 19.8644 21.5243 19.9624 21.6256C20.0614 21.7259 20.1951 21.7827 20.3349 21.7827C20.4747 21.7827 20.6084 21.7259 20.7074 21.6256C20.8054 21.5243 20.8595 21.3879 20.8575 21.2463V18.6004H23.4703C23.6101 18.6025 23.7448 18.5477 23.8449 18.4485C23.9439 18.3483 24 18.2129 24 18.0713C24 17.9297 23.9439 17.7943 23.8449 17.694C23.7448 17.5948 23.6101 17.54 23.4703 17.5421H20.8575V14.8962C20.8605 14.7443 20.7993 14.5975 20.6881 14.4942C20.5768 14.3919 20.4278 14.3423 20.2778 14.3588L20.2777 14.3588Z" fill="black"/>
</svg>
