<svg width="31" height="30" viewBox="0 0 31 30" fill="none" xmlns="http://www.w3.org/2000/svg">
<g clip-path="url(#clip0)">
<path d="M1.90625 28.9985C1.72681 28.9985 1.551 28.9405 1.39875 28.8265C1.15044 28.6405 1 28.3306 1 27.9986V6.00091C1 5.59096 1.22656 5.22499 1.56912 5.07301L10.6316 1.07343C10.8473 0.977439 11.0884 0.977439 11.3041 1.07343L20.0312 4.92303L28.7566 1.07143C29.0321 0.947442 29.3511 0.987438 29.6012 1.17142C29.8514 1.3594 30 1.66937 30 2.00133V23.999C30 24.407 29.7752 24.7769 29.4309 24.9269L20.3684 28.9265C20.1527 29.0245 19.9116 29.0245 19.6959 28.9265L10.9688 25.0749L2.24337 28.9265C2.13462 28.9745 2.02044 28.9985 1.90625 28.9985ZM10.9688 22.9991C11.0829 22.9991 11.1971 23.0231 11.3059 23.0711L20.0312 26.9227L28.1875 23.3211V3.47718L20.3684 6.92881C20.1527 7.0248 19.9116 7.0248 19.6959 6.92881L10.9688 3.07922L2.8125 6.67684V26.5208L10.6316 23.0691C10.7404 23.0231 10.8546 22.9991 10.9688 22.9991Z" fill="#3D3E6C"/>
<path fill-rule="evenodd" clip-rule="evenodd" d="M17.226 15.8016C16.9916 15.8016 16.8016 15.9916 16.8016 16.226V18.5756C16.8016 18.81 16.6116 19 16.3772 19H15.6228C15.3884 19 15.1984 18.81 15.1984 18.5756V16.226C15.1984 15.9916 15.0084 15.8016 14.774 15.8016H12.4244C12.19 15.8016 12 15.6116 12 15.3772V14.6228C12 14.3884 12.19 14.1984 12.4244 14.1984H14.774C15.0084 14.1984 15.1984 14.0084 15.1984 13.774V11.4244C15.1984 11.19 15.3884 11 15.6228 11L16.3772 11C16.6116 11 16.8016 11.19 16.8016 11.4244V13.774C16.8016 14.0084 16.9916 14.1984 17.226 14.1984H19.5756C19.81 14.1984 20 14.3884 20 14.6228V15.3772C20 15.6116 19.81 15.8016 19.5756 15.8016H17.226Z" fill="#3D3E6C"/>
</g>
<defs>
<clipPath id="clip0">
<rect width="31" height="30" fill="white"/>
</clipPath>
</defs>
</svg>
