<svg width="31" height="30" viewBox="0 0 31 30" fill="none" xmlns="http://www.w3.org/2000/svg">
<g clip-path="url(#clip0)">
<path d="M1.90625 28.9985C1.72681 28.9985 1.551 28.9405 1.39875 28.8265C1.15044 28.6405 1 28.3306 1 27.9986V6.00091C1 5.59096 1.22656 5.22499 1.56912 5.07301L10.6316 1.07343C10.8473 0.977439 11.0884 0.977439 11.3041 1.07343L20.0312 4.92303L28.7566 1.07143C29.0321 0.947442 29.3511 0.987438 29.6012 1.17142C29.8514 1.3594 30 1.66937 30 2.00133V23.999C30 24.407 29.7752 24.7769 29.4309 24.9269L20.3684 28.9265C20.1527 29.0245 19.9116 29.0245 19.6959 28.9265L10.9688 25.0749L2.24337 28.9265C2.13462 28.9745 2.02044 28.9985 1.90625 28.9985ZM10.9688 22.9991C11.0829 22.9991 11.1971 23.0231 11.3059 23.0711L20.0312 26.9227L28.1875 23.3211V3.47718L20.3684 6.92881C20.1527 7.0248 19.9116 7.0248 19.6959 6.92881L10.9688 3.07922L2.8125 6.67684V26.5208L10.6316 23.0691C10.7404 23.0231 10.8546 22.9991 10.9688 22.9991Z" fill="#3D3E6C"/>
<path d="M15.8647 15.0636V16.7597H17.9604C17.856 17.1334 17.6268 17.4661 17.2612 17.7613C16.8004 18.1298 16.29 18.3091 15.7206 18.3091C15.0495 18.3091 14.4174 18.0682 13.8174 17.5604C13.1912 17.0262 12.8789 16.3526 12.8789 15.5185C12.8789 14.7054 13.1615 14.044 13.7223 13.5142L13.7241 13.5124C14.2864 12.9715 14.9771 12.7014 15.8156 12.7014C16.727 12.7014 17.5097 13.0942 18.1729 13.9286L18.3665 14.1723L19.7237 12.9439L19.544 12.7495C18.9868 12.1468 18.4088 11.6986 17.8076 11.4184L17.8029 11.4163C17.1786 11.1383 16.5075 11 15.7932 11C14.4639 11 13.3259 11.441 12.3965 12.3191C11.4669 13.1938 11 14.2656 11 15.5185C11 16.747 11.46 17.8075 12.3726 18.6847C13.2856 19.5586 14.3918 20 15.6759 20C16.9914 20 18.0884 19.5429 18.9448 18.6321L18.9458 18.6311C19.3226 18.2263 19.5951 17.7863 19.7572 17.3113L19.7585 17.3074C19.9212 16.805 20 16.2357 20 15.6029V15.0636H17.9324H15.8647Z" fill="#3D3E6C"/>
</g>
<defs>
<clipPath id="clip0">
<rect width="31" height="30" fill="white"/>
</clipPath>
</defs>
</svg>
