<svg width="24" height="24" viewBox="0 0 24 24" fill="none" xmlns="http://www.w3.org/2000/svg">
<rect width="24" height="24" fill="#C0C0C0"/>
<path fill-rule="evenodd" clip-rule="evenodd" d="M12 0C5.37258 0 0 5.37258 0 12C0 18.6274 5.37258 24 12 24C18.6274 24 24 18.6274 24 12C24 5.37258 18.6274 0 12 0ZM11.8905 14.0147C12.0858 13.8194 12.4023 13.8194 12.5976 14.0147L14.7175 16.1346C14.9128 16.3298 15.2294 16.3298 15.4246 16.1346L16.1346 15.4246C16.3298 15.2294 16.3298 14.9128 16.1346 14.7175L14.0147 12.5976C13.8194 12.4023 13.8194 12.0858 14.0147 11.8905L16.1346 9.7706C16.3298 9.57534 16.3298 9.25876 16.1346 9.06349L15.4246 8.35355C15.2294 8.15829 14.9128 8.15829 14.7175 8.35355L12.5976 10.4735C12.4023 10.6687 12.0858 10.6687 11.8905 10.4735L9.7706 8.35355C9.57534 8.15829 9.25876 8.15829 9.06349 8.35355L8.35355 9.06349C8.15829 9.25876 8.15829 9.57534 8.35355 9.7706L10.4735 11.8905C10.6687 12.0858 10.6687 12.4023 10.4735 12.5976L8.35355 14.7175C8.15829 14.9128 8.15829 15.2294 8.35355 15.4246L9.06349 16.1346C9.25876 16.3298 9.57534 16.3298 9.7706 16.1346L11.8905 14.0147Z" fill="black"/>
</svg>
