<svg width="24" height="24" viewBox="0 0 24 24" fill="none" xmlns="http://www.w3.org/2000/svg">
<rect width="24" height="24"/>
<path fill-rule="evenodd" clip-rule="evenodd" d="M12 0C5.37258 0 0 5.37258 0 12C0 18.6274 5.37258 24 12 24C18.6274 24 24 18.6274 24 12C24 5.37258 18.6274 0 12 0ZM13.5796 14.0797C13.5796 13.8035 13.8035 13.5797 14.0796 13.5797H18.4085C18.6846 13.5797 18.9085 13.3558 18.9085 13.0797V11.4086C18.9085 11.1324 18.6846 10.9086 18.4085 10.9086L14.0796 10.9086C13.8035 10.9086 13.5796 10.6847 13.5796 10.4086V6.07974C13.5796 5.8036 13.3558 5.57974 13.0796 5.57974L11.4085 5.57974C11.1324 5.57974 10.9085 5.8036 10.9085 6.07974V10.4086C10.9085 10.6847 10.6847 10.9086 10.4085 10.9086H6.07969C5.80355 10.9086 5.57969 11.1324 5.57969 11.4086V13.0797C5.57969 13.3558 5.80355 13.5797 6.07969 13.5797H10.4085C10.6847 13.5797 10.9085 13.8035 10.9085 14.0797V18.4085C10.9085 18.6847 11.1324 18.9085 11.4085 18.9085H13.0796C13.3558 18.9085 13.5796 18.6847 13.5796 18.4085L13.5796 14.0797Z" fill="black"/>
</svg>
