<svg width="24" height="24" viewBox="0 0 24 24" fill="none" xmlns="http://www.w3.org/2000/svg">
<rect width="24" height="24"/>
<path d="M6.59289 24H16.4177C17.1549 24 17.7309 23.8035 18.1456 23.4105C18.5603 23.0176 18.7853 22.4498 18.8208 21.7071L19.5013 6.13249H21.0537C21.323 6.13249 21.5481 6.03876 21.7289 5.85129C21.9096 5.66382 22 5.43308 22 5.15908C22 4.8923 21.9096 4.66697 21.7289 4.4831C21.5481 4.29924 21.323 4.2073 21.0537 4.2073H16.3433V2.73637C16.3433 1.89996 16.0792 1.23479 15.5511 0.740874C15.023 0.246958 14.3053 0 13.398 0H9.60202C8.69468 0 7.97873 0.246958 7.45418 0.740874C6.92962 1.23479 6.66734 1.89996 6.66734 2.73637V4.2073H1.94633C1.68405 4.2073 1.46076 4.29924 1.27646 4.4831C1.09215 4.66697 1 4.8923 1 5.15908C1 5.43308 1.09215 5.66382 1.27646 5.85129C1.46076 6.03876 1.68405 6.13249 1.94633 6.13249H3.52L4.20051 21.7071C4.23595 22.4498 4.45924 23.0176 4.87038 23.4105C5.28152 23.8035 5.8557 24 6.59292 24H6.59289ZM7.05011 20.1172L6.60352 8.44707C6.59644 8.20913 6.66378 8.01084 6.80555 7.85221C6.94732 7.69358 7.12454 7.61427 7.3372 7.61427C7.53568 7.61427 7.70935 7.69538 7.85821 7.85762C8.00707 8.01985 8.08504 8.21634 8.09213 8.44707L8.49618 20.1064C8.50327 20.3371 8.4377 20.5354 8.29947 20.7013C8.16124 20.8671 7.98226 20.95 7.76251 20.95C7.55694 20.95 7.38859 20.8725 7.25745 20.7175C7.12631 20.5625 7.05719 20.3624 7.0501 20.1172L7.05011 20.1172ZM10.7504 20.1172L10.7397 8.43625C10.7397 8.21273 10.8159 8.01985 10.9683 7.85761C11.1207 7.69538 11.2997 7.61426 11.5053 7.61426C11.7109 7.61426 11.8899 7.69538 12.0423 7.85761C12.1947 8.01985 12.2709 8.21273 12.2709 8.43625V20.1172C12.2709 20.3479 12.1929 20.5444 12.0369 20.7066C11.881 20.8689 11.7038 20.95 11.5053 20.95C11.2997 20.95 11.1225 20.8689 10.9736 20.7066C10.8248 20.5444 10.7504 20.3479 10.7504 20.1172H10.7504ZM14.5144 20.1064L14.9291 8.44703C14.9362 8.2163 15.0124 8.01981 15.1577 7.85758C15.303 7.69534 15.4785 7.61422 15.684 7.61422C15.8967 7.61422 16.0739 7.69354 16.2157 7.85217C16.3574 8.0108 16.4248 8.20908 16.4177 8.44703L15.9711 20.1171C15.964 20.3623 15.8931 20.5624 15.7585 20.7174C15.6238 20.8724 15.4501 20.9499 15.2375 20.9499C15.0319 20.9499 14.8582 20.867 14.7164 20.7012C14.5747 20.5353 14.5073 20.337 14.5144 20.1063L14.5144 20.1064ZM8.66631 4.20732V2.83373C8.6734 2.5381 8.77264 2.29474 8.96403 2.10367C9.15542 1.91259 9.41062 1.81705 9.72961 1.81705H13.281C13.6 1.81705 13.8569 1.91259 14.0519 2.10367C14.2468 2.29474 14.3443 2.5381 14.3443 2.83373L14.3549 4.20732H8.66631Z" fill="black"/>
</svg>
