<svg width="24" height="24" viewBox="0 0 24 24" fill="none" xmlns="http://www.w3.org/2000/svg">
<g clip-path="url(#clip0)">
<rect width="24" height="24" fill="#C0C0C0"/>
<path d="M21.636 2.3674C21.2941 2.02482 20.7849 1.91034 20.3284 2.07269L2.83332 8.27935C2.3392 8.45486 2.00666 8.91851 2.0001 9.44317C1.99352 9.96688 2.31386 10.439 2.80326 10.6267L9.49636 13.2002C10.0919 13.4283 10.5635 13.8976 10.7946 14.4917L13.3694 21.1741C13.5441 21.6687 14.012 22 14.5371 22C15.0631 21.9972 15.53 21.6649 15.7038 21.1684L21.9159 3.69912H21.9169C22.0935 3.23922 21.9836 2.7174 21.636 2.36731L21.636 2.3674ZM10.0376 11.798L3.98607 9.48541L18.6903 4.25016L10.7648 12.1687C10.5356 12.0214 10.2923 11.8975 10.0377 11.798H10.0376ZM14.5072 19.9972L12.1972 13.9556C12.1014 13.7022 11.9765 13.4601 11.8261 13.2348L19.7527 5.31071L14.5072 19.9972Z" fill="black"/>
</g>
<defs>
<clipPath id="clip0">
<rect width="24" height="24" fill="white"/>
</clipPath>
</defs>
</svg>
