<svg width="24" height="24" viewBox="0 0 24 24" fill="none" xmlns="http://www.w3.org/2000/svg">
<path d="M0 22.9997C0 23.265 0.109938 23.5194 0.305628 23.707C0.501318 23.8946 0.766731 24 1.04348 24H11.4783C11.755 24 12.0204 23.8946 12.2161 23.707C12.4118 23.5194 12.5217 23.265 12.5217 22.9997V20.9992C12.5217 19.9381 12.082 18.9204 11.2992 18.17C10.5165 17.4197 9.45482 16.9982 8.34783 16.9982H7.30435V13.6373C8.35012 13.1962 9.48415 12.9806 10.6264 13.0056C11.7686 13.0307 12.8912 13.2958 13.9148 13.7823L14.1417 13.8898L14.3687 13.9974C15.7401 14.6511 17.251 14.9913 18.7826 14.9913C20.3143 14.9913 21.8251 14.6511 23.1965 13.9974C23.2282 13.9785 23.2579 13.9568 23.2852 13.9324C23.4909 13.8669 23.6703 13.7417 23.7984 13.5741C23.9265 13.4065 23.9969 13.2049 24 12.9971V1.99423C24.0001 1.82364 23.9547 1.65585 23.8682 1.50682C23.7816 1.35778 23.6566 1.23245 23.5053 1.14274C23.3539 1.05303 23.1811 1.00191 23.0034 0.994255C22.8256 0.986598 22.6487 1.02265 22.4896 1.09899L22.2626 1.20902C21.1811 1.72369 19.99 1.9915 18.7826 1.9915C17.5752 1.9915 16.3841 1.72369 15.3026 1.20902L15.0757 1.09899L14.8487 0.993963C13.4773 0.340219 11.9664 0 10.4348 0C8.90313 0 7.39231 0.340219 6.02087 0.993963L5.79391 1.10149C5.69805 1.14866 5.61012 1.20936 5.53304 1.28154C5.51688 1.29704 5.50205 1.31376 5.4887 1.33155C5.42337 1.40172 5.3681 1.47993 5.32435 1.56411C5.3113 1.59162 5.29826 1.61913 5.28522 1.65164C5.24186 1.76114 5.2189 1.8771 5.21739 1.99423V16.9982H4.17391C3.06692 16.9982 2.00527 17.4197 1.22251 18.17C0.43975 18.9204 0 19.9381 0 20.9992V22.9997ZM13.9148 2.77943L14.1417 2.88696L14.3687 2.99449C16.7157 4.11027 19.4281 4.29008 21.913 3.49462V12.3519C20.8675 12.7934 19.7335 13.0095 18.5913 12.9848C17.4491 12.9602 16.3264 12.6955 15.3026 12.2094L15.0757 12.0994L14.8487 11.9969C12.5017 10.8811 9.78927 10.7013 7.30435 11.4967V2.62189C8.35142 2.18409 9.48578 1.97133 10.6278 1.99854C11.7698 2.02576 12.8917 2.29229 13.9148 2.77943ZM2.08696 20.9992C2.08696 20.4686 2.30683 19.9598 2.69821 19.5846C3.08959 19.2095 3.62042 18.9987 4.17391 18.9987H8.34783C8.90132 18.9987 9.43215 19.2095 9.82353 19.5846C10.2149 19.9598 10.4348 20.4686 10.4348 20.9992V21.9995H2.08696V20.9992Z" fill="black"/>
</svg>
