<svg width="24" height="24" viewBox="0 0 24 24" fill="none" xmlns="http://www.w3.org/2000/svg">
<path d="M0.0650543 9.38547C0.0710034 9.39409 0.0760334 9.4033 0.080062 9.41297C0.118202 9.49639 0.166964 9.57454 0.225137 9.64548L11.2308 22.6461C11.2459 22.6636 11.2684 22.6711 11.2834 22.6886C11.3562 22.7621 11.4407 22.823 11.5335 22.8686C11.566 22.8861 11.5935 22.9036 11.6285 22.9186C11.7464 22.9723 11.8743 23 12.0037 23C12.1332 23 12.2611 22.9723 12.3789 22.9186C12.414 22.9036 12.4415 22.8861 12.474 22.8686C12.5668 22.823 12.6513 22.7621 12.7241 22.6886C12.7391 22.6711 12.7616 22.6636 12.7766 22.6461L23.7823 9.64548C23.8406 9.57509 23.8886 9.49681 23.9249 9.41297L23.9424 9.38547C23.9815 9.27381 24.001 9.15624 24 9.03795C24 9.03795 24 9.01295 24 9.00045C24 8.98795 24 8.95545 24 8.93294C23.9924 8.84782 23.9748 8.7639 23.9474 8.68293C23.9359 8.64449 23.9217 8.6069 23.9049 8.57043C23.8977 8.54917 23.8893 8.52831 23.8799 8.50792L19.8778 1.50757C19.7898 1.35208 19.6617 1.22299 19.5069 1.13374C19.352 1.04448 19.1761 0.998321 18.9974 1.00005H4.99011C4.81423 0.999788 4.64139 1.04587 4.48901 1.13366C4.33663 1.22144 4.2101 1.34783 4.12216 1.50007L0.120083 8.50042C0.110671 8.52081 0.102322 8.54167 0.0950699 8.56293C0.0783092 8.5994 0.064101 8.63699 0.0525478 8.67543C0.0252051 8.7564 0.00757271 8.84032 2.05668e-05 8.92544C2.05668e-05 8.94795 2.05668e-05 8.96795 2.05668e-05 8.99295C2.05668e-05 9.01795 2.05668e-05 9.01795 2.05668e-05 9.03045C-0.000770955 9.15182 0.0212907 9.27225 0.0650543 9.38547ZM7.25378 10.0005L9.6 17.6259L3.14415 10.0005H7.25378ZM20.8433 10.0005L14.3875 17.6259L16.7462 10.0005H20.8433ZM11.9937 18.6009L9.34737 10.0005H14.6401L11.9937 18.6009ZM21.2761 8.0004H16.7462L15.3205 3.00015H18.4171L21.2761 8.0004ZM13.2444 3.00015L14.6701 8.0004H9.31735L10.7431 3.00015H13.2444ZM5.57041 3.00015H8.66701L7.24127 8.0004H2.71143L5.57041 3.00015Z" fill="black"/>
</svg>
