<svg width="24" height="24" viewBox="0 0 24 24" fill="none" xmlns="http://www.w3.org/2000/svg">
<path d="M2.88344 21H21.1166C21.757 21.0003 22.3793 20.7873 22.8853 20.3948C23.3912 20.0023 23.7518 19.4525 23.9103 18.8323C24.0688 18.2121 24.0161 17.5568 23.7606 16.9699C23.505 16.383 23.0611 15.8978 22.4989 15.5911L12.9999 10.412V8.88056C13.9789 8.62852 14.826 8.01532 15.371 7.16431C15.9159 6.3133 16.1182 5.28763 15.9371 4.2936C15.7609 3.30907 15.2219 2.42632 14.4263 1.81958C13.6308 1.21284 12.6366 0.9262 11.6399 1.01624C10.6433 1.10628 9.71659 1.56646 9.04281 2.30594C8.36902 3.04542 7.99709 4.01048 8.00041 5.01063C8.00041 5.27567 8.10576 5.52985 8.29327 5.71726C8.48079 5.90468 8.73512 6.00996 9.00031 6.00996C9.2655 6.00996 9.51982 5.90468 9.70734 5.71726C9.89486 5.52985 10.0002 5.27567 10.0002 5.01063C9.99991 4.71666 10.0645 4.42624 10.1894 4.16008C10.3142 3.89392 10.4963 3.65856 10.7226 3.47079C10.9489 3.28302 11.2139 3.14746 11.4987 3.07376C11.7834 3.00006 12.0809 2.99005 12.37 3.04443C12.7646 3.12133 13.1273 3.31404 13.4118 3.59795C13.6964 3.88186 13.8897 4.24409 13.9673 4.63837C14.0221 4.92745 14.0124 5.22506 13.9389 5.50995C13.8653 5.79485 13.7298 6.06 13.5418 6.28648C13.3539 6.51295 13.1183 6.69517 12.8518 6.82012C12.5852 6.94507 12.2944 7.00967 12 7.0093C11.7348 7.0093 11.4805 7.11459 11.293 7.302C11.1054 7.48941 11.0001 7.74359 11.0001 8.00863V10.412L1.50108 15.5911C0.938934 15.8978 0.495026 16.383 0.239441 16.9699C-0.0161436 17.5568 -0.0688444 18.2121 0.0896594 18.8323C0.248163 19.4525 0.608841 20.0023 1.11475 20.3948C1.62066 20.7873 2.24297 21.0003 2.88344 21ZM2.46098 17.3449L12 12.1459L21.539 17.3449C21.7113 17.4387 21.8474 17.5872 21.9258 17.7669C22.0042 17.9466 22.0205 18.1473 21.972 18.3373C21.9236 18.5272 21.8132 18.6956 21.6582 18.8159C21.5033 18.9362 21.3127 19.0014 21.1166 19.0013H2.88344C2.68728 19.0014 2.49668 18.9362 2.34176 18.8159C2.18684 18.6956 2.07644 18.5272 2.02798 18.3373C1.97953 18.1473 1.9958 17.9466 2.07421 17.7669C2.15262 17.5872 2.28871 17.4387 2.46098 17.3449Z" fill="black"/>
</svg>
