<svg width="24" height="24" viewBox="0 0 24 24" fill="none" xmlns="http://www.w3.org/2000/svg">
<g clip-path="url(#clip0)">
<rect width="24" height="24" fill="#C0C0C0"/>
<path d="M0.75 23.9987C0.6015 23.9987 0.456 23.949 0.33 23.8513C0.1245 23.6919 0 23.4262 0 23.1417V4.2865C0 3.9351 0.1875 3.62142 0.471 3.49115L7.971 0.0629393C8.1495 -0.0193378 8.349 -0.0193378 8.5275 0.0629393L15.75 3.36259L22.971 0.0612251C23.199 -0.0450494 23.463 -0.0107672 23.67 0.146931C23.877 0.308057 24 0.573743 24 0.858284V19.7134C24 20.0631 23.814 20.3802 23.529 20.5088L16.029 23.937C15.8505 24.021 15.651 24.021 15.4725 23.937L8.25 20.6356L1.029 23.937C0.939 23.9781 0.8445 23.9987 0.75 23.9987ZM8.25 18.8564C8.3445 18.8564 8.439 18.877 8.529 18.9181L15.75 22.2195L22.5 19.1324V2.12329L16.029 5.08184C15.8505 5.16412 15.651 5.16412 15.4725 5.08184L8.25 1.78219L1.5 4.86586V21.8749L7.971 18.9164C8.061 18.877 8.1555 18.8564 8.25 18.8564Z" fill="black"/>
<path d="M5.45517 11.4514H4.2C4.08954 11.4514 4 11.541 4 11.6514V12.897C4 13.0074 4.08954 13.097 4.2 13.097H5.45517C5.56563 13.097 5.65517 13.0074 5.65517 12.897V11.6514C5.65517 11.541 5.56563 11.4514 5.45517 11.4514Z" fill="black"/>
<path d="M8.6622 11.4514H7.40703C7.29657 11.4514 7.20703 11.541 7.20703 11.6514V12.897C7.20703 13.0074 7.29657 13.097 7.40703 13.097H8.6622C8.77266 13.097 8.8622 13.0074 8.8622 12.897V11.6514C8.8622 11.541 8.77266 11.4514 8.6622 11.4514Z" fill="black"/>
<path d="M2.1104 11.4514H0.0276367C-0.0828202 11.4514 -0.172363 11.541 -0.172363 11.6514V12.897C-0.172363 13.0074 -0.0828201 13.097 0.0276369 13.097H2.1104C2.22085 13.097 2.3104 13.0074 2.3104 12.897V11.6514C2.3104 11.541 2.22085 11.4514 2.1104 11.4514Z" fill="black"/>
<path fill-rule="evenodd" clip-rule="evenodd" d="M18.4539 9.60719C18.1186 9.27189 17.575 9.27189 17.2397 9.60719L15.995 10.8519L14.7504 9.60725C14.4151 9.27196 13.8714 9.27196 13.5361 9.60725C13.2008 9.94255 13.2008 10.4862 13.5361 10.8215L14.7808 12.0661L13.597 13.2498C13.2617 13.5851 13.2617 14.1288 13.597 14.4641C13.9323 14.7993 14.476 14.7993 14.8113 14.4641L15.995 13.2803L17.1788 14.4641C17.5141 14.7994 18.0577 14.7994 18.393 14.4641C18.7283 14.1288 18.7283 13.5852 18.393 13.2499L17.2092 12.0661L18.4539 10.8214C18.7892 10.4861 18.7892 9.94248 18.4539 9.60719Z" fill="black"/>
</g>
<defs>
<clipPath id="clip0">
<rect width="24" height="24" fill="white"/>
</clipPath>
</defs>
</svg>
