<svg width="24" height="24" viewBox="0 0 24 24" fill="none" xmlns="http://www.w3.org/2000/svg">
<path d="M21.1164 3.86365C19.9106 2.67035 18.2754 2 16.5705 2C14.8655 2 13.2303 2.67035 12.0245 3.86365L11.9763 3.90912L11.9304 3.86365C10.7218 2.69142 9.09533 2.03797 7.40344 2.04495C5.71155 2.05193 4.09061 2.71877 2.89199 3.90093C1.69337 5.08309 1.01366 6.6853 1.0002 8.36026C0.986745 10.0352 1.64062 11.6479 2.8201 12.8488L11.3172 21.7157C11.403 21.8055 11.5065 21.877 11.6212 21.9259C11.7359 21.9748 11.8594 22 11.9843 22C12.1092 22 12.2328 21.9748 12.3475 21.9259C12.4622 21.877 12.5656 21.8055 12.6515 21.7157L21.1164 12.867C21.7136 12.2759 22.1873 11.574 22.5105 10.8016C22.8337 10.0292 23 9.20138 23 8.36533C23 7.52928 22.8337 6.70141 22.5105 5.92901C22.1873 5.15661 21.7136 4.4548 21.1164 3.86365ZM19.8005 11.5938L11.9763 19.7764L4.136 11.5915C3.27325 10.7386 2.78807 9.5813 2.78721 8.37422C2.78635 7.16715 3.26987 6.00917 4.1314 5.15504C4.99294 4.30091 6.16191 3.82058 7.38116 3.81973C8.60042 3.81888 9.77007 4.29757 10.6328 5.15049L11.3218 5.83257C11.494 6.00264 11.7273 6.09815 11.9705 6.09815C12.2138 6.09815 12.4471 6.00264 12.6193 5.83257L13.3083 5.15049C14.1719 4.29817 15.3422 3.82042 16.5617 3.82233C17.7812 3.82425 18.9499 4.30569 19.8108 5.16072C20.6718 6.01576 21.1543 7.17437 21.1524 8.38165C21.1504 9.58894 20.6642 10.746 19.8005 11.5983V11.5938Z" fill="black"/>
</svg>
