<svg width="24" height="24" viewBox="0 0 24 24" fill="none" xmlns="http://www.w3.org/2000/svg">
<path d="M20.322 10.6084C20.1077 10.1395 19.8569 9.69044 19.5694 9.27135C19.5381 9.22645 19.4649 9.24141 19.4544 9.29629C19.1356 11.0625 17.0556 13.5919 14.8188 15.882C13.8206 16.9047 10.9723 20.1078 10.9723 20.1078C10.9253 20.1527 10.8521 20.1576 10.7998 20.1177L6.45685 16.3909L5.48477 15.5577C5.44296 15.5227 5.44296 15.4629 5.47955 15.4279L7.57003 13.2078C7.60662 13.1679 7.66933 13.1679 7.70591 13.2028L10.5647 15.6525C10.6535 15.7273 10.7946 15.7223 10.873 15.6375L15.587 10.7232C16.5173 9.78024 17.134 8.69261 17.3692 7.37049C17.458 6.88155 17.4894 6.37266 17.4633 5.85878C17.3169 3.18959 15.5557 0.969421 13.1307 0.00651712C13.0628 -0.0184286 12.9896 0.0314628 12.9948 0.101311C12.9948 0.131246 13.0001 0.16617 13.0001 0.196104C13.1412 2.6807 11.7876 5.59435 9.40443 6.29782C9.26333 6.33774 9.11699 6.37765 8.97066 6.40758C8.97066 6.40758 8.97066 6.40758 8.96543 6.40758C7.06832 6.93643 5.42206 8.00411 4.20958 9.42601C3.22705 10.5735 2.52674 11.9505 2.20271 13.4572C2.03547 14.2355 1.96753 15.0488 2.01457 15.877C2.30201 21.0308 6.53524 24.2537 11.8608 23.9843C17.1863 23.7149 21.2732 19.3195 20.9857 14.1657C20.9178 12.9982 20.7819 11.6162 20.322 10.6084Z" fill="#3D3E6C"/>
</svg>
