<svg width="24" height="24" viewBox="0 0 24 24" fill="none" xmlns="http://www.w3.org/2000/svg">
<path d="M11.9956 2.98214C14.9333 2.98214 15.2782 2.99524 16.4393 3.04763C17.5131 3.09565 18.0937 3.27466 18.4821 3.42747C18.9972 3.6283 19.3639 3.86406 19.748 4.24826C20.1321 4.63247 20.3722 4.99921 20.5687 5.51439C20.7171 5.90296 20.9004 6.48363 20.9484 7.55765C21.0008 8.71899 21.0139 9.0639 21.0139 12.0022C21.0139 14.9405 21.0008 15.2854 20.9484 16.4467C20.9004 17.5207 20.7214 18.1014 20.5687 18.49C20.3679 19.0052 20.1321 19.3719 19.748 19.7561C19.3639 20.1403 18.9972 20.3804 18.4821 20.5769C18.0937 20.7253 17.5131 20.9087 16.4393 20.9567C15.2782 21.0091 14.9333 21.0222 11.9956 21.0222C9.05794 21.0222 8.7131 21.0091 7.55198 20.9567C6.47817 20.9087 5.89762 20.7297 5.50913 20.5769C4.99405 20.3761 4.62738 20.1403 4.24325 19.7561C3.85913 19.3719 3.61905 19.0052 3.42262 18.49C3.27421 18.1014 3.09087 17.5207 3.04286 16.4467C2.99048 15.2854 2.97738 14.9405 2.97738 12.0022C2.97738 9.0639 2.99048 8.71899 3.04286 7.55765C3.09087 6.48363 3.26984 5.90296 3.42262 5.51439C3.62341 4.99921 3.85913 4.63247 4.24325 4.24826C4.62738 3.86406 4.99405 3.62393 5.50913 3.42747C5.89762 3.27902 6.47817 3.09565 7.55198 3.04763C8.7131 2.99087 9.05794 2.98214 11.9956 2.98214ZM11.9956 1C9.00992 1 8.63452 1.0131 7.46032 1.06549C6.29048 1.11788 5.49167 1.30562 4.79325 1.5763C4.06865 1.85573 3.45754 2.23556 2.84643 2.8468C2.23532 3.45803 1.85992 4.07363 1.57619 4.79401C1.30556 5.49256 1.11786 6.29153 1.06548 7.46597C1.0131 8.63604 1 9.01151 1 11.9978C1 14.9841 1.0131 15.3596 1.06548 16.534C1.11786 17.7041 1.30556 18.5031 1.57619 19.206C1.85556 19.9307 2.23532 20.542 2.84643 21.1532C3.45754 21.7644 4.07302 22.1399 4.79325 22.4237C5.49167 22.6944 6.29048 22.8821 7.46468 22.9345C8.63889 22.9869 9.00992 23 12 23C14.9901 23 15.3611 22.9869 16.5353 22.9345C17.7052 22.8821 18.504 22.6944 19.2067 22.4237C19.9314 22.1443 20.5425 21.7644 21.1536 21.1532C21.7647 20.542 22.1401 19.9264 22.4238 19.206C22.6944 18.5074 22.8821 17.7085 22.9345 16.534C22.9869 15.3596 23 14.9885 23 11.9978C23 9.00714 22.9869 8.63604 22.9345 7.4616C22.8821 6.29153 22.6944 5.49256 22.4238 4.78964C22.1444 4.06489 21.7647 3.45366 21.1536 2.84243C20.5425 2.2312 19.927 1.85573 19.2067 1.57194C18.5083 1.30125 17.7095 1.11351 16.5353 1.06112C15.3567 1.0131 14.9813 1 11.9956 1Z" fill="black"/>
<path d="M12.0001 6.73901C9.0973 6.73901 6.73926 9.09299 6.73926 11.9999C6.73926 14.9068 9.0973 17.2608 12.0001 17.2608C14.903 17.2608 17.261 14.9027 17.261 11.9999C17.261 9.09705 14.903 6.73901 12.0001 6.73901ZM12.0001 15.415C10.1137 15.415 8.58503 13.8863 8.58503 11.9999C8.58503 10.1135 10.1137 8.58479 12.0001 8.58479C13.8866 8.58479 15.4152 10.1135 15.4152 11.9999C15.4152 13.8863 13.8866 15.415 12.0001 15.415Z" fill="black"/>
<path d="M17.739 7.69574C18.5314 7.69574 19.1738 7.05336 19.1738 6.26095C19.1738 5.46855 18.5314 4.82617 17.739 4.82617C16.9466 4.82617 16.3042 5.46855 16.3042 6.26095C16.3042 7.05336 16.9466 7.69574 17.739 7.69574Z" fill="black"/>
</svg>
