<svg width="24" height="24" viewBox="0 0 24 24" fill="none" xmlns="http://www.w3.org/2000/svg">
<path d="M23.9811 16.711C23.9764 16.6776 23.9906 16.6491 23.9858 16.6205L22.5858 1.01885C22.4961 0.433247 21.9906 0 21.4 0H2.6C2.00945 0 1.50394 0.433247 1.41417 1.01885L0.0141732 16.6205C0.00944882 16.6538 0.0188976 16.6824 0.0188976 16.711C0.0141732 16.7443 0 16.7681 0 16.8014V22.8002C0 23.462 0.538583 24 1.2 24H22.8C23.4614 24 24 23.462 24 22.8002V16.8014C24 16.7729 23.9858 16.7443 23.9811 16.711ZM15.822 15.6017C15.6945 15.6017 15.6 15.7016 15.5906 15.8302C15.4724 17.7108 13.9087 19.2057 11.9953 19.2057C10.0819 19.2057 8.51811 17.7155 8.4 15.8302C8.39055 15.7064 8.29606 15.6017 8.1685 15.6017H2.59843L3.62992 2.39952H20.3701L21.4016 15.6017H15.822Z" fill="black"/>
<path d="M13.3424 10.6298L14.7375 9.30601C14.9301 9.12328 15.2319 9.1229 15.4249 9.30515L16.6156 10.4293C16.8243 10.6264 16.8246 10.9584 16.6161 11.1559L12.9543 14.6244C12.6991 14.863 12.3535 15 11.9973 15C11.6358 15 11.2956 14.863 11.0404 14.6244L7.38333 11.1604C7.17509 10.9632 7.17512 10.6315 7.38342 10.4343L8.56442 9.31622C8.75739 9.13352 9.05957 9.13369 9.25233 9.3166L10.6417 10.6349V4.5C10.6417 4.22386 10.8655 4 11.1417 4H12.8424C13.1185 4 13.3424 4.22386 13.3424 4.5V10.6298Z" fill="black"/>
</svg>
