<svg width="24" height="24" viewBox="0 0 24 24" fill="none" xmlns="http://www.w3.org/2000/svg">
<rect width="24" height="24" fill="#C0C0C0"/>
<path d="M13.9386 16.7948C13.8916 16.7482 13.8282 16.7221 13.7621 16.7221C13.6959 16.7221 13.6325 16.7482 13.5855 16.7948L9.95436 20.4259C8.27317 22.1071 5.43576 22.2852 3.57957 20.4259C1.72026 18.5666 1.89838 15.7323 3.57957 14.0511L7.2107 10.42C7.30758 10.3231 7.30758 10.1637 7.2107 10.0669L5.96699 8.82315C5.92001 8.77663 5.85656 8.75053 5.79044 8.75053C5.72432 8.75053 5.66087 8.77663 5.61388 8.82315L1.98275 12.4543C-0.660916 15.0979 -0.660916 19.3759 1.98275 22.0165C4.62641 24.657 8.9044 24.6601 11.5449 22.0165L15.1761 18.3853C15.2729 18.2885 15.2729 18.1291 15.1761 18.0322L13.9386 16.7948ZM22.0196 1.98275C19.3759 -0.660916 15.0979 -0.660916 12.4574 1.98275L8.82315 5.61388C8.77663 5.66087 8.75053 5.72432 8.75053 5.79044C8.75053 5.85656 8.77663 5.92001 8.82315 5.96699L10.0637 7.20758C10.1606 7.30445 10.32 7.30445 10.4168 7.20758L14.048 3.57645C15.7292 1.89525 18.5666 1.71713 20.4228 3.57645C22.2821 5.43576 22.104 8.27004 20.4228 9.95124L16.7916 13.5824C16.7451 13.6294 16.719 13.6928 16.719 13.7589C16.719 13.8251 16.7451 13.8885 16.7916 13.9355L18.0354 15.1792C18.1322 15.2761 18.2916 15.2761 18.3885 15.1792L22.0196 11.5481C24.6601 8.9044 24.6601 4.62641 22.0196 1.98275ZM15.0667 7.63569C15.0197 7.58917 14.9563 7.56307 14.8901 7.56307C14.824 7.56307 14.7606 7.58917 14.7136 7.63569L7.63569 14.7105C7.58917 14.7574 7.56307 14.8209 7.56307 14.887C7.56307 14.9531 7.58917 15.0166 7.63569 15.0636L8.87315 16.301C8.97002 16.3979 9.12939 16.3979 9.22626 16.301L16.301 9.22626C16.3979 9.12939 16.3979 8.97002 16.301 8.87315L15.0667 7.63569Z" fill="black"/>
</svg>
