<svg width="24" height="24" viewBox="0 0 24 24" fill="none" xmlns="http://www.w3.org/2000/svg">
<rect width="24" height="24" fill="#C0C0C0"/>
<g clip-path="url(#clip0)">
<path d="M4.67332 13.0044C4.51641 12.8475 4.43798 12.6689 4.43803 12.4687C4.43808 12.2684 4.522 12.0844 4.68982 11.9166C4.80891 11.7975 4.97129 11.6947 5.17697 11.608L15.4635 7.11632C16.0047 6.87807 16.4377 6.92126 16.7623 7.2459C17.0815 7.56513 17.122 7.99537 16.8838 8.53662L12.3921 18.8231C12.3054 19.0288 12.2026 19.1912 12.0835 19.3103C11.9157 19.4781 11.7317 19.562 11.5314 19.5621C11.3312 19.5621 11.1526 19.4837 10.9957 19.3268C10.9145 19.2456 10.8496 19.1455 10.8009 19.0265C10.7522 18.9074 10.7306 18.7748 10.7361 18.6287L10.7291 13.6686C10.7346 13.5225 10.7076 13.4197 10.648 13.3602C10.5777 13.2898 10.4722 13.2601 10.3315 13.271L5.3714 13.264C5.21986 13.2641 5.08592 13.2411 4.96957 13.1951C4.85323 13.1491 4.75448 13.0856 4.67332 13.0044ZM3.51066 20.4813C4.67396 21.6446 5.9875 22.517 7.4513 23.0984C8.9151 23.6799 10.429 23.9704 11.9931 23.97C13.5571 23.9696 15.0726 23.6797 16.5393 23.1003C18.0061 22.5209 19.3214 21.6492 20.4853 20.4854C21.6491 19.3215 22.5208 18.0062 23.1002 16.5394C23.6796 15.0727 23.9695 13.5572 23.9699 11.9932C23.9703 10.4291 23.6784 8.91385 23.0943 7.44734C22.5101 5.98084 21.6364 4.66594 20.4731 3.50265C19.3152 2.34477 18.003 1.47375 16.5365 0.889613C15.07 0.305472 13.5561 0.0149413 11.9948 0.01802C10.4334 0.0210987 8.92069 0.313706 7.45661 0.895842C5.99253 1.47798 4.67857 2.35097 3.51472 3.51482C2.35087 4.67867 1.47788 5.99263 0.895741 7.45671C0.313606 8.92079 0.0223489 10.4349 0.0219753 11.9989C0.0216015 13.563 0.312132 15.0769 0.893568 16.5407C1.475 18.0045 2.34737 19.318 3.51066 20.4813Z" fill="black"/>
</g>
<defs>
<clipPath id="clip0">
<rect width="24" height="24" fill="white"/>
</clipPath>
</defs>
</svg>
