<svg width="24" height="24" viewBox="0 0 24 24" fill="none" xmlns="http://www.w3.org/2000/svg">
<rect width="24" height="24"/>
<path fill-rule="evenodd" clip-rule="evenodd" d="M2.90298 1C3.4479 1 3.88945 1.55255 3.88945 2.00028V21.9997C3.88945 22.5523 3.4479 23 2.90298 23C2.35805 23 1.9165 22.4474 1.9165 21.9997V2.00028C1.9165 1.44773 2.35805 1 2.90298 1V1Z" fill="black"/>
<path fill-rule="evenodd" clip-rule="evenodd" d="M2.90565 2.9997C2.35987 2.9997 1.91748 2.55629 1.91748 2.00028C1.91748 1.44773 2.35987 1 2.90565 1H12.7628C13.3085 1 13.7509 1.44342 13.7509 2.00028C13.7509 2.55198 13.3085 2.9997 12.7628 2.9997H2.90565Z" fill="black"/>
<path fill-rule="evenodd" clip-rule="evenodd" d="M1.91748 21.9991C1.91748 21.4465 2.46241 20.9988 2.90395 20.9988H12.7652C13.3101 20.9988 13.7517 21.4465 13.7517 21.9991C13.7517 22.5516 13.2068 22.9993 12.7652 22.9993H2.90395C2.35903 22.9993 1.91748 22.5516 1.91748 21.9991Z" fill="black"/>
<path fill-rule="evenodd" clip-rule="evenodd" d="M7.33805 13.0001C6.79481 13.0001 6.35498 12.5558 6.35498 11.9998C6.35498 11.4472 6.79907 10.9995 7.33805 10.9995H19.6715C20.2147 10.9995 20.6546 11.4438 20.6546 11.9998C20.6546 12.5523 20.2105 13.0001 19.6715 13.0001H7.33805Z" fill="black"/>
<path fill-rule="evenodd" clip-rule="evenodd" d="M21.7943 12.7071L16.9128 17.6569C16.528 18.0471 15.9035 18.0471 15.5187 17.6569C15.1331 17.2659 15.1331 16.6326 15.5187 16.2425L19.7027 11.9999L15.5187 7.75737C15.1331 7.36724 15.1331 6.73391 15.5187 6.34289C15.9034 5.95276 16.528 5.95276 16.9128 6.34289L21.7943 11.2927C22.179 11.6837 22.179 12.3162 21.7943 12.7072V12.7071Z" fill="black"/>
</svg>
