<svg width="24" height="24" viewBox="0 0 24 24" fill="none" xmlns="http://www.w3.org/2000/svg">
<g clip-path="url(#clip0)">
<path d="M23.6428 0.0229492H0.40406C0.19365 0.0229492 0.0234375 0.193152 0.0234375 0.403572V23.6423C0.0234375 23.8527 0.19364 24.0229 0.40406 24.0229H23.6428C23.8532 24.0229 24.0234 23.8527 24.0234 23.6423V0.403572C24.0234 0.193163 23.8532 0.0229492 23.6428 0.0229492ZM23.2622 23.2617H0.784408V0.783919H23.2608L23.2622 23.2617Z" fill="black"/>
<path d="M3.63404 20.7933H20.4131C20.6235 20.7933 20.7937 20.6231 20.7937 20.4126V3.63355C20.7937 3.42314 20.6235 3.25293 20.4131 3.25293H3.63404C3.42363 3.25293 3.25342 3.42313 3.25342 3.63355V20.4126C3.25342 20.623 3.42362 20.7933 3.63404 20.7933ZM9.67823 13.9836C9.5737 13.9836 9.47318 14.0265 9.40081 14.1029C9.32844 14.1793 9.29092 14.2838 9.29762 14.3897L9.67018 20.0304H8.7508L9.12336 14.3897C9.13006 14.2838 9.09254 14.1806 9.02017 14.1029C8.9478 14.0252 8.82852 13.9783 8.74007 13.9836C8.10079 13.9877 7.42131 14.2611 6.82629 14.7516C6.24331 15.234 5.81846 15.872 5.63217 16.5099C5.38825 15.8894 5.79165 14.8977 6.58908 14.2396C6.94287 13.9475 7.33155 13.7518 7.71348 13.6767C7.87564 13.6446 7.9976 13.5119 8.0177 13.3471C8.03646 13.1836 7.94801 13.0254 7.79925 12.9557C7.63173 12.8793 7.48699 12.8217 7.34092 12.7775C6.61587 12.5577 5.88012 12.5858 5.29848 12.8351C5.38961 12.555 5.60136 12.3835 5.76889 12.2883C6.2031 12.0404 6.82762 12.0028 7.43877 12.1878C8.07403 12.3808 8.61278 12.7882 8.87679 13.276C9.00947 13.5226 9.4142 13.5226 9.54688 13.276C9.81089 12.7869 10.3483 12.3808 10.9849 12.1878C11.596 12.0028 12.2206 12.039 12.6548 12.2883C12.8223 12.3848 13.0341 12.555 13.1252 12.8351C12.5435 12.5872 11.8064 12.5577 11.0827 12.7775C10.9367 12.8217 10.7919 12.878 10.6244 12.9557C10.4743 13.0254 10.3859 13.1822 10.406 13.3471C10.4261 13.5106 10.548 13.6446 10.7102 13.6767C11.0921 13.7531 11.4808 13.9475 11.8346 14.2396C12.6307 14.899 13.0341 15.8894 12.7915 16.5099C12.6039 15.872 12.1804 15.234 11.596 14.7529C11.0023 14.2611 10.3229 13.989 9.68226 13.985C9.68092 13.9836 9.67958 13.9836 9.67824 13.9836L9.67823 13.9836ZM20.0313 20.0306H12.7032L18.2476 15.167L20.0327 16.9749L20.0313 20.0306ZM4.0159 4.0152H20.0326L20.0313 15.8892L18.537 14.3747C18.3949 14.2313 18.1658 14.2233 18.0143 14.356L11.5464 20.0303H10.4354L10.0896 14.801C10.4327 14.8881 10.7879 15.073 11.1082 15.3384C11.7528 15.8718 12.1642 16.6517 12.1308 17.2789C12.1241 17.4103 12.1844 17.5349 12.2916 17.6113C12.3988 17.6877 12.5382 17.7011 12.6588 17.6515C12.9456 17.5309 13.1761 17.3406 13.3436 17.086C13.9615 16.1465 13.5112 14.6374 12.317 13.651C12.2031 13.5572 12.0865 13.4714 11.9673 13.3936C12.4739 13.3709 12.9389 13.5143 13.2176 13.7944C13.3128 13.8895 13.4522 13.9284 13.5822 13.8949C13.7135 13.8614 13.8167 13.7609 13.8542 13.6309C13.944 13.3199 13.9534 13.0144 13.8824 12.7209C13.7725 12.2666 13.4696 11.8766 13.0314 11.626C12.4095 11.2708 11.5826 11.2092 10.7611 11.4584C10.1459 11.6447 9.59779 11.9959 9.20914 12.4368C8.82183 11.9959 8.27234 11.6461 7.65721 11.4584C6.83703 11.2105 6.01012 11.2708 5.38693 11.626C4.94736 11.8766 4.64579 12.2652 4.5359 12.7209C4.46487 13.0144 4.47425 13.32 4.56404 13.6309C4.60157 13.7609 4.70476 13.8614 4.8361 13.8949C4.96744 13.9297 5.10548 13.8909 5.20063 13.7944C5.47939 13.5143 5.9404 13.3709 6.45102 13.3936C6.33174 13.4714 6.21515 13.5572 6.10124 13.651C4.90712 14.6373 4.45682 16.1464 5.07465 17.086C5.24217 17.3406 5.4727 17.5309 5.75949 17.6515C5.88011 17.7024 6.01815 17.6877 6.1267 17.6113C6.23391 17.5363 6.29556 17.4103 6.28752 17.2789C6.25402 16.6517 6.66547 15.8704 7.3101 15.3384C7.6304 15.073 7.98691 14.8881 8.32999 14.801L7.98423 20.0303H4.01607L4.0159 4.0152Z" fill="black"/>
<path d="M14.6221 10.3145C15.6206 10.3145 16.4327 9.50236 16.4327 8.50394C16.4327 7.50548 15.6205 6.69336 14.6221 6.69336C13.6236 6.69336 12.8115 7.50552 12.8115 8.50394C12.8115 9.5024 13.6237 10.3145 14.6221 10.3145ZM14.6221 7.45591C15.1997 7.45591 15.6701 7.92632 15.6701 8.50394C15.6701 9.08156 15.1997 9.55197 14.6221 9.55197C14.0445 9.55197 13.5741 9.08156 13.5741 8.50394C13.5741 7.92498 14.0445 7.45591 14.6221 7.45591Z" fill="black"/>
</g>
<defs>
<clipPath id="clip0">
<rect width="24" height="24"/>
</clipPath>
</defs>
</svg>
