<svg width="25" height="24" viewBox="0 0 25 24" fill="none" xmlns="http://www.w3.org/2000/svg">
<path d="M14.25 10.2857H10.75C10.2859 10.2857 9.84075 10.1051 9.51256 9.78361C9.18437 9.46212 9 9.02609 9 8.57143C9 8.11677 9.18437 7.68074 9.51256 7.35925C9.84075 7.03776 10.2859 6.85714 10.75 6.85714H16C16.4641 6.85714 16.9092 6.67653 17.2374 6.35504C17.5656 6.03355 17.75 5.59751 17.75 5.14286C17.75 4.6882 17.5656 4.25217 17.2374 3.93067C16.9092 3.60918 16.4641 3.42857 16 3.42857H14.25V1.71429C14.25 1.25963 14.0656 0.823594 13.7374 0.502103C13.4092 0.180612 12.9641 0 12.5 0C12.0359 0 11.5908 0.180612 11.2626 0.502103C10.9344 0.823594 10.75 1.25963 10.75 1.71429V3.42857C9.35761 3.42857 8.02225 3.97041 7.03769 4.93488C6.05312 5.89935 5.5 7.20746 5.5 8.57143C5.5 9.9354 6.05312 11.2435 7.03769 12.208C8.02225 13.1725 9.35761 13.7143 10.75 13.7143H14.25C14.7141 13.7143 15.1592 13.8949 15.4874 14.2164C15.8156 14.5379 16 14.9739 16 15.4286C16 15.8832 15.8156 16.3193 15.4874 16.6408C15.1592 16.9622 14.7141 17.1429 14.25 17.1429H9C8.53587 17.1429 8.09075 17.3235 7.76256 17.645C7.43437 17.9664 7.25 18.4025 7.25 18.8571C7.25 19.3118 7.43437 19.7478 7.76256 20.0693C8.09075 20.3908 8.53587 20.5714 9 20.5714H10.75V22.2857C10.75 22.7404 10.9344 23.1764 11.2626 23.4979C11.5908 23.8194 12.0359 24 12.5 24C12.9641 24 13.4092 23.8194 13.7374 23.4979C14.0656 23.1764 14.25 22.7404 14.25 22.2857V20.5714C15.6424 20.5714 16.9777 20.0296 17.9623 19.0651C18.9469 18.1006 19.5 16.7925 19.5 15.4286C19.5 14.0646 18.9469 12.7565 17.9623 11.792C16.9777 10.8275 15.6424 10.2857 14.25 10.2857Z" fill="black"/>
</svg>
