<svg width="24" height="24" viewBox="0 0 24 24" fill="none" xmlns="http://www.w3.org/2000/svg">
<path fill-rule="evenodd" clip-rule="evenodd" d="M12.538 0.649002L2.638 10.549C2.242 10.945 2 11.495 2 12.1L2 19.8C2 21.01 2.99 22 4.2 22L11.9 22C12.505 22 13.055 21.758 13.462 21.351L23.362 11.451C23.758 11.055 24 10.505 24 9.9C24 9.295 23.758 8.745 23.351 8.349L15.651 0.649001C15.255 0.242002 14.705 1.352e-06 14.1 1.37844e-06C13.495 1.40489e-06 12.934 0.253002 12.538 0.649002ZM22 9.875L11.8764 20L4.01124 20L4.01124 12.125L4 12.125L14.1124 2L22 9.875ZM8 18C6.89543 18 6 17.1046 6 16C6 14.8954 6.89543 14 8 14C9.10457 14 10 14.8954 10 16C10 17.1046 9.10457 18 8 18Z" fill="black"/>
</svg>
