<svg width="24" height="24" viewBox="0 0 24 24" fill="none" xmlns="http://www.w3.org/2000/svg">
<circle class="fill-my-stroke" cx="18.5" cy="5.5" r="3" stroke=""/>
<path fill-rule="evenodd" clip-rule="evenodd" d="M16.0503 3.00025C16.0335 3.00008 16.0168 3 16 3H8C5.23858 3 3 5.23858 3 8V16C3 18.7614 5.23858 21 8 21H16C18.7614 21 21 18.7614 21 16V8C21 7.98323 20.9999 7.96648 20.9998 7.94975C20.5899 8.36788 20.076 8.68362 19.5 8.85506V16C19.5 17.933 17.933 19.5 16 19.5H8C6.067 19.5 4.5 17.933 4.5 16V8C4.5 6.067 6.067 4.5 8 4.5H15.1449C15.3164 3.92396 15.6321 3.41007 16.0503 3.00025Z" fill="black"/>
</svg>
