<svg width="24" height="24" viewBox="0 0 24 24" fill="none" xmlns="http://www.w3.org/2000/svg">
<path fill-rule="evenodd" clip-rule="evenodd" d="M12 1.84615C6.39219 1.84615 1.84615 6.39219 1.84615 12C1.84615 17.6078 6.39219 22.1538 12 22.1538C17.6078 22.1538 22.1538 17.6078 22.1538 12C22.1538 6.39219 17.6078 1.84615 12 1.84615ZM0 12C0 5.37258 5.37258 0 12 0C18.6274 0 24 5.37258 24 12C24 18.6274 18.6274 24 12 24C5.37258 24 0 18.6274 0 12ZM12 3.40828C12.5098 3.40828 12.9231 3.82156 12.9231 4.33136V11.0769H17.9645C18.4743 11.0769 18.8876 11.4902 18.8876 12C18.8876 12.5098 18.4743 12.9231 17.9645 12.9231H12C11.4902 12.9231 11.0769 12.5098 11.0769 12V4.33136C11.0769 3.82156 11.4902 3.40828 12 3.40828Z" fill="black"/>
</svg>
