<svg width="24" height="24" viewBox="0 0 24 24" fill="none" xmlns="http://www.w3.org/2000/svg">
<path d="M20 4H17.535L16.75 2.8275C16.3766 2.26513 15.8697 1.80394 15.2747 1.48506C14.6797 1.16619 14.0151 0.999543 13.34 1H10.66C9.98494 0.999543 9.32026 1.16619 8.72526 1.48506C8.13025 1.80394 7.62343 2.26513 7.25 2.8275L6.465 4H4C2.93913 4 1.92172 4.42143 1.17157 5.17157C0.421427 5.92172 0 6.93914 0 8V19C0 20.0609 0.421427 21.0783 1.17157 21.8284C1.92172 22.5786 2.93913 23 4 23H20C21.0609 23 22.0783 22.5786 22.8284 21.8284C23.5786 21.0783 24 20.0609 24 19V8C24 6.93914 23.5786 5.92172 22.8284 5.17157C22.0783 4.42143 21.0609 4 20 4ZM22 19C22 19.5304 21.7893 20.0391 21.4142 20.4142C21.0391 20.7893 20.5304 21 20 21H4C3.46957 21 2.96086 20.7893 2.58579 20.4142C2.21071 20.0391 2 19.5304 2 19V8C2 7.46957 2.21071 6.96086 2.58579 6.58579C2.96086 6.21071 3.46957 6 4 6H7.535L8.91 3.935C9.1022 3.64715 9.36249 3.41119 9.66777 3.24809C9.97305 3.08498 10.3139 2.99976 10.66 3H13.34C13.6861 2.99976 14.0269 3.08498 14.3322 3.24809C14.6375 3.41119 14.8978 3.64715 15.09 3.935L16.465 6H20C20.5304 6 21.0391 6.21071 21.4142 6.58579C21.7893 6.96086 22 7.46957 22 8V19Z" fill="black"/>
<path d="M5 10C5.55228 10 6 9.55228 6 9C6 8.44772 5.55228 8 5 8C4.44772 8 4 8.44772 4 9C4 9.55228 4.44772 10 5 10Z" fill="black"/>
<path d="M12 8C11.0111 8 10.0444 8.29325 9.22215 8.84265C8.39991 9.39206 7.75904 10.173 7.3806 11.0866C7.00217 12.0002 6.90315 13.0055 7.09608 13.9755C7.289 14.9454 7.76521 15.8363 8.46447 16.5355C9.16373 17.2348 10.0546 17.711 11.0246 17.9039C11.9945 18.0969 12.9998 17.9978 13.9134 17.6194C14.827 17.241 15.6079 16.6001 16.1574 15.7779C16.7068 14.9556 17 13.9889 17 13C17 11.6739 16.4732 10.4021 15.5355 9.46447C14.5979 8.52678 13.3261 8 12 8ZM12 16C11.4067 16 10.8266 15.8241 10.3333 15.4944C9.83994 15.1648 9.45543 14.6962 9.22836 14.1481C9.0013 13.5999 8.94189 12.9967 9.05765 12.4147C9.1734 11.8328 9.45912 11.2982 9.87868 10.8787C10.2982 10.4591 10.8328 10.1734 11.4147 10.0576C11.9967 9.94189 12.5999 10.0013 13.1481 10.2284C13.6962 10.4554 14.1648 10.8399 14.4944 11.3333C14.8241 11.8266 15 12.4067 15 13C15 13.7956 14.6839 14.5587 14.1213 15.1213C13.5587 15.6839 12.7957 16 12 16Z" fill="black"/>
</svg>
