<svg width="24" height="24" viewBox="0 0 24 24" fill="none" xmlns="http://www.w3.org/2000/svg">
<path d="M1.91734 23C2.03774 23.0001 2.15699 22.9765 2.26826 22.9305C2.37954 22.8845 2.48065 22.817 2.56584 22.7319L7.87534 17.4222L12.2682 21.8152C12.3533 21.9005 12.4544 21.9681 12.5657 22.0142C12.677 22.0603 12.7963 22.0841 12.9167 22.0841C13.0372 22.0841 13.1565 22.0603 13.2677 22.0142C13.379 21.9681 13.4801 21.9005 13.5652 21.8152L15.6276 19.7528C16.2254 19.1546 16.5612 18.3435 16.5612 17.4978C16.5612 16.6521 16.2254 15.8411 15.6276 15.2429L15.5887 15.2085L20.2496 10.5474L21.4344 11.7321C21.5195 11.8173 21.6206 11.8849 21.7319 11.931C21.8432 11.977 21.9624 12.0008 22.0829 12.0008C22.2033 12.0008 22.3226 11.977 22.4338 11.931C22.5451 11.8849 22.6462 11.8173 22.7314 11.7321C22.8165 11.647 22.8841 11.5459 22.9302 11.4346C22.9763 11.3233 23 11.2041 23 11.0836C23 10.9632 22.9763 10.8439 22.9302 10.7326C22.8841 10.6214 22.8165 10.5202 22.7314 10.4351L13.5652 1.26863C13.3932 1.09663 13.16 1 12.9167 1C12.6735 1 12.4402 1.09663 12.2682 1.26863C12.0962 1.44063 11.9996 1.67391 11.9996 1.91716C11.9996 2.1604 12.0962 2.39368 12.2682 2.56568L13.4529 3.75045L8.79195 8.41159L8.75529 8.37721C8.15713 7.7794 7.34608 7.44358 6.50041 7.44358C5.65475 7.44358 4.84369 7.7794 4.24554 8.37721L2.18316 10.4397C2.09793 10.5248 2.03032 10.6259 1.9842 10.7372C1.93807 10.8485 1.91432 10.9677 1.91432 11.0882C1.91432 11.2087 1.93807 11.3279 1.9842 11.4392C2.03032 11.5505 2.09793 11.6516 2.18316 11.7367L6.57833 16.1252L1.26883 21.4348C1.1405 21.563 1.05308 21.7264 1.01765 21.9043C0.982225 22.0822 1.00038 22.2667 1.06981 22.4342C1.13925 22.6018 1.25685 22.745 1.40772 22.8457C1.55858 22.9465 1.73594 23.0001 1.91734 23V23ZM14.75 5.0475L18.9526 9.25032L14.2916 13.9115L10.089 9.70864L14.75 5.0475ZM5.54026 9.67198C5.79504 9.41757 6.14037 9.27467 6.50041 9.27467C6.86046 9.27467 7.20579 9.41757 7.46057 9.67198L14.3352 16.5468C14.5857 16.8036 14.726 17.1482 14.726 17.507C14.726 17.8658 14.5857 18.2104 14.3352 18.4672L12.9167 19.8697L4.13096 11.0836L5.54026 9.67198Z" fill="black"/>
</svg>
