<svg width="24" height="24" viewBox="0 0 24 24" fill="none" xmlns="http://www.w3.org/2000/svg">
<path d="M11.1 17.7522C10.1568 16.8174 8.93415 16.2303 7.62601 16.0839L3.99901 15.6668C3.87278 15.6526 3.74502 15.6658 3.62413 15.7054C3.50324 15.7451 3.39196 15.8103 3.2976 15.8969C3.20324 15.9835 3.12794 16.0894 3.07665 16.2077C3.02536 16.3261 2.99925 16.4541 3.00002 16.5835C3.00002 18.2853 3.66376 19.9173 4.84524 21.1206C6.02672 22.324 7.62914 23 9.30001 23H14.7C16.3709 23 17.9733 22.324 19.1548 21.1206C20.3362 19.9173 21 18.2853 21 16.5835C21.0008 16.4541 20.9746 16.3261 20.9233 16.2077C20.8721 16.0894 20.7968 15.9835 20.7024 15.8969C20.608 15.8103 20.4968 15.7451 20.3759 15.7054C20.255 15.6658 20.1272 15.6526 20.001 15.6668L16.374 16.0793C15.0653 16.227 13.8425 16.8158 12.9 17.7522V14.7502C12.9 14.7273 12.9 14.7089 12.9 14.6883C14.5206 14.5589 16.0903 14.0516 17.4877 13.2057L17.7127 13.0613C18.4387 12.6139 19.0395 11.9839 19.4576 11.2319C19.8756 10.4798 20.0968 9.63099 20.1 8.7668C20.1 5.90916 19.425 4.00941 18.2055 1.50697C18.1369 1.36712 18.0343 1.24747 17.9075 1.15938C17.7807 1.07129 17.6339 1.0177 17.481 1.00369C17.3282 0.989679 17.1743 1.01572 17.0341 1.07935C16.8939 1.14297 16.772 1.24205 16.68 1.36718L14.7 4.05524L12.72 1.36718C12.6326 1.25876 12.5227 1.17143 12.3982 1.11146C12.2737 1.0515 12.1377 1.0204 12 1.0204C11.8623 1.0204 11.7263 1.0515 11.6018 1.11146C11.4773 1.17143 11.3674 1.25876 11.28 1.36718L9.30001 4.05524L7.32001 1.36718C7.228 1.24205 7.1061 1.14297 6.9659 1.07935C6.8257 1.01572 6.67185 0.989679 6.51898 1.00369C6.3661 1.0177 6.21929 1.07129 6.09249 1.15938C5.96569 1.24747 5.86311 1.36712 5.79451 1.50697C4.57501 4.0117 3.90001 5.90916 3.90001 8.7668C3.90342 9.63121 4.12498 10.4802 4.54343 11.2323C4.96188 11.9843 5.56316 12.6141 6.28951 13.0613L6.51451 13.2057C7.9129 14.0512 9.48324 14.5585 11.1045 14.6883C11.1045 14.7089 11.1045 14.7273 11.1045 14.7502L11.1 17.7522ZM9.30001 21.1667C8.28342 21.1666 7.29683 20.8159 6.50094 20.1717C5.70505 19.5275 5.14676 18.6279 4.91701 17.6193L7.42801 17.9035C8.28317 18.0004 9.08723 18.367 9.72784 18.952C10.3684 19.5371 10.8136 20.3114 11.001 21.1667H9.30001ZM16.572 17.9035L19.083 17.6193C18.8532 18.6279 18.295 19.5275 17.4991 20.1717C16.7032 20.8159 15.7166 21.1666 14.7 21.1667H12.999C13.1864 20.3114 13.6316 19.5371 14.2722 18.952C14.9128 18.367 15.7168 18.0004 16.572 17.9035ZM7.21426 11.4869C6.75383 11.2041 6.37265 10.8052 6.10744 10.3288C5.84223 9.85239 5.70192 9.31446 5.70001 8.7668C5.67959 7.01107 6.04716 5.27316 6.77551 3.68171L8.57551 6.13374C8.66289 6.24216 8.77278 6.32949 8.89728 6.38946C9.02178 6.44942 9.15779 6.48052 9.29551 6.48052C9.43322 6.48052 9.56923 6.44942 9.69373 6.38946C9.81823 6.32949 9.92813 6.24216 10.0155 6.13374L12 3.44568L13.98 6.13374C14.0674 6.24216 14.1773 6.32949 14.3018 6.38946C14.4263 6.44942 14.5623 6.48052 14.7 6.48052C14.8377 6.48052 14.9737 6.44942 15.0982 6.38946C15.2227 6.32949 15.3326 6.24216 15.42 6.13374L17.22 3.68171C17.9499 5.27279 18.319 7.01072 18.3 8.7668C18.2983 9.31454 18.1583 9.85263 17.8935 10.3294C17.6287 10.8061 17.248 11.2055 16.788 11.4892L16.563 11.6336C15.1826 12.4578 13.6114 12.8923 12.0112 12.8923C10.4111 12.8923 8.83991 12.4578 7.45951 11.6336L7.21426 11.4869Z" fill="black"/>
</svg>
