<svg width="24" height="24" viewBox="0 0 24 24" fill="none" xmlns="http://www.w3.org/2000/svg">
<rect width="24" height="24"/>
<path d="M12 0C5.37202 0 0 5.37202 0 12C0 18.628 5.37202 24 12 24C18.628 24 24 18.628 24 12C24 5.37202 18.628 0 12 0ZM13.1339 17.4462H11.0144V15.6231H13.1339V17.4462ZM13.158 13.2321V14.2668H11.0144V11.2357H12.0741C12.9616 11.2357 13.6758 10.5215 13.6758 9.634C13.6758 8.74653 12.9616 8.03233 12.0741 8.03233C11.1867 8.03233 10.4725 8.74653 10.4725 9.634H8.32888C8.32888 7.56454 10.0047 5.88879 12.0741 5.88879C14.1435 5.88879 15.8193 7.56459 15.8193 9.634C15.8193 11.3348 14.7104 12.7642 13.1578 13.2321L13.158 13.2321Z" fill="black"/>
</svg>
