<svg width="24" height="24" viewBox="0 0 24 24" fill="none" xmlns="http://www.w3.org/2000/svg">
<rect width="24" height="24"/>
<path d="M12 24C5.3832 24 0 18.6168 0 12C0 5.3832 5.3832 0 12 0C18.6168 0 24 5.3832 24 12C24 18.6168 18.6168 24 12 24ZM12 1.5C6.21 1.5 1.5 6.21 1.5 12C1.5 17.79 6.21 22.5 12 22.5C17.79 22.5 22.5 17.79 22.5 12C22.5 6.21 17.79 1.5 12 1.5Z" fill="black"/>
<path d="M13 17C13 18.3333 11 18.3333 11 17C11 15.6667 13 15.6667 13 17Z" fill="black"/>
<path d="M12.0395 15C11.4817 15 11.0299 14.5542 11.0299 14.0037C11.0299 12.6762 12.2187 11.6687 13.3798 10.8555C13.7407 10.6027 14.1395 9.7646 13.9174 9.07719C13.6978 8.39849 12.8232 7.99377 12.1039 7.99377H12.1026C11.3151 7.99377 10.3383 8.35491 9.95713 9.36737C9.76277 9.88294 9.17972 10.1445 8.65849 9.95391C8.136 9.76213 7.86846 9.18929 8.06409 8.67247C8.67491 7.04982 10.2601 6 12.1026 6H12.1052C13.5641 6 15.3158 6.84808 15.8406 8.467C16.3492 10.0311 15.5655 11.7673 14.5483 12.4795C13.1967 13.4247 13.0503 13.858 13.0503 14.0013C13.0477 14.5542 12.5972 15 12.0394 15L12.0395 15Z" fill="black"/>
</svg>
