<svg width="24" height="24" viewBox="0 0 24 24" fill="none" xmlns="http://www.w3.org/2000/svg">
<path d="M2.71886 16.5687C6.02101 18.0821 9.74156 22.5361 9.7796 22.5767C9.86875 22.6842 9.98034 22.7707 10.1065 22.8301C10.2326 22.8894 10.3701 22.9203 10.5094 22.9204H20.9698C21.222 22.9204 21.7424 23.0995 21.9207 22.9204C22.0991 22.7414 21.9207 22.2189 21.9207 21.9656V13.9001C21.9182 12.9612 21.6347 12.0447 21.1069 11.2696C20.5791 10.4945 19.8314 9.89658 18.9609 9.55346C17.1349 8.85476 15.2646 8.27902 13.3623 7.83008V6.68911H15.2642C16.0208 6.68911 16.7464 6.38733 17.2814 5.85016C17.8164 5.31299 18.117 4.58443 18.117 3.82476C18.117 3.06509 17.8164 2.33653 17.2814 1.79936C16.7464 1.26219 16.0208 0.960411 15.2642 0.960411C14.486 0.960358 13.727 1.20217 13.0913 1.65263C12.8659 1.15759 12.503 0.738355 12.0462 0.445223C11.5895 0.15209 11.0581 -0.00248958 10.516 3.03243e-05C9.97393 0.00255023 9.44406 0.162063 8.99 0.459429C8.53593 0.756796 8.17697 1.17939 7.95617 1.6765C7.31511 1.21231 6.54512 0.961847 5.75474 0.960411C4.99813 0.960411 4.2725 1.26219 3.73749 1.79936C3.20248 2.33653 2.90192 3.06509 2.90192 3.82476C2.90192 4.58443 3.20248 5.31299 3.73749 5.85016C4.2725 6.38733 4.99813 6.68911 5.75474 6.68911H7.65662V12.3892C6.7085 11.8278 5.69423 11.3876 4.63739 11.0787C4.21788 10.95 3.77406 10.9225 3.34198 10.9984C2.9099 11.0743 2.50174 11.2515 2.15068 11.5155C1.79203 11.78 1.5008 12.1259 1.30082 12.525C1.10083 12.9241 0.997762 13.365 1.00004 13.8118V13.9598C1.00379 14.5151 1.16826 15.0574 1.47342 15.5206C1.77859 15.9838 2.2113 16.348 2.71886 16.5687ZM15.2642 2.86998C15.5164 2.86998 15.7582 2.97057 15.9366 3.14963C16.1149 3.32868 16.2151 3.57154 16.2151 3.82476C16.2151 4.07798 16.1149 4.32084 15.9366 4.49989C15.7582 4.67895 15.5164 4.77954 15.2642 4.77954H13.3623C13.3623 4.2731 13.5626 3.78739 13.9193 3.42928C14.276 3.07116 14.7597 2.86998 15.2642 2.86998ZM9.55851 2.97262C9.55 2.73471 9.62335 2.50113 9.76624 2.31115C9.90912 2.12118 10.1128 1.98641 10.343 1.92952C10.4799 1.90509 10.6204 1.91109 10.7547 1.94709C10.889 1.98309 11.0138 2.04821 11.1204 2.13787C11.2269 2.22753 11.3125 2.33955 11.3713 2.46604C11.43 2.59253 11.4604 2.73041 11.4604 2.86998V4.77954H9.55851V2.97262ZM4.8038 3.82476C4.8038 3.57154 4.90399 3.32868 5.08233 3.14963C5.26066 2.97057 5.50254 2.86998 5.75474 2.86998C6.25915 2.86998 6.7429 3.07116 7.09958 3.42928C7.45625 3.78739 7.65662 4.2731 7.65662 4.77954H5.75474C5.50254 4.77954 5.26066 4.67895 5.08233 4.49989C4.90399 4.32084 4.8038 4.07798 4.8038 3.82476ZM2.90192 13.8118C2.9022 13.6634 2.93693 13.517 3.00338 13.3845C3.06982 13.2519 3.16613 13.1366 3.28467 13.048C3.3973 12.9601 3.52913 12.9004 3.66926 12.8739C3.8094 12.8473 3.95383 12.8546 4.0906 12.8952C5.24123 13.2461 6.84595 13.8929 7.93953 14.9933C8.07219 15.1248 8.24042 15.2143 8.4233 15.2506C8.60619 15.2869 8.79566 15.2684 8.96817 15.1974C9.14068 15.1265 9.28861 15.0062 9.39357 14.8515C9.49852 14.6968 9.55588 14.5145 9.55851 14.3274V6.68911H11.4604V8.59868C11.4605 8.81912 11.5365 9.03274 11.6756 9.2033C11.8147 9.37385 12.0083 9.49082 12.2235 9.53436C14.2832 9.97913 16.3071 10.5767 18.2786 11.3222C18.7927 11.5271 19.2336 11.8825 19.5439 12.3422C19.8543 12.8019 20.0197 13.3447 20.0189 13.9001V21.0109H10.9469C9.9579 19.8747 6.66765 16.2799 3.51052 14.8334C3.33599 14.7622 3.18569 14.6418 3.07771 14.4868C2.96973 14.3318 2.90868 14.1488 2.90192 13.9598V13.8118Z" fill="black"/>
</svg>
