<svg width="24" height="24" viewBox="0 0 24 24" fill="none" xmlns="http://www.w3.org/2000/svg">
<path class="fill-my-stroke" d="M19.8842 1C19.6422 1 19.4568 1.18616 19.4568 1.4294V3.69249H16.792C16.5501 3.69249 16.3647 3.87866 16.3647 4.1219C16.3647 4.36514 16.5489 4.55015 16.792 4.55015H19.4568V7.2641C19.4568 7.50772 19.6418 7.6935 19.8842 7.6935C20.1265 7.6935 20.3115 7.50734 20.3115 7.2641V4.55015H22.5715C22.8146 4.55015 23 4.36476 23 4.1219C23 3.87904 22.8135 3.69249 22.5715 3.69249H20.3115V1.4294C20.3115 1.18578 20.1265 1 19.8842 1ZM6.80275 3.69288C5.08066 3.69288 3.68846 5.08911 3.68846 6.81516V7.26448C3.68846 7.50811 3.87347 7.69389 4.11583 7.69389C4.35818 7.69389 4.5432 7.50772 4.5432 7.26448V6.81516C4.5432 5.571 5.56154 4.55054 6.80313 4.55054H7.25153C7.49465 4.55054 7.68005 4.36514 7.68005 4.12228C7.68005 3.87942 7.4935 3.69288 7.25153 3.69288H6.80275ZM10.8349 3.69288C10.5929 3.69288 10.4075 3.87904 10.4075 4.12228C10.4075 4.36552 10.5917 4.55054 10.8349 4.55054H13.1636C13.4067 4.55054 13.5921 4.36514 13.5921 4.12228C13.5921 3.87942 13.4056 3.69288 13.1636 3.69288H10.8349ZM4.11583 10.427C3.87271 10.427 3.68846 10.6116 3.68846 10.8552V13.1888C3.68846 13.4324 3.87347 13.6182 4.11583 13.6182C4.35818 13.6182 4.5432 13.4321 4.5432 13.1888V10.8552C4.5432 10.6116 4.35894 10.427 4.11583 10.427ZM19.8842 10.427C19.6411 10.427 19.4568 10.6116 19.4568 10.8552V13.1888C19.4568 13.4324 19.6418 13.6182 19.8842 13.6182C20.1265 13.6182 20.3115 13.4321 20.3115 13.1888V10.8552C20.3115 10.6116 20.1273 10.427 19.8842 10.427ZM4.11583 16.3517C3.87385 16.3517 3.68846 16.5379 3.68846 16.7811V19.4498H1.42852C1.1854 19.4498 1 19.6352 1 19.8781C1 20.121 1.18654 20.3075 1.42852 20.3075H3.68846V22.5706C3.68846 22.8142 3.87347 23 4.11583 23C4.35818 23 4.5432 22.8138 4.5432 22.5706V20.3075H7.25153C7.4935 20.3075 7.68005 20.1206 7.68005 19.8781C7.68005 19.6356 7.49427 19.4498 7.25153 19.4498H4.5432V16.7811C4.5432 16.5375 4.35818 16.3517 4.11583 16.3517ZM19.8842 16.3532C19.6411 16.3532 19.4568 16.5379 19.4568 16.7815V17.1856C19.4568 18.4298 18.4385 19.4502 17.1969 19.4502H16.7485C16.5054 19.4502 16.32 19.6356 16.32 19.8785C16.32 20.1213 16.5065 20.3079 16.7485 20.3079H17.1969C18.919 20.3079 20.3112 18.9117 20.3112 17.1856V16.7815C20.3112 16.5379 20.1269 16.3532 19.8838 16.3532H19.8842ZM10.8349 19.4502C10.5917 19.4502 10.4075 19.6349 10.4075 19.8785C10.4075 20.1221 10.5925 20.3079 10.8349 20.3079H13.1636C13.4056 20.3079 13.5921 20.121 13.5921 19.8785C13.5921 19.636 13.4063 19.4502 13.1636 19.4502H10.8349Z" stroke="black" stroke-width="1"/>
<path fill-rule="evenodd" clip-rule="evenodd" d="M12 14.2857C13.2624 14.2857 14.2857 13.2624 14.2857 12C14.2857 10.7376 13.2624 9.71429 12 9.71429C10.7376 9.71429 9.71429 10.7376 9.71429 12C9.71429 13.2624 10.7376 14.2857 12 14.2857ZM12 16C14.2091 16 16 14.2091 16 12C16 9.79086 14.2091 8 12 8C9.79086 8 8 9.79086 8 12C8 14.2091 9.79086 16 12 16Z" fill="black"/>
</svg>
