<svg width="24" height="24" viewBox="0 0 24 24" fill="none" xmlns="http://www.w3.org/2000/svg">
<path fill-rule="evenodd" clip-rule="evenodd" d="M10.063 16.8623C6.31413 16.8623 3.26368 13.8119 3.26368 10.063C3.26368 6.31413 6.31413 3.26368 10.063 3.26368C13.8119 3.26368 16.8623 6.31413 16.8623 10.063C16.8623 13.8119 13.8119 16.8623 10.063 16.8623ZM18.2287 15.9213C19.4178 14.2688 20.126 12.2497 20.126 10.063C20.126 4.51367 15.6123 0 10.063 0C4.51367 0 0 4.51367 0 10.063C0 15.6123 4.51367 20.126 10.063 20.126C12.2497 20.126 14.2688 19.4178 15.9213 18.2287L21.6915 24L24 21.6915L18.2287 15.9213Z" fill="black"/>
</svg>
