<svg width="24" height="24" viewBox="0 0 24 24" fill="none" xmlns="http://www.w3.org/2000/svg">
<g clip-path="url(#clip0)">
<path d="M15 11.9993C15 13.6568 13.6565 15 12 15C10.3421 15 9 13.6568 9 11.9993C9 10.3432 10.3421 9 12 9C13.6565 9 15 10.3432 15 11.9993Z" fill="black"/>
<path d="M23.5319 9.95092L20.6505 9.40624C20.4779 8.82312 20.2453 8.26064 19.9564 7.72626L21.6109 5.28044C21.7638 5.04138 21.7348 4.72919 21.5415 4.522L19.479 2.46047C19.2708 2.27484 18.964 2.25047 18.7295 2.40047L16.2825 4.08045C15.7319 3.77952 15.1513 3.53858 14.5492 3.36046L14.0117 0.480484C13.947 0.206742 13.7069 0.0098722 13.4255 0.000488281H10.5085C10.2262 0.00798821 9.98514 0.205799 9.9223 0.480484L9.37736 3.3943C8.80427 3.56867 8.25087 3.79836 7.7228 4.08055L5.30746 2.42963C5.06828 2.27681 4.75594 2.30588 4.54864 2.499L2.48608 4.56053C2.29192 4.76772 2.26378 5.07991 2.41573 5.31897L4.08249 7.74799C3.80016 8.27486 3.57317 8.82892 3.40341 9.40172L0.521999 9.9464C0.231241 9.99702 0.0154956 10.2426 0.000488281 10.5361V13.4405C0.00799195 13.7236 0.204963 13.9655 0.480723 14.0311L3.36213 14.5758C3.53659 15.158 3.7692 15.7205 4.05622 16.2558L2.41103 18.6558C2.25064 18.9061 2.29003 19.2352 2.50482 19.4404L4.5627 21.4973C4.76906 21.6932 5.08328 21.7223 5.32152 21.5667L7.73206 19.9204C8.25264 20.2026 8.79946 20.4323 9.36505 20.6067L9.91281 23.5205C9.97753 23.7942 10.2176 23.9911 10.4981 24.0005H13.416C13.6983 23.9939 13.9403 23.7961 14.0013 23.5205L14.5416 20.6405C15.1334 20.468 15.7056 20.2355 16.2496 19.9468L18.6817 21.6005C18.9218 21.7589 19.2398 21.7327 19.4499 21.5358L21.5125 19.4743C21.7019 19.2662 21.7273 18.9558 21.5725 18.7206L19.9301 16.2961C20.2218 15.7524 20.4592 15.1805 20.6383 14.5899L23.5197 14.0452C23.7955 13.9805 23.9925 13.7377 23.9999 13.4546V10.5417C24.0037 10.2586 23.8076 10.0119 23.5319 9.95092ZM12.0062 17.0047C10.6781 17.0028 9.40434 16.4741 8.46644 15.5347C7.52753 14.5953 7.00134 13.3213 7.00227 11.9938C7.00321 10.6663 7.53221 9.39316 8.47206 8.45573C9.4119 7.51729 10.6856 6.99042 12.0147 6.99136C13.3429 6.9923 14.6157 7.52104 15.5546 8.45948C16.4935 9.39885 17.0206 10.6729 17.0197 12.0004C17.0197 13.3288 16.4916 14.6029 15.5508 15.5413C14.611 16.4798 13.3354 17.0066 12.0062 17.0047Z" fill="black"/>
</g>
<defs>
<clipPath id="clip0">
<rect width="24" height="24" fill="white"/>
</clipPath>
</defs>
</svg>
