<svg width="25" height="24" viewBox="0 0 25 24" fill="none" xmlns="http://www.w3.org/2000/svg">
<path d="M9.50076 24H15.4992C16.2947 24 17.0576 23.6839 17.62 23.1213C18.1825 22.5587 18.4985 21.7956 18.4985 21V20.6175L20.9978 19.3675C21.4302 19.1514 21.804 18.8339 22.0873 18.4421C22.3706 18.0504 22.5551 17.5959 22.6249 17.1175L23.4972 11.1425C23.5009 11.0951 23.5009 11.0474 23.4972 11C23.4972 8.08261 22.3386 5.28472 20.2762 3.22182C18.2138 1.15892 15.4166 0 12.5 0C9.58336 0 6.78618 1.15892 4.7238 3.22182C2.66142 5.28472 1.50279 8.08261 1.50279 11C1.49907 11.0474 1.49907 11.0951 1.50279 11.1425L2.36507 17.105C2.43494 17.5834 2.61938 18.0379 2.90268 18.4296C3.18598 18.8214 3.55976 19.1389 3.99216 19.355L6.49153 20.605V21C6.49152 21.3948 6.56943 21.7857 6.72078 22.1503C6.87213 22.515 7.09395 22.8461 7.37351 23.1248C7.65308 23.4036 7.98489 23.6243 8.34993 23.7745C8.71497 23.9247 9.10606 24.0013 9.50076 24ZM4.88693 17.575C4.7428 17.5029 4.61821 17.3971 4.52377 17.2665C4.42934 17.1359 4.36786 16.9845 4.34457 16.825L3.50229 10.93C3.50229 8.54305 4.45026 6.25386 6.13765 4.56604C7.82505 2.87821 10.1137 1.93 12.5 1.93C14.8863 1.93 17.1749 2.87821 18.8623 4.56604C20.5497 6.25386 21.4977 8.54305 21.4977 10.93L20.6554 16.82C20.6321 16.9795 20.5707 17.1309 20.4762 17.2615C20.3818 17.3921 20.2572 17.4979 20.1131 17.57L17.0513 19.105C16.8852 19.1881 16.7456 19.3159 16.648 19.474C16.5505 19.6321 16.4989 19.8142 16.499 20V21C16.499 21.2652 16.3937 21.5196 16.2062 21.7071C16.0187 21.8946 15.7644 22 15.4992 22H9.50076C9.23561 22 8.98132 21.8946 8.79384 21.7071C8.60635 21.5196 8.50102 21.2652 8.50102 21V20C8.50115 19.8142 8.44954 19.6321 8.35198 19.474C8.25441 19.3159 8.11475 19.1881 7.94866 19.105L4.88693 17.575Z" fill="black"/>
<path d="M9.00108 12C9.8293 12 10.5007 11.3284 10.5007 10.5C10.5007 9.67157 9.8293 9 9.00108 9C8.17287 9 7.50146 9.67157 7.50146 10.5C7.50146 11.3284 8.17287 12 9.00108 12Z" fill="black"/>
<path d="M15.9991 12C16.8273 12 17.4987 11.3284 17.4987 10.5C17.4987 9.67157 16.8273 9 15.9991 9C15.1709 9 14.4995 9.67157 14.4995 10.5C14.4995 11.3284 15.1709 12 15.9991 12Z" fill="black"/>
<path d="M11.8326 17.0001H13.1673C13.3255 16.9999 13.4813 16.9621 13.622 16.8899C13.7628 16.8177 13.8844 16.7131 13.9768 16.5847C14.0693 16.4564 14.13 16.3079 14.1539 16.1515C14.1779 15.9951 14.1644 15.8353 14.1145 15.6851L13.4472 13.6851C13.3803 13.4869 13.2529 13.3146 13.083 13.1926C12.9131 13.0705 12.7092 13.0049 12.5 13.0049C12.2908 13.0049 12.0868 13.0705 11.9169 13.1926C11.747 13.3146 11.6196 13.4869 11.5527 13.6851L10.8854 15.6851C10.8355 15.8353 10.8221 15.9951 10.846 16.1515C10.8699 16.3079 10.9306 16.4564 11.0231 16.5847C11.1156 16.7131 11.2372 16.8177 11.3779 16.8899C11.5186 16.9621 11.6745 16.9999 11.8326 17.0001Z" fill="black"/>
</svg>
