<svg width="24" height="24" viewBox="0 0 24 24" fill="none" xmlns="http://www.w3.org/2000/svg">
<path d="M23.7768 5.47311C23.3929 4.94499 22.721 4.84597 22.2091 5.24206C22.1771 5.27506 22.1131 5.30807 22.0172 5.37409C21.8252 5.50611 21.6333 5.63814 21.4093 5.80318C20.6735 6.26528 19.9056 6.69438 19.1378 7.09047C16.6424 8.34475 14.2749 8.97188 12.0994 8.97188C9.92389 8.97188 7.52444 8.34475 4.99701 7.09047C4.19719 6.69438 3.39737 6.26528 2.66153 5.80318C2.40559 5.63814 2.21363 5.50611 2.02168 5.37409C1.8937 5.30807 1.82972 5.24206 1.76573 5.24206C1.54178 5.04401 1.25385 4.978 0.933921 5.01101C0.645986 5.07702 0.390043 5.24206 0.230079 5.50611C0.0701154 5.77017 -0.0258629 6.03423 0.00612987 6.36431C0.0701155 6.66137 0.230079 6.92543 0.486022 7.09047C0.550007 7.12347 0.613993 7.18949 0.741964 7.28851C0.965914 7.45355 1.18986 7.58558 1.44581 7.78362C2.14965 8.21272 2.88548 8.64181 3.6853 9.0379V14.4181C3.6853 14.4511 3.6853 14.4841 3.6853 14.4841C3.74929 17.0587 4.90103 19.4682 6.7886 21.0856C8.26027 22.3068 10.1159 23 11.9714 23C13.891 23 15.7466 22.3068 17.2183 21.0526C19.1058 19.4352 20.2256 17.0587 20.2896 14.5171C20.2896 14.4841 20.2896 14.4511 20.2896 14.4511V9.07091C21.0894 8.67482 21.8252 8.24572 22.561 7.78362C22.817 7.61858 23.0729 7.45355 23.2649 7.32152C23.3929 7.2225 23.4888 7.15648 23.5208 7.12347C24.0327 6.72739 24.1607 6.00122 23.7768 5.47311ZM15.8106 19.2702C14.7228 20.1944 13.4111 20.6895 12.0034 20.6895C10.6277 20.6895 9.31603 20.1944 8.22828 19.3032C6.75661 18.0819 5.9248 16.2335 5.9248 14.2531V10.0281C7.65241 10.6883 9.31603 11.0844 10.8837 11.2494V15.7054C10.8837 16.2665 11.2356 16.7286 11.7155 16.8606C12.0674 16.9597 12.4193 16.8606 12.6753 16.6626C12.9312 16.4315 13.0912 16.1015 13.0912 15.7384V11.2494C14.6908 11.1174 16.3544 10.7213 18.0501 10.0611V14.2531C18.0821 16.2005 17.2502 18.0489 15.8106 19.2702Z" fill="black"/>
</svg>
