<svg width="24" height="24" viewBox="0 0 24 24" fill="none" xmlns="http://www.w3.org/2000/svg">
<path d="M18.8 16.3981C18.7212 16.2931 18.6225 16.2045 18.5095 16.1376C18.3965 16.0707 18.2714 16.0267 18.1414 16.0081C18.0114 15.9895 17.879 15.9967 17.7518 16.0293C17.6246 16.0619 17.5051 16.1193 17.4 16.1981C17.2949 16.2769 17.2064 16.3756 17.1395 16.4887C17.0726 16.6017 17.0286 16.7268 17.0101 16.8568C16.9915 16.9869 16.9987 17.1193 17.0313 17.2465C17.0639 17.3738 17.1212 17.4933 17.2 17.5984L20.2 21.5993C20.3591 21.8116 20.596 21.9519 20.8586 21.9894C21.1211 22.0269 21.3878 21.9585 21.6 21.7994C21.8122 21.6402 21.9524 21.4033 21.99 21.1406C22.0275 20.878 21.9591 20.6113 21.8 20.3991L18.8 16.3981Z" fill="black"/>
<path d="M5.2 16.3981L2.2 20.3991C2.12121 20.5041 2.06388 20.6237 2.03129 20.751C1.99869 20.8782 1.99148 21.0106 2.01005 21.1407C2.02862 21.2707 2.07262 21.3958 2.13953 21.5088C2.20643 21.6218 2.29494 21.7206 2.4 21.7994C2.50506 21.8782 2.62461 21.9355 2.75182 21.9681C2.87903 22.0007 3.01142 22.0079 3.14142 21.9894C3.27142 21.9708 3.39649 21.9268 3.50949 21.8599C3.62249 21.7929 3.72121 21.7044 3.8 21.5993L6.8 17.5984C6.95913 17.3862 7.02746 17.1194 6.98995 16.8568C6.95244 16.5942 6.81217 16.3573 6.6 16.1981C6.38783 16.0389 6.12113 15.9706 5.85858 16.0081C5.59603 16.0456 5.35913 16.1859 5.2 16.3981Z" fill="black"/>
<path d="M12 16.9985C11.7348 16.9985 11.4804 17.1039 11.2929 17.2915C11.1054 17.4791 11 17.7335 11 17.9988V22.9999C11 23.2652 11.1054 23.5196 11.2929 23.7072C11.4804 23.8948 11.7348 24.0001 12 24.0001C12.2652 24.0001 12.5196 23.8948 12.7071 23.7072C12.8946 23.5196 13 23.2652 13 22.9999V17.9988C13 17.7335 12.8946 17.4791 12.7071 17.2915C12.5196 17.1039 12.2652 16.9985 12 16.9985Z" fill="black"/>
<path d="M16.9475 4.47553C16.8241 3.24887 16.2495 2.11179 15.3354 1.28484C14.4212 0.457884 13.2326 0 12 0C10.7674 0 9.57878 0.457884 8.66462 1.28484C7.75046 2.11179 7.17594 3.24887 7.0525 4.47553C3.1425 5.24571 0 6.9511 0 9.49668C0 13.07 6.1825 14.9979 12 14.9979C17.8175 14.9979 24 13.07 24 9.49668C24 6.9511 20.8575 5.24571 16.9475 4.47553ZM12 1.99496C12.7956 1.99496 13.5587 2.3111 14.1213 2.87384C14.6839 3.43658 15 4.19982 15 4.99565V7.45371C14.565 7.67126 13.6475 7.99633 12 7.99633C10.3525 7.99633 9.435 7.66876 9 7.45371V4.99565C9 4.19982 9.31607 3.43658 9.87868 2.87384C10.4413 2.3111 11.2044 1.99496 12 1.99496ZM12 12.9975C5.805 12.9975 2 10.9595 2 9.49668C2 8.49645 3.835 7.21115 7 6.51349V7.99633C7.00085 8.12768 7.02717 8.25761 7.0775 8.37892C7.12675 8.50055 7.19985 8.61108 7.2925 8.704C7.5 8.92155 8.75 9.99679 12 9.99679C15.25 9.99679 16.5 8.92155 16.7075 8.704C16.8003 8.61104 16.8739 8.5007 16.9241 8.37927C16.9743 8.25785 17.0001 8.12773 17 7.99633V6.51349C20.165 7.21115 22 8.49645 22 9.49668C22 10.9595 18.195 12.9975 12 12.9975Z" fill="black"/>
</svg>
