<svg width="24" height="24" viewBox="0 0 24 24" fill="none" xmlns="http://www.w3.org/2000/svg">
<g clip-path="url(#clip0)">
<rect width="24" height="24" fill="#C0C0C0"/>
<path d="M0.75 23.9987C0.6015 23.9987 0.456 23.949 0.33 23.8513C0.1245 23.6919 0 23.4262 0 23.1417V4.2865C0 3.9351 0.1875 3.62142 0.471 3.49115L7.971 0.0629393C8.1495 -0.0193378 8.349 -0.0193378 8.5275 0.0629393L15.75 3.36259L22.971 0.0612251C23.199 -0.0450494 23.463 -0.0107672 23.67 0.146931C23.877 0.308057 24 0.573743 24 0.858284V19.7134C24 20.0631 23.814 20.3802 23.529 20.5088L16.029 23.937C15.8505 24.021 15.651 24.021 15.4725 23.937L8.25 20.6356L1.029 23.937C0.939 23.9781 0.8445 23.9987 0.75 23.9987ZM8.25 18.8564C8.3445 18.8564 8.439 18.877 8.529 18.9181L15.75 22.2195L22.5 19.1324V2.12329L16.029 5.08184C15.8505 5.16412 15.651 5.16412 15.4725 5.08184L8.25 1.78219L1.5 4.86586V21.8749L7.971 18.9164C8.061 18.877 8.1555 18.8564 8.25 18.8564Z" fill="black"/>
<path d="M5.45517 11.4514H4.2C4.08954 11.4514 4 11.541 4 11.6514V12.897C4 13.0074 4.08954 13.097 4.2 13.097H5.45517C5.56563 13.097 5.65517 13.0074 5.65517 12.897V11.6514C5.65517 11.541 5.56563 11.4514 5.45517 11.4514Z" fill="black"/>
<path d="M8.6622 11.4514H7.40703C7.29657 11.4514 7.20703 11.541 7.20703 11.6514V12.897C7.20703 13.0074 7.29657 13.097 7.40703 13.097H8.6622C8.77266 13.097 8.8622 13.0074 8.8622 12.897V11.6514C8.8622 11.541 8.77266 11.4514 8.6622 11.4514Z" fill="black"/>
<path d="M2.1104 11.4514H0.0276367C-0.0828202 11.4514 -0.172363 11.541 -0.172363 11.6514V12.897C-0.172363 13.0074 -0.0828201 13.097 0.0276369 13.097H2.1104C2.22085 13.097 2.3104 13.0074 2.3104 12.897V11.6514C2.3104 11.541 2.22085 11.4514 2.1104 11.4514Z" fill="black"/>
<path d="M18.0552 9.3421C18.2598 9.13233 18.5388 9.00981 18.833 9.00055C19.0608 8.99345 19.2854 9.05469 19.4775 9.17624C19.6696 9.29779 19.8202 9.47398 19.9095 9.68175C19.9988 9.88952 20.0227 10.1192 19.9781 10.3406C19.9335 10.5621 19.8224 10.765 19.6594 10.9229L15.9163 14.6537C15.7973 14.777 15.6514 14.8718 15.4898 14.9308C15.3282 14.9899 15.1551 15.0115 14.9838 14.9942C14.8124 14.9769 14.6473 14.921 14.501 14.8309C14.3548 14.7408 14.2312 14.6188 14.1398 14.4742L12.3588 12.7883C12.1946 12.6362 12.0798 12.439 12.0291 12.2219C11.9784 12.0049 11.9942 11.7778 12.0743 11.5697C12.1545 11.3615 12.2954 11.1817 12.4791 11.0533C12.6627 10.9248 12.8809 10.8535 13.1057 10.8484C13.2566 10.845 13.4067 10.8715 13.5471 10.9264C13.6875 10.9813 13.8154 11.0635 13.9232 11.1681L15.1032 12.2847L18.0552 9.3421Z" fill="black"/>
</g>
<defs>
<clipPath id="clip0">
<rect width="24" height="24" fill="white"/>
</clipPath>
</defs>
</svg>
