<svg width="100" height="100" viewBox="0 0 100 100" fill="none" xmlns="http://www.w3.org/2000/svg">
<path fill-rule="evenodd" clip-rule="evenodd" d="M50 4.7619C25.0157 4.7619 4.7619 25.0157 4.7619 50C4.7619 74.9843 25.0157 95.2381 50 95.2381C74.9843 95.2381 95.2381 74.9843 95.2381 50C95.2381 25.0157 74.9843 4.7619 50 4.7619ZM0 50C0 22.3858 22.3858 0 50 0C77.6142 0 100 22.3858 100 50C100 77.6142 77.6142 100 50 100C22.3858 100 0 77.6142 0 50Z" fill="#2E2F5B"/>
<g clip-path="url(#clip0)">
<path fill-rule="evenodd" clip-rule="evenodd" d="M63.9464 46.8145C64.8076 47.5031 65.3236 48.537 65.3236 49.5689V70.2306C65.3236 72.1237 63.6011 73.8462 61.708 73.8462H38.2918C36.226 73.8462 34.6762 72.1237 34.6762 70.2306V49.5689C34.6762 48.535 35.1922 47.5031 36.0534 46.8145C38.9804 51.4641 44.1456 54.5636 49.9998 54.5636C55.854 54.5636 61.0191 51.4639 63.9462 46.8145H63.9464ZM31.0585 66.9604C26.7543 64.206 24 59.384 24 53.8751C24 47.3325 27.9609 41.6489 33.6424 39.2397C33.815 40.7896 33.9877 42.1667 34.5036 43.5439C30.7153 45.437 28.1336 49.3981 28.1336 53.8747C28.1336 56.8018 29.3381 59.5563 31.0606 61.6238V66.9621L31.0585 66.9604ZM68.7668 66.9604C73.071 64.206 75.9979 59.384 75.9979 53.8751C75.9979 47.3325 72.037 41.6489 66.3556 39.2397C66.1829 40.7896 65.8396 42.1667 65.4943 43.5439C69.2826 45.437 71.8643 49.3981 71.8643 53.8747C71.8643 56.8018 70.6598 59.5563 68.7647 61.6238V66.9621L68.7668 66.9604ZM49.9979 38.2059H38.117C38.117 44.7486 43.4553 50.0869 49.9979 50.0869C56.5406 50.0869 61.8789 44.7486 61.8789 38.2059H49.9979ZM35.5336 26.1523H36.7381V34.4177H35.5336C30.0226 34.4177 30.0226 26.1523 35.5336 26.1523V26.1523ZM40.3558 26.1523H59.4678V34.4177H40.3558V26.1523ZM63.256 26.1523H64.4606C69.9715 26.1523 69.9715 34.4177 64.4606 34.4177H63.256V26.1523Z" fill="#2E2F5B"/>
</g>
<defs>
<clipPath id="clip0">
<rect width="52" height="52" fill="white" transform="translate(24 24)"/>
</clipPath>
</defs>
</svg>
