<svg width="100" height="100" viewBox="0 0 100 100" fill="none" xmlns="http://www.w3.org/2000/svg">
<path fill-rule="evenodd" clip-rule="evenodd" d="M50 4.7619C25.0157 4.7619 4.7619 25.0157 4.7619 50C4.7619 74.9843 25.0157 95.2381 50 95.2381C74.9843 95.2381 95.2381 74.9843 95.2381 50C95.2381 25.0157 74.9843 4.7619 50 4.7619ZM0 50C0 22.3858 22.3858 0 50 0C77.6142 0 100 22.3858 100 50C100 77.6142 77.6142 100 50 100C22.3858 100 0 77.6142 0 50Z" fill="#2E2F5B"/>
<path d="M76.9093 35.1537C66.2421 19.4596 44.0656 17.4979 30.872 30.9499C17.3977 44.402 19.6434 66.2616 35.0827 76.9111C37.0477 78.3124 39.2934 78.3124 41.2585 77.1914C43.2235 76.0704 44.3463 73.5481 44.0656 71.3061C43.2235 64.0196 45.4692 56.4528 51.0835 51.128C56.4171 45.8032 63.7157 43.281 71.295 44.1217C73.5407 44.402 76.0672 43.281 77.19 41.3192C78.3129 39.3575 78.3129 36.8352 76.9093 35.1537ZM27.7841 49.4465C28.3456 44.9625 30.0298 40.4785 32.837 37.1155L45.1885 49.4465C45.1885 49.4465 45.1885 49.4465 44.9078 49.7268L27.7841 49.4465ZM36.767 32.9117C40.4163 30.1092 44.627 28.1474 49.1185 27.8672V45.2427C49.1185 45.2427 49.1185 45.2427 48.8378 45.523L36.767 32.9117ZM38.4513 72.1468C38.4513 72.1468 38.4513 72.4271 38.4513 72.1468C32.2756 68.5036 28.6263 62.0578 27.7841 55.0515H41.5392C38.732 60.096 37.6092 65.9813 38.4513 72.1468ZM55.0135 41.3192V27.5869C60.6278 28.1474 65.6807 30.6697 69.6107 34.5932C70.7336 35.7142 71.5757 36.8352 72.4179 38.2365C72.4179 38.5167 63.7157 37.1155 55.0135 41.3192Z" fill="#2E2F5B"/>
</svg>
