<svg width="100" height="100" viewBox="0 0 100 100" fill="none" xmlns="http://www.w3.org/2000/svg">
<path fill-rule="evenodd" clip-rule="evenodd" d="M50 4.7619C25.0157 4.7619 4.7619 25.0157 4.7619 50C4.7619 74.9843 25.0157 95.2381 50 95.2381C74.9843 95.2381 95.2381 74.9843 95.2381 50C95.2381 25.0157 74.9843 4.7619 50 4.7619ZM0 50C0 22.3858 22.3858 0 50 0C77.6142 0 100 22.3858 100 50C100 77.6142 77.6142 100 50 100C22.3858 100 0 77.6142 0 50Z" fill="#2E2F5B"/>
<path d="M55.9847 43.4486H52.559L53.7001 37.6749C54.0007 36.2172 52.0777 35.3649 51.2347 36.5804L44.2634 46.0008C43.6013 46.9124 44.2634 48.249 45.4045 48.249H48.8302L47.6891 54.0251C47.3885 55.4828 49.3115 56.3351 50.1545 55.1196L57.1282 45.6992C57.788 44.7258 57.1258 43.4486 55.9848 43.4486H55.9847Z" fill="#2E2F5B"/>
<path d="M65.4498 29.7308C61.2939 25.8135 55.6843 23.7487 49.9383 24.0245C44.1889 24.3002 38.8131 26.8918 35.0627 31.1875C31.3123 35.4867 29.5214 41.1154 30.11 46.7542C30.6986 52.3934 33.6128 57.5447 38.1707 61.0022C40.0692 62.5154 41.1638 64.8028 41.1387 67.2106V74.37C41.1387 74.8509 41.3325 75.3105 41.677 75.6499C42.0216 75.9893 42.4881 76.1803 42.9763 76.1803H59.1088C59.5969 76.1803 60.0635 75.9893 60.408 75.6499C60.7526 75.3105 60.9464 74.8509 60.9464 74.37V67.2106C60.9176 64.81 62.0015 62.5295 63.8964 61.0199C68.7235 57.3253 71.6735 51.7427 71.9751 45.7256C72.273 39.7117 69.8893 33.8707 65.4498 29.7308ZM44.796 72.5598V69.0207H57.271V72.5598H44.796ZM61.6351 58.1598C59.3561 59.9629 57.8524 62.551 57.4289 65.4006H44.6021C44.175 62.5474 42.6676 59.9629 40.3851 58.1598C36.1035 54.9071 33.6308 49.8549 33.7134 44.53C33.7672 40.2061 35.4827 36.0589 38.5154 32.9367C41.5516 29.8113 45.6753 27.9375 50.0605 27.6935C54.9989 27.4106 59.826 29.2314 63.3146 32.6926C66.7994 36.1504 68.6154 40.9198 68.2924 45.7848C67.973 50.6497 65.5469 55.1471 61.635 58.1312L61.6351 58.1598Z" fill="#2E2F5B" stroke="#2E2F5B"/>
</svg>
