<svg width="100" height="100" viewBox="0 0 100 100" fill="none" xmlns="http://www.w3.org/2000/svg">
<path fill-rule="evenodd" clip-rule="evenodd" d="M50 4.7619C25.0157 4.7619 4.7619 25.0157 4.7619 50C4.7619 74.9843 25.0157 95.2381 50 95.2381C74.9843 95.2381 95.2381 74.9843 95.2381 50C95.2381 25.0157 74.9843 4.7619 50 4.7619ZM0 50C0 22.3858 22.3858 0 50 0C77.6142 0 100 22.3858 100 50C100 77.6142 77.6142 100 50 100C22.3858 100 0 77.6142 0 50Z" fill="#2E2F5B"/>
<path d="M80 53.1111C80 49.0667 77.3 45.6444 74 44.4C72.8 31.9556 62.9 22 50 22C37.7 22 27.5 31.6444 26 44.4C22.4 45.6444 20 49.3778 20 53.1111C20 57.1556 22.4 60.5778 26 61.8222V68.6667C26 73.9556 29.9 78 35 78H65C70.1 78 74 73.9556 74 68.6667V61.8222C77.9 60.5778 80 56.8444 80 53.1111ZM50 28.2222C59.3 28.2222 66.5 35.0667 67.7 43.7778H32.3C33.8 35.0667 41 28.2222 50 28.2222ZM68 68.6667C68 70.5333 66.8 71.7778 65 71.7778H35C33.2 71.7778 32 70.5333 32 68.6667V62.4444H68V68.6667ZM71 56.2222H29C27.2 56.2222 26 54.9778 26 53.1111C26 51.5556 27.2 50 29 50H71C72.8 50 74 51.2444 74 53.1111C74 54.9778 72.5 56.2222 71 56.2222Z" fill="#2E2F5B"/>
</svg>
