<svg width="100" height="100" viewBox="0 0 100 100" fill="none" xmlns="http://www.w3.org/2000/svg">
<path fill-rule="evenodd" clip-rule="evenodd" d="M50 4.7619C25.0157 4.7619 4.7619 25.0157 4.7619 50C4.7619 74.9843 25.0157 95.2381 50 95.2381C74.9843 95.2381 95.2381 74.9843 95.2381 50C95.2381 25.0157 74.9843 4.7619 50 4.7619ZM0 50C0 22.3858 22.3858 0 50 0C77.6142 0 100 22.3858 100 50C100 77.6142 77.6142 100 50 100C22.3858 100 0 77.6142 0 50Z" fill="#2E2F5B"/>
<path d="M50.8852 42.2148C50.8448 40.4436 49.7389 38.9152 48.0868 38.2926C46.4954 37.6901 44.5466 38.2139 43.4677 39.5243C42.3326 40.8999 42.119 42.8622 43.0406 44.4131C43.9622 45.9596 45.7559 46.7171 47.5091 46.3956C49.4467 46.036 50.8403 44.2557 50.8852 42.3227V42.3182V42.2733V42.2621V42.2148H50.8852Z" fill="#2E2F5B"/>
<path d="M75.147 35.5245V35.0637C75.12 33.4341 73.8927 32.1461 72.2969 32.0112C72.2339 32.0067 72.1688 32 72.1058 32L29.2709 32.0022H28.9675C27.3042 32.0877 26.0274 33.4071 26.005 35.0772C26.0005 35.6166 26.005 36.1561 26.005 36.6956V64.5338C26.005 65.0576 25.9938 65.5723 26.005 66.096C26.032 67.7863 27.3537 69.1192 29.0439 69.1574H29.2957H71.2202C71.6428 69.1574 72.0564 69.1754 72.4745 69.1169C74.0142 68.9101 75.1268 67.6222 75.138 66.0712V65.5205L75.1425 35.5244L75.147 35.5245ZM71.7754 35.8504V49.9211C70.5211 48.3522 69.2691 46.7923 68.0149 45.2234C66.8011 43.7061 65.621 42.1439 64.3623 40.6604C64.3398 40.638 64.3218 40.611 64.3061 40.5885C64.0364 40.2513 63.3845 40.2693 63.1148 40.5885C61.3346 42.6744 59.5589 44.7648 57.7832 46.8485C54.2498 51.0024 50.721 55.1472 47.1966 59.3052C47.0797 59.4446 46.9538 59.5862 46.837 59.7278C46.1739 58.8961 45.5108 58.069 44.8477 57.2373C43.4878 55.5403 42.1324 53.8433 40.7748 52.1462C40.4602 51.7528 40.1454 51.3639 39.8353 50.9728C39.5656 50.6357 38.9137 50.6537 38.644 50.9728C37.183 52.6856 35.7264 54.3939 34.2654 56.1089C32.9504 57.6554 31.6356 59.1996 30.3206 60.7505C30.0059 61.1214 29.6867 61.4968 29.3721 61.8676L29.3743 38.8283C29.3743 37.6708 29.3631 36.5177 29.3743 35.3624C29.6396 35.3624 29.9025 35.3736 30.161 35.3736H70.3461C70.8226 35.3736 71.3014 35.3781 71.7802 35.3736C71.7757 35.5309 71.7757 35.6883 71.7757 35.8501L71.7754 35.8504Z" fill="#2E2F5B"/>
</svg>
