<svg width="100" height="100" viewBox="0 0 100 100" fill="none" xmlns="http://www.w3.org/2000/svg">
<path fill-rule="evenodd" clip-rule="evenodd" d="M50 4.7619C25.0157 4.7619 4.7619 25.0157 4.7619 50C4.7619 74.9843 25.0157 95.2381 50 95.2381C74.9843 95.2381 95.2381 74.9843 95.2381 50C95.2381 25.0157 74.9843 4.7619 50 4.7619ZM0 50C0 22.3858 22.3858 0 50 0C77.6142 0 100 22.3858 100 50C100 77.6142 77.6142 100 50 100C22.3858 100 0 77.6142 0 50Z" fill="#2E2F5B"/>
<path d="M39.4303 25.4109C40.2124 24.6307 40.2124 23.3668 39.4303 22.5866C38.6501 21.8045 37.3861 21.8045 36.6059 22.5866L36.0208 23.1698C34.7412 24.4494 34.0234 26.1834 34.0234 27.9935C34.0234 29.8036 34.7412 31.5376 36.0208 32.8172L36.6059 33.4023V33.4004C37.3861 34.1825 38.6501 34.1825 39.4303 33.4004C40.2124 32.6202 40.2124 31.3562 39.4303 30.576L38.847 29.9909C38.3165 29.4623 38.0181 28.7425 38.0181 27.9935C38.0181 27.2445 38.3165 26.5248 38.847 25.9962L39.4303 25.4109Z" fill="#2E2F5B"/>
<path d="M49.4171 25.4109C50.1992 24.6307 50.1992 23.3668 49.4171 22.5866C48.6369 21.8045 47.3729 21.8045 46.5928 22.5866L46.0076 23.1698C44.728 24.4494 44.0103 26.1834 44.0103 27.9935C44.0103 29.8036 44.728 31.5376 46.0076 32.8172L46.5928 33.4023V33.4004C47.373 34.1825 48.6369 34.1825 49.4171 33.4004C50.1992 32.6202 50.1992 31.3562 49.4171 30.576L48.8339 29.9909C48.3033 29.4623 48.0049 28.7425 48.0049 27.9935C48.0049 27.2445 48.3033 26.5248 48.8339 25.9962L49.4171 25.4109Z" fill="#2E2F5B"/>
<path d="M59.4038 25.4109C60.1859 24.6307 60.1859 23.3668 59.4038 22.5866C58.6236 21.8045 57.3596 21.8045 56.5794 22.5866L55.9943 23.1698C54.7147 24.4494 53.9969 26.1834 53.9969 27.9935C53.9969 29.8036 54.7147 31.5376 55.9943 32.8172L56.5794 33.4023V33.4004C57.3597 34.1825 58.6236 34.1825 59.4038 33.4004C60.1859 32.6202 60.1859 31.3562 59.4038 30.576L58.8206 29.9909C58.29 29.4623 57.9916 28.7425 57.9916 27.9935C57.9916 27.2445 58.29 26.5248 58.8206 25.9962L59.4038 25.4109Z" fill="#2E2F5B"/>
<path d="M36.6887 74H59.8991C61.1488 74 62.3465 73.5098 63.231 72.6403C64.1136 71.7692 64.6095 70.5894 64.6095 69.3585V66.0714H69.7337C73.1962 66.0573 75.9945 63.2921 76 59.8833V52.1169C75.9982 48.7063 73.1981 45.9392 69.7337 45.9234H64.6095V42.6415C64.6095 41.4106 64.1136 40.2308 63.231 39.3596C62.3465 38.4902 61.1488 38 59.8991 38H36.6887C34.0945 38.0123 32 40.088 32 42.6414V69.3585C32 71.9121 34.0947 73.9878 36.6887 74V74ZM64.6094 51.355H69.7336C70.1579 51.3621 70.498 51.7006 70.4998 52.1168V59.8832C70.4998 60.3065 70.1507 60.6503 69.721 60.6503H64.6097L64.6094 51.355ZM42.7204 56.9029L48.0737 46.8264C48.2545 46.4596 48.6824 46.2798 49.0763 46.4067C49.4702 46.5319 49.7101 46.9252 49.6367 47.3273L48.6377 53.2915L52.913 53.4855H53.0419C53.3893 53.5437 53.6901 53.7588 53.853 54.0674C54.0123 54.3796 54.0123 54.7464 53.853 55.0568L48.4997 65.1739C48.3188 65.5389 47.8927 65.717 47.5006 65.5918C47.1085 65.4648 46.8722 65.0716 46.9456 64.673L47.9536 58.7088L43.6782 58.5149H43.5493C43.202 58.4567 42.903 58.2433 42.7383 57.9364C42.5575 57.6173 42.5503 57.2293 42.7204 56.903L42.7204 56.9029Z" fill="#2E2F5B"/>
</svg>
