<svg width="100" height="100" viewBox="0 0 100 100" fill="none" xmlns="http://www.w3.org/2000/svg">
<path fill-rule="evenodd" clip-rule="evenodd" d="M50 4.7619C25.0157 4.7619 4.7619 25.0157 4.7619 50C4.7619 74.9843 25.0157 95.2381 50 95.2381C74.9843 95.2381 95.2381 74.9843 95.2381 50C95.2381 25.0157 74.9843 4.7619 50 4.7619ZM0 50C0 22.3858 22.3858 0 50 0C77.6142 0 100 22.3858 100 50C100 77.6142 77.6142 100 50 100C22.3858 100 0 77.6142 0 50Z" fill="#2E2F5B"/>
<path d="M75.7168 42.2576L70.5215 31.5988C70.002 30.5329 69.2227 30 68.1836 30H31.8164C30.7773 30 29.998 30.5329 29.4785 31.5988L24.2832 42.2576C23.7637 43.057 24.0234 44.3893 24.543 44.9223L47.9219 76.8986C48.9609 78.2309 51.0391 78.4974 52.0781 76.8986L75.457 44.9223C75.9766 44.1229 76.2363 43.057 75.7168 42.2576ZM69.2227 40.6588H60.3906V35.3294H66.625L69.2227 40.6588ZM45.584 45.9881H54.416L50 64.3745L45.584 45.9881ZM44.8047 40.6588V35.3294H55.1953V40.6588H44.8047ZM33.375 35.3294H39.6094V40.6588H30.7773L33.375 35.3294ZM40.1289 45.9881L44.2852 63.0422L31.8164 45.9881H40.1289ZM55.7148 63.0422L59.8711 45.9881H68.1836L55.7148 63.0422Z" fill="#2E2F5B"/>
</svg>
