<svg width="100" height="100" viewBox="0 0 100 100" fill="none" xmlns="http://www.w3.org/2000/svg">
<path fill-rule="evenodd" clip-rule="evenodd" d="M50 4.7619C25.0157 4.7619 4.7619 25.0157 4.7619 50C4.7619 74.9843 25.0157 95.2381 50 95.2381C74.9843 95.2381 95.2381 74.9843 95.2381 50C95.2381 25.0157 74.9843 4.7619 50 4.7619ZM0 50C0 22.3858 22.3858 0 50 0C77.6142 0 100 22.3858 100 50C100 77.6142 77.6142 100 50 100C22.3858 100 0 77.6142 0 50Z" fill="#2E2F5B"/>
<path d="M62.7153 38.4637L61.9898 37.8832C61.1197 37.1584 59.7393 37.4472 59.232 38.4637C59.0138 38.9706 58.7955 44.0447 58.7955 44.914V45.4208C58.7955 46.1457 58.1436 46.7262 57.4181 46.5818C56.8371 46.5082 56.4034 45.9305 56.4034 45.3501C56.3298 36.6515 53.7194 30.564 48.7849 25.9965C45.8089 23.2414 42.2547 20.778 41.1664 22.6609C40.8773 23.1678 41.3109 24.2551 41.8183 25.6341C42.8329 28.7516 39.7153 33.752 35.2881 38.7558C31.1529 43.4676 26 49.2666 26 57.8912C26 69.4893 36.9576 80 49 80C61.046 80 72 69.4893 72 57.8912C72.0028 50.5685 68.5195 43.3197 62.7148 38.4637L62.7153 38.4637ZM49.0034 75.795C43.7799 75.795 39.4969 71.5193 39.4969 66.2976C39.4969 63.6869 40.5116 61.3678 42.2547 59.6293L47.4783 53.3942C48.2776 52.4513 49.7995 52.4513 50.5988 53.3942L55.8224 59.6293C57.4918 61.3678 58.5801 63.6898 58.5801 66.2976C58.5093 71.519 54.2267 75.795 49.0033 75.795H49.0034Z" fill="#2E2F5B"/>
</svg>
