<svg width="100" height="100" viewBox="0 0 100 100" fill="none" xmlns="http://www.w3.org/2000/svg">
<path fill-rule="evenodd" clip-rule="evenodd" d="M50 4.7619C25.0157 4.7619 4.7619 25.0157 4.7619 50C4.7619 74.9843 25.0157 95.2381 50 95.2381C74.9843 95.2381 95.2381 74.9843 95.2381 50C95.2381 25.0157 74.9843 4.7619 50 4.7619ZM0 50C0 22.3858 22.3858 0 50 0C77.6142 0 100 22.3858 100 50C100 77.6142 77.6142 100 50 100C22.3858 100 0 77.6142 0 50Z" fill="#2E2F5B"/>
<path d="M36 23.2727C36 22.5698 36.5946 22 37.328 22H42.6402C43.3736 22 43.9682 22.5698 43.9682 23.2727V76.7273C43.9682 77.4302 43.3736 78 42.6402 78H37.328C36.5946 78 36 77.4302 36 76.7273V23.2727Z" fill="#2E2F5B"/>
<path d="M41.3121 29.0801V55.6472C41.3121 56.576 42.3167 57.192 43.1967 56.8028L73.2285 43.5192C74.2572 43.0642 74.2572 41.6631 73.2285 41.2081L43.1967 27.9245C42.3167 27.5353 41.3121 28.1512 41.3121 29.0801Z" fill="#2E2F5B"/>
</svg>
