<svg width="100" height="100" viewBox="0 0 100 100" fill="none" xmlns="http://www.w3.org/2000/svg">
<path fill-rule="evenodd" clip-rule="evenodd" d="M50 4.7619C25.0157 4.7619 4.7619 25.0157 4.7619 50C4.7619 74.9843 25.0157 95.2381 50 95.2381C74.9843 95.2381 95.2381 74.9843 95.2381 50C95.2381 25.0157 74.9843 4.7619 50 4.7619ZM0 50C0 22.3858 22.3858 0 50 0C77.6142 0 100 22.3858 100 50C100 77.6142 77.6142 100 50 100C22.3858 100 0 77.6142 0 50Z" fill="#2E2F5B"/>
<path d="M59.0592 25.7159C59.0592 25.7159 59.0592 24 57.4183 24C55.7712 24 55.7712 25.7159 55.7712 25.7159L54.83 42.2011H50.5823L49.6411 25.7159C49.6411 25.7159 49.6411 24 48.0002 24C46.3593 24 46.3593 25.7159 46.3593 25.7159L45.4181 42.2011H41.1704L40.2292 25.7159C40.2292 25.7159 40.2292 24 38.5821 24C36.9412 24 36.9412 25.7159 36.9412 25.7159L36 42.2011V55.8912C36 58.4814 38.7987 61.5786 42.2415 61.5786H43.2508V76.4333C43.2508 78.4049 45.3809 80 48 80C50.6253 80 52.7492 78.4003 52.7492 76.4333V61.5786H53.7585C57.2075 61.5786 60 58.4767 60 55.8912V42.2011L59.0592 25.7159Z" fill="#2E2F5B"/>
</svg>
