<svg width="100" height="100" viewBox="0 0 100 100" fill="none" xmlns="http://www.w3.org/2000/svg">
<path fill-rule="evenodd" clip-rule="evenodd" d="M50 4.7619C25.0157 4.7619 4.7619 25.0157 4.7619 50C4.7619 74.9843 25.0157 95.2381 50 95.2381C74.9843 95.2381 95.2381 74.9843 95.2381 50C95.2381 25.0157 74.9843 4.7619 50 4.7619ZM0 50C0 22.3858 22.3858 0 50 0C77.6142 0 100 22.3858 100 50C100 77.6142 77.6142 100 50 100C22.3858 100 0 77.6142 0 50Z" fill="#2E2F5B"/>
<path d="M28.5449 70H69.9312C71.385 70.0006 72.7976 69.5321 73.9459 68.6686C75.0942 67.805 75.9129 66.5955 76.2727 65.2311C76.6325 63.8666 76.5128 62.425 75.9327 61.1338C75.3526 59.8425 74.345 58.7752 73.069 58.1004L51.5077 46.7065V43.3372C53.7298 42.7827 55.6527 41.4337 56.8896 39.5615C58.1265 37.6893 58.5857 35.4328 58.1747 33.2459C57.7748 31.08 56.5512 29.1379 54.7454 27.8031C52.9397 26.4682 50.683 25.8376 48.4207 26.0357C46.1585 26.2338 44.0551 27.2462 42.5257 28.8731C40.9964 30.4999 40.1521 32.6231 40.1597 34.8234C40.1597 35.4065 40.3988 35.9657 40.8244 36.378C41.25 36.7903 41.8273 37.0219 42.4293 37.0219C43.0312 37.0219 43.6085 36.7903 44.0341 36.378C44.4598 35.9657 44.6989 35.4065 44.6989 34.8234C44.6982 34.1766 44.8448 33.5377 45.1283 32.9522C45.4117 32.3666 45.825 31.8488 46.3387 31.4357C46.8524 31.0226 47.4538 30.7244 48.1001 30.5623C48.7465 30.4001 49.4217 30.3781 50.0779 30.4978C50.9736 30.6669 51.7969 31.0909 52.4428 31.7155C53.0886 32.3401 53.5275 33.137 53.7035 34.0044C53.828 34.6404 53.806 35.2951 53.639 35.9219C53.4721 36.5487 53.1644 37.132 52.7378 37.6302C52.3113 38.1285 51.7764 38.5294 51.1714 38.8043C50.5665 39.0792 49.9063 39.2213 49.2381 39.2205C48.6362 39.2205 48.0589 39.4521 47.6332 39.8644C47.2076 40.2767 46.9685 40.8359 46.9685 41.419V46.7065L25.4072 58.1004C24.1312 58.7752 23.1236 59.8425 22.5435 61.1338C21.9634 62.425 21.8437 63.8666 22.2035 65.2311C22.5633 66.5955 23.382 67.805 24.5303 68.6686C25.6786 69.5321 27.0912 70.0006 28.5449 70V70ZM27.586 61.9588L49.2381 50.5209L70.8902 61.9588C71.2812 62.1651 71.5901 62.4918 71.7681 62.8871C71.9461 63.2825 71.983 63.724 71.873 64.142C71.763 64.5599 71.5124 64.9304 71.1608 65.195C70.8091 65.4596 70.3765 65.6031 69.9312 65.6029H28.5449C28.0997 65.6031 27.6671 65.4596 27.3154 65.195C26.9638 64.9304 26.7132 64.5599 26.6032 64.142C26.4932 63.724 26.5301 63.2825 26.7081 62.8871C26.8861 62.4918 27.195 62.1651 27.586 61.9588V61.9588Z" fill="#2E2F5B" stroke="#2E2F5B" stroke-width="0.5"/>
</svg>
