<svg width="100" height="100" viewBox="0 0 100 100" fill="none" xmlns="http://www.w3.org/2000/svg">
<path fill-rule="evenodd" clip-rule="evenodd" d="M50 4.7619C25.0157 4.7619 4.7619 25.0157 4.7619 50C4.7619 74.9843 25.0157 95.2381 50 95.2381C74.9843 95.2381 95.2381 74.9843 95.2381 50C95.2381 25.0157 74.9843 4.7619 50 4.7619ZM0 50C0 22.3858 22.3858 0 50 0C77.6142 0 100 22.3858 100 50C100 77.6142 77.6142 100 50 100C22.3858 100 0 77.6142 0 50Z" fill="#2E2F5B"/>
<path d="M75.1846 34.9846C68.4292 28.1923 58.0364 27.1473 50.2418 31.8497C50.5017 30.5435 50.7615 29.2373 51.8008 28.1923C52.5802 27.1473 52.5802 25.3186 51.2811 24.5349C50.2418 23.7511 48.4231 23.7511 47.6436 25.0574C45.3053 27.931 44.7856 31.8497 45.0454 34.7234C43.7463 34.4621 42.1874 34.2009 40.8883 34.2009C30.7553 34.2009 24 40.4708 24 49.8756C24 58.7579 30.4955 76 40.8883 76C42.1874 76 43.4865 75.7388 44.5258 75.4775C47.124 74.6938 49.982 74.6938 52.5802 75.4775C53.8793 76 55.1784 76 56.4775 76C66.8703 76 73.3658 58.7579 73.3658 49.8756C73.3658 46.7406 72.5864 44.1282 71.2873 41.777C72.8462 40.9933 74.1453 39.9483 75.4444 38.6421C76.2238 37.5971 76.2239 36.0296 75.1846 34.9846ZM69.4685 36.8133C64.2721 40.2095 57.5168 40.4708 52.0606 36.8133C57.257 33.1559 64.2721 33.1559 69.4685 36.8133ZM56.4775 70.7751C55.6981 70.7751 54.9186 70.7751 54.1391 70.5139C50.5017 69.4689 46.6044 69.4689 42.9669 70.5139C42.1874 70.7751 41.6678 70.7751 40.8883 70.7751C35.1723 70.7751 29.1964 58.2354 29.1964 49.8756C29.1964 42.0382 35.9517 38.6421 43.2267 39.687C40.6285 42.2995 39.5892 45.6957 39.5892 49.8756C39.5892 51.443 40.6285 52.488 42.1874 52.488C43.7463 52.488 44.7856 51.443 44.7856 49.8756C44.7856 45.9569 46.3445 43.0832 49.2026 41.2545C54.1391 44.6507 60.6346 45.6957 66.3507 43.8669C67.39 45.4344 68.1694 47.5244 68.1694 49.8756C68.1694 58.2354 61.9337 70.7751 56.4775 70.7751Z" fill="#2E2F5B"/>
</svg>
