<svg width="100" height="100" viewBox="0 0 100 100" fill="none" xmlns="http://www.w3.org/2000/svg">
<path fill-rule="evenodd" clip-rule="evenodd" d="M50 4.7619C25.0157 4.7619 4.7619 25.0157 4.7619 50C4.7619 74.9843 25.0157 95.2381 50 95.2381C74.9843 95.2381 95.2381 74.9843 95.2381 50C95.2381 25.0157 74.9843 4.7619 50 4.7619ZM0 50C0 22.3858 22.3858 0 50 0C77.6142 0 100 22.3858 100 50C100 77.6142 77.6142 100 50 100C22.3858 100 0 77.6142 0 50Z" fill="#2E2F5B"/>
<path d="M70.2534 33.9075C65.258 28.6975 57.1588 28.6975 52.1633 33.9075L50.7218 35.4109C50.3281 35.8215 49.6718 35.8215 49.2782 35.411L47.8367 33.9076C42.8412 28.6976 34.742 28.6976 29.7466 33.9076C24.7511 39.1176 24.7511 47.5646 29.7466 52.7746L49.1805 73.24C49.5735 73.6539 50.2325 73.6555 50.6275 73.2435L70.2534 52.7745C75.2489 47.5645 75.2489 39.1175 70.2534 33.9075Z" fill="#2E2F5B"/>
</svg>
