<svg width="100" height="100" viewBox="0 0 100 100" fill="none" xmlns="http://www.w3.org/2000/svg">
<path fill-rule="evenodd" clip-rule="evenodd" d="M50 4.7619C25.0157 4.7619 4.7619 25.0157 4.7619 50C4.7619 74.9843 25.0157 95.2381 50 95.2381C74.9843 95.2381 95.2381 74.9843 95.2381 50C95.2381 25.0157 74.9843 4.7619 50 4.7619ZM0 50C0 22.3858 22.3858 0 50 0C77.6142 0 100 22.3858 100 50C100 77.6142 77.6142 100 50 100C22.3858 100 0 77.6142 0 50Z" fill="#2E2F5B"/>
<path d="M55.4457 67.9998H65.5856C66.1023 67.9998 66.5482 67.8099 66.9273 67.4343C67.3044 67.0565 67.4919 66.6078 67.4919 66.0924V52.2016C67.4919 51.9658 67.3461 51.6507 67.1648 51.5004L50.6706 37.7309C50.4893 37.5806 50.1935 37.5806 50.0122 37.7309C50.0122 37.7309 35.87 49.4472 33.5329 51.409C33.3516 51.5614 33.2058 51.8786 33.2058 52.1123C33.1975 54.5019 33.1933 66.0907 33.1933 66.0907C33.1933 66.6083 33.3829 67.0549 33.76 67.4326C34.1371 67.8104 34.585 67.9982 35.0996 67.9982H45.2396C45.475 67.9982 45.6667 67.8083 45.6667 67.5704V59.9486C45.6667 57.5861 47.5771 55.6724 49.9355 55.6724H50.7543C53.1106 55.6724 55.0231 57.5882 55.0231 59.9486V67.5725C55.019 67.8083 55.2106 68.0003 55.4461 68.0003L55.4457 67.9998Z" fill="#2E2F5B"/>
<path d="M74.0109 46.6362L67.4897 41.2081V29.0414C67.4897 28.7638 67.4001 28.5342 67.221 28.3547C67.0418 28.1753 66.8147 28.0855 66.5355 28.0855L60.8207 28.0876C60.5436 28.0876 60.3144 28.1774 60.1353 28.3568C59.9561 28.5363 59.8665 28.7638 59.8665 29.0435V34.86L52.6018 28.7763C51.9664 28.2588 51.2122 28 50.3392 28C49.4663 28 48.7121 28.2588 48.0767 28.7763L26.6719 46.6367C26.474 46.7953 26.3636 47.0082 26.3448 47.2774C26.324 47.5466 26.3948 47.7803 26.5531 47.9807L28.399 50.1866C28.5573 50.3661 28.7657 50.4746 29.024 50.5142C29.2615 50.533 29.5011 50.4641 29.7386 50.3055L50.3434 33.0965L70.9438 50.3055C71.1022 50.4454 71.3105 50.5142 71.5689 50.5142H71.6585C71.9168 50.4746 72.1251 50.3661 72.2835 50.1866L74.1293 47.9807C74.2877 47.7824 74.3585 47.5487 74.3377 47.2795C74.3189 47.0102 74.2106 46.7974 74.0106 46.6367L74.0109 46.6362Z" fill="#2E2F5B"/>
</svg>
