<svg width="100" height="100" viewBox="0 0 100 100" fill="none" xmlns="http://www.w3.org/2000/svg">
<path fill-rule="evenodd" clip-rule="evenodd" d="M50 4.7619C25.0157 4.7619 4.7619 25.0157 4.7619 50C4.7619 74.9843 25.0157 95.2381 50 95.2381C74.9843 95.2381 95.2381 74.9843 95.2381 50C95.2381 25.0157 74.9843 4.7619 50 4.7619ZM0 50C0 22.3858 22.3858 0 50 0C77.6142 0 100 22.3858 100 50C100 77.6142 77.6142 100 50 100C22.3858 100 0 77.6142 0 50Z" fill="#2E2F5B"/>
<path d="M64.285 57.6258C62.9474 58.1721 60.7352 58.773 58.3687 59.3193C57.4941 60.7942 55.9507 62.0507 53.4812 62.5423C52.9153 62.6516 52.2465 62.7062 51.5777 62.7608C49.88 62.8155 47.8735 62.6516 45.6613 62.4331C45.507 62.4331 45.3527 62.4331 45.1983 62.3784C44.6839 62.3238 44.1694 61.8868 44.1694 61.3405C44.1179 60.6304 44.6839 60.0295 45.3527 60.0841C45.507 60.0841 45.7128 60.1387 45.8671 60.1387C48.7481 60.4118 51.4234 60.6304 53.1211 60.3026C56.2594 59.7017 57.1854 57.6258 56.9796 55.9324C56.8253 54.5121 55.8478 53.201 54.3044 53.3103C52.0922 53.4741 49.4684 53.3103 46.9475 53.0917C44.015 52.8186 41.0311 52.764 38.8704 52.9825C36.5038 53.2556 31.7193 55.113 27.5007 58.1721C25.4428 59.6471 23.1277 61.4498 21.7386 62.5423C21.0184 63.0886 20.9155 64.1265 21.4299 64.8913L27.5521 73.3586C28.0666 74.0688 29.0441 74.2326 29.7643 73.6317L32.028 71.7744C32.5424 71.3374 33.2627 71.2281 33.9315 71.392C38.0472 72.7577 42.4716 73.6864 45.3527 73.8502C51.6292 74.2326 63.7191 66.3116 67.1661 63.7988C70.6644 61.2313 68.1436 56.0963 64.285 57.6258Z" fill="#2E2F5B"/>
<path d="M50.1367 48.9407C47.873 46.4278 44.6833 41.9484 44.6833 36.6495C44.6833 35.3384 44.8891 34.082 45.1978 32.8802C42.574 31.8969 39.8473 31.733 38.2525 31.7876C37.4808 31.7876 36.812 32.4431 36.812 33.3172C36.7605 35.9393 37.1206 41.6206 40.4132 45.1714C43.1399 48.0666 47.3585 48.7768 50.1367 48.9407Z" fill="#2E2F5B"/>
<path d="M56.6708 48.9401C59.4489 48.7762 63.6675 48.0661 66.3942 45.1162C69.6868 41.5654 70.0469 35.8841 69.9955 33.262C69.9955 32.388 69.3781 31.7324 68.555 31.7324C66.9601 31.7324 64.2334 31.8417 61.6097 32.825C61.9183 34.0268 62.1241 35.2832 62.1241 36.5943C62.1241 42.0024 58.9344 46.4819 56.6708 48.9401Z" fill="#2E2F5B"/>
<path d="M54.4069 47.7379C56.2075 45.8806 59.7573 41.6196 59.7573 36.6485C59.7573 31.6774 56.2075 27.4164 54.4069 25.5591C53.8409 24.9582 52.9664 24.9582 52.349 25.5591C50.5484 27.4164 46.9985 31.6774 46.9985 36.6485C46.9985 41.6196 50.5484 45.8806 52.349 47.7379C52.9664 48.2842 53.8409 48.2842 54.4069 47.7379Z" fill="#2E2F5B"/>
</svg>
