<svg width="100" height="100" viewBox="0 0 100 100" fill="none" xmlns="http://www.w3.org/2000/svg">
<path fill-rule="evenodd" clip-rule="evenodd" d="M50 4.7619C25.0157 4.7619 4.7619 25.0157 4.7619 50C4.7619 74.9843 25.0157 95.2381 50 95.2381C74.9843 95.2381 95.2381 74.9843 95.2381 50C95.2381 25.0157 74.9843 4.7619 50 4.7619ZM0 50C0 22.3858 22.3858 0 50 0C77.6142 0 100 22.3858 100 50C100 77.6142 77.6142 100 50 100C22.3858 100 0 77.6142 0 50Z" fill="#2E2F5B"/>
<path d="M50.0023 38.5776C54.086 38.5776 57.3965 35.2671 57.3965 31.1833C57.3965 27.0996 54.086 23.7891 50.0023 23.7891C45.9185 23.7891 42.608 27.0996 42.608 31.1833C42.608 35.2671 45.9185 38.5776 50.0023 38.5776Z" fill="#2E2F5B"/>
<path d="M73.8407 49.1722C73.2888 47.4616 71.4679 46.4683 69.7021 47.0202C66.5567 48.0134 63.0803 48.1238 62.4733 47.5168C62.1974 47.2409 61.8663 46.6891 61.4801 46.1373C60.2109 44.1507 58.114 40.7295 53.3132 40.7295H46.6363C41.8355 40.7295 39.7386 44.0955 38.4695 46.1373C38.1384 46.6891 37.7521 47.2409 37.5314 47.5168C36.8692 48.1238 33.3928 48.0134 30.3026 47.0202C28.592 46.4683 26.7159 47.4064 26.1641 49.1722C25.6122 50.8828 26.5503 52.759 28.3161 53.3108C29.2542 53.5867 32.234 54.4696 35.4345 54.4696C37.9728 54.4696 40.6215 53.9178 42.3873 52.0416C42.8288 51.6002 43.1599 51.1036 43.491 50.6621L43.7669 63.9056C41.5596 63.9056 39.0765 63.9056 36.4278 63.9608C32.4547 64.0712 31.8477 66.7199 31.7374 67.5476C31.2407 71.631 34.9931 72.6794 45.1464 75.4937C46.8018 75.9351 48.4573 76.211 50.1679 76.211C51.8785 76.211 53.534 75.9903 55.1894 75.4937C65.2876 72.6794 69.0951 71.631 68.5984 67.5476C68.4881 66.7199 67.8811 64.0712 63.908 63.9608C61.6456 63.9056 59.4935 63.9056 57.507 63.9056L56.9552 50.8828C57.2311 51.2691 57.5622 51.6554 57.8933 52.0416C61.8663 56.2354 70.2539 53.8074 71.9093 53.3108C73.4544 52.759 74.3925 50.938 73.8407 49.1722Z" fill="#2E2F5B"/>
</svg>
