<svg width="100" height="100" viewBox="0 0 100 100" fill="none" xmlns="http://www.w3.org/2000/svg">
<path fill-rule="evenodd" clip-rule="evenodd" d="M50 4.7619C25.0157 4.7619 4.7619 25.0157 4.7619 50C4.7619 74.9843 25.0157 95.2381 50 95.2381C74.9843 95.2381 95.2381 74.9843 95.2381 50C95.2381 25.0157 74.9843 4.7619 50 4.7619ZM0 50C0 22.3858 22.3858 0 50 0C77.6142 0 100 22.3858 100 50C100 77.6142 77.6142 100 50 100C22.3858 100 0 77.6142 0 50Z" fill="#2E2F5B"/>
<path d="M50 36.0001C46.9038 36.0001 43.9504 36.25 41.2354 36.6951C41.0756 36.7213 40.9128 36.6695 40.7983 36.555L31.121 26.8789C29.9492 25.707 28.049 25.707 26.879 26.8789C25.7072 28.0489 25.7072 29.9491 26.879 31.1209L33.676 37.9196C33.9346 38.1782 33.8363 38.6187 33.4962 38.7531C28.8868 40.5746 26 43.1443 26 45.9997C26 53.6472 29.1151 60.5994 33.8698 65.8637C33.9536 65.9564 34.0004 66.0767 34.0003 66.2016L33.9982 71.8043C33.9981 72.0348 34.1554 72.2357 34.3797 72.2888C39.0723 73.4001 44.3096 74 50 74C55.6887 74 60.9264 73.4001 65.6163 72.291C65.8405 72.238 65.9979 72.0373 65.998 71.8069L66.0001 66.2022C66.0002 66.0773 66.0473 65.9568 66.1311 65.8641C71.2275 60.2288 73.9982 53.1252 74 46.0021V45.9997C73.9958 40.4761 63.2522 36.0001 50 36.0001ZM30.0002 45.9997C30.0002 45.0863 32.4253 43.1557 37.1167 41.7297C37.2917 41.6765 37.4829 41.7248 37.6122 41.8541L46.8035 51.0449C47.1255 51.3669 46.8822 51.9122 46.4277 51.8824C35.6343 51.1761 30.0002 47.3951 30.0002 45.9997ZM63.0488 63.3068L62.1446 64.2109C62.0509 64.3047 61.9982 64.4319 61.9982 64.5645V68.4915C61.9982 68.7322 61.8269 68.9389 61.59 68.9815C58.0282 69.6217 54.1588 69.9746 50 69.9746C45.8395 69.9746 41.9684 69.6212 38.4064 68.9814C38.1695 68.9389 37.9982 68.7321 37.9982 68.4914V64.5624C37.9982 64.43 37.9456 64.3029 37.8521 64.2092L36.9536 63.3092C34.1915 60.2875 32.215 56.7904 31.093 53.0897C30.9657 52.6698 31.4158 52.3147 31.8105 52.5063C36.2086 54.6419 42.7165 55.9999 50 55.9999C57.2837 55.9999 63.7917 54.6418 68.1912 52.5057C68.586 52.314 69.0361 52.6692 68.9088 53.0891C67.7862 56.7927 65.8111 60.2892 63.0488 63.3068ZM56.1501 51.6374C55.9988 51.6554 55.8454 51.6028 55.7377 51.4951L45.2697 41.0286C44.972 40.7311 45.1529 40.2233 45.5723 40.1878C46.9586 40.0704 48.4286 40.0003 50 40.0003C63.1232 40.0003 69.9998 44.4583 69.9998 46.0003C69.9998 47.279 65.2521 50.5546 56.1501 51.6374Z" fill="#2E2F5B"/>
</svg>
