<svg width="100" height="100" viewBox="0 0 100 100" fill="none" xmlns="http://www.w3.org/2000/svg">
<path fill-rule="evenodd" clip-rule="evenodd" d="M50 4.7619C25.0157 4.7619 4.7619 25.0157 4.7619 50C4.7619 74.9843 25.0157 95.2381 50 95.2381C74.9843 95.2381 95.2381 74.9843 95.2381 50C95.2381 25.0157 74.9843 4.7619 50 4.7619ZM0 50C0 22.3858 22.3858 0 50 0C77.6142 0 100 22.3858 100 50C100 77.6142 77.6142 100 50 100C22.3858 100 0 77.6142 0 50Z" fill="#2E2F5B"/>
<path d="M61.809 31.3279C64.6813 36.2719 67.8737 41.8559 70.4258 46.1628C62.2878 49.3542 57.5007 54.1396 53.0338 58.605C48.7254 62.912 45.0543 66.5818 38.1939 68.813C35.9589 64.9846 32.6079 59.0836 29.5771 53.9781C37.7152 50.7867 42.5022 46.0013 46.9691 41.5359C51.2775 37.229 54.9455 33.4006 61.809 31.3279V31.3279ZM64.9985 23.9912C41.7034 28.2981 43.2981 45.6843 20 49.9912L34.9985 75.9912C58.2966 71.6843 56.7019 54.2981 80 49.9912L64.9985 23.9912Z" fill="#2E2F5B"/>
<path d="M55.9988 46.63C58.9967 51.8192 58.8262 57.5233 55.6218 59.3747C52.4145 61.2231 47.3881 58.5193 44.3902 53.3301C41.3953 48.1409 41.5658 42.4368 44.7702 40.5854C47.9745 38.737 53.0039 41.4408 55.9987 46.63" fill="#2E2F5B"/>
</svg>
