<svg width="100" height="100" viewBox="0 0 100 100" fill="none" xmlns="http://www.w3.org/2000/svg">
<path fill-rule="evenodd" clip-rule="evenodd" d="M50 4.7619C25.0157 4.7619 4.7619 25.0157 4.7619 50C4.7619 74.9843 25.0157 95.2381 50 95.2381C74.9843 95.2381 95.2381 74.9843 95.2381 50C95.2381 25.0157 74.9843 4.7619 50 4.7619ZM0 50C0 22.3858 22.3858 0 50 0C77.6142 0 100 22.3858 100 50C100 77.6142 77.6142 100 50 100C22.3858 100 0 77.6142 0 50Z" fill="#2E2F5B"/>
<path d="M65 26H35C30.0283 26 26 30.0283 26 35V65C26 69.9717 30.0283 74 35 74H65C69.9717 74 74 69.9717 74 65V35C74 30.0283 69.9717 26 65 26ZM68 65C68 65.7969 67.6836 66.5586 67.1211 67.1211C66.5586 67.6836 65.7969 68 65 68H35C33.3418 68 32 66.6582 32 65V35C32 33.3418 33.3418 32 35 32H65C65.7969 32 66.5586 32.3164 67.1211 32.8789C67.6836 33.4414 68 34.2031 68 35V65Z" fill="#2E2F5B"/>
<path d="M50 41.0001C45.7519 41.0001 41.9255 43.5578 40.2995 47.4806C38.6735 51.4064 39.5729 55.9211 42.5759 58.9241C45.5788 61.927 50.0931 62.8264 54.0194 61.2005C57.9423 59.5745 60.4998 55.7484 60.4998 51.5C60.4998 48.7139 59.3924 46.0449 57.4236 44.0762C55.4549 42.1074 52.7859 41 49.9998 41L50 41.0001ZM50 56.0001C48.1806 56.0001 46.54 54.9045 45.8427 53.2228C45.1455 51.5412 45.5322 49.6047 46.8183 48.3185C48.1044 47.0324 50.041 46.6456 51.7227 47.3429C53.4043 48.0402 54.5 49.6808 54.5 51.5001C54.5 53.9845 52.4844 56.0001 50 56.0001Z" fill="#2E2F5B"/>
<path d="M41 38.0002C41 41.9992 35 41.9992 35 38.0002C35 34.0012 41 34.0012 41 38.0002Z" fill="#2E2F5B"/>
</svg>
