<svg width="100" height="100" viewBox="0 0 100 100" fill="none" xmlns="http://www.w3.org/2000/svg">
<path fill-rule="evenodd" clip-rule="evenodd" d="M50 4.7619C25.0157 4.7619 4.7619 25.0157 4.7619 50C4.7619 74.9843 25.0157 95.2381 50 95.2381C74.9843 95.2381 95.2381 74.9843 95.2381 50C95.2381 25.0157 74.9843 4.7619 50 4.7619ZM0 50C0 22.3858 22.3858 0 50 0C77.6142 0 100 22.3858 100 50C100 77.6142 77.6142 100 50 100C22.3858 100 0 77.6142 0 50Z" fill="#2E2F5B"/>
<path d="M50 49.9999C56.6274 49.9999 62 44.6273 62 38C62 31.3726 56.6274 26 50 26C43.3726 26 38 31.3726 38 38C38 44.6273 43.3726 49.9999 50 49.9999Z" fill="#2E2F5B"/>
<path d="M53.9999 53.0001V73C53.9999 73.5523 53.5522 74 52.9999 74H46.9999C46.4476 74 45.9999 73.5523 45.9999 73V53.0001C45.9999 52.4478 46.4476 52.0001 46.9999 52.0001H52.9999C53.5522 52.0001 53.9999 52.4478 53.9999 53.0001Z" fill="#2E2F5B"/>
</svg>
