<svg width="100" height="100" viewBox="0 0 100 100" fill="none" xmlns="http://www.w3.org/2000/svg">
<path fill-rule="evenodd" clip-rule="evenodd" d="M50 4.7619C25.0157 4.7619 4.7619 25.0157 4.7619 50C4.7619 74.9843 25.0157 95.2381 50 95.2381C74.9843 95.2381 95.2381 74.9843 95.2381 50C95.2381 25.0157 74.9843 4.7619 50 4.7619ZM0 50C0 22.3858 22.3858 0 50 0C77.6142 0 100 22.3858 100 50C100 77.6142 77.6142 100 50 100C22.3858 100 0 77.6142 0 50Z" fill="#2E2F5B"/>
<path d="M31.5948 73.913L77.7872 62.3577C78.4177 62.2056 78.9787 61.8459 79.38 61.3365C79.7813 60.8271 79.9997 60.1975 80 59.549C79.998 49.591 76.0412 40.0414 68.9997 33C61.9581 25.9587 52.4083 22.002 42.45 22C41.8058 22.0007 41.1802 22.2167 40.6727 22.6135C40.1652 23.0103 39.8048 23.5653 39.6487 24.1904L28.0931 70.3816C27.9668 70.8672 27.969 71.3773 28.0996 71.8618C28.2303 72.3462 28.4847 72.7884 28.838 73.1447C29.1913 73.501 29.6313 73.7592 30.1147 73.8939C30.598 74.0286 31.1081 74.0352 31.5948 73.913ZM45.7878 63.0506C45.5167 63.0506 45.2516 62.9702 45.0262 62.8195C44.8007 62.6689 44.625 62.4548 44.5213 62.2043C44.4175 61.9538 44.3904 61.6782 44.4433 61.4123C44.4962 61.1464 44.6267 60.9021 44.8184 60.7104C45.0102 60.5187 45.2544 60.3881 45.5204 60.3352C45.7863 60.2823 46.0619 60.3095 46.3124 60.4133C46.5629 60.517 46.777 60.6927 46.9276 60.9181C47.0783 61.1436 47.1587 61.4086 47.1587 61.6797C47.1587 62.0433 47.0142 62.392 46.7572 62.6491C46.5001 62.9061 46.1514 63.0506 45.7878 63.0506ZM44.4542 27.5131C52.2526 28.0039 59.6039 31.3231 65.1291 36.8482C70.6543 42.3732 73.9736 49.7244 74.4644 57.5225L71.7152 58.2079C71.2063 50.9665 68.0979 44.1527 62.9626 39.0216C57.8272 33.8905 51.0108 30.7877 43.7687 30.2846L44.4542 27.5131ZM53.9981 41.1619C53.9981 41.433 53.9177 41.6981 53.7671 41.9235C53.6165 42.1489 53.4024 42.3246 53.1519 42.4284C52.9014 42.5321 52.6257 42.5593 52.3598 42.5064C52.0939 42.4535 51.8496 42.3229 51.6579 42.1312C51.4662 41.9395 51.3356 41.6953 51.2827 41.4293C51.2298 41.1634 51.257 40.8878 51.3607 40.6373C51.4645 40.3868 51.6402 40.1727 51.8656 40.0221C52.0911 39.8715 52.3561 39.7911 52.6273 39.7911C52.8073 39.7911 52.9855 39.8265 53.1519 39.8954C53.3182 39.9643 53.4693 40.0653 53.5966 40.1926C53.7239 40.3199 53.8249 40.471 53.8938 40.6373C53.9627 40.8036 53.9981 40.9819 53.9981 41.1619ZM42.4128 35.7084C44.1928 35.7653 45.9615 36.0151 47.6876 36.4534C46.9697 37.205 46.4325 38.1104 46.1169 39.1007C45.8013 40.091 45.7156 41.1403 45.8662 42.1687C46.0169 43.1971 46.4 44.1777 46.9864 45.0359C47.5728 45.894 48.3471 46.6073 49.2505 47.1214C50.1539 47.6355 51.1625 47.937 52.1999 48.0029C53.2372 48.0688 54.2759 47.8974 55.2371 47.5017C56.1983 47.106 57.0566 46.4965 57.7469 45.7194C58.4372 44.9423 58.9413 44.0181 59.2209 43.017C63.586 47.435 66.1173 53.3412 66.3062 59.549L52.5006 63.0282C52.6829 62.0939 52.6681 61.1317 52.4572 60.2034C52.2463 59.2751 51.8439 58.401 51.2757 57.6372C50.7076 56.8733 49.9862 56.2364 49.1578 55.7673C48.3294 55.2983 47.4122 55.0073 46.4649 54.913C45.5176 54.8187 44.561 54.9233 43.6564 55.2199C42.7518 55.5166 41.9191 55.9988 41.2116 56.6358C40.5041 57.2727 39.9373 58.0503 39.5476 58.9189C39.1579 59.7874 38.9538 60.7278 38.9483 61.6797C38.9471 63.268 39.5004 64.8069 40.5129 66.0306L34.4483 67.5207L42.4128 35.7084Z" fill="#2E2F5B"/>
</svg>
