<svg width="100" height="100" viewBox="0 0 100 100" fill="none" xmlns="http://www.w3.org/2000/svg">
<path fill-rule="evenodd" clip-rule="evenodd" d="M50 4.7619C25.0157 4.7619 4.7619 25.0157 4.7619 50C4.7619 74.9843 25.0157 95.2381 50 95.2381C74.9843 95.2381 95.2381 74.9843 95.2381 50C95.2381 25.0157 74.9843 4.7619 50 4.7619ZM0 50C0 22.3858 22.3858 0 50 0C77.6142 0 100 22.3858 100 50C100 77.6142 77.6142 100 50 100C22.3858 100 0 77.6142 0 50Z" fill="#2E2F5B"/>
<path d="M33.4767 71.5554C33.5301 72.906 34.104 74.1837 35.0783 75.1207C36.0525 76.0578 37.3515 76.5815 38.7033 76.5823H59.6811C61.0366 76.5847 62.3394 76.0575 63.3118 75.1131C64.2842 74.1687 64.8492 72.8818 64.8864 71.5268C68.8266 69.5767 72.1427 66.5633 74.46 62.8273C76.7772 59.0912 78.0032 54.7814 77.9993 50.385V47.7753C77.9993 46.3872 77.4479 45.0559 76.4663 44.0744C75.4848 43.0929 74.1536 42.5415 72.7655 42.5415H64.6225L77.001 32.8013C77.2712 32.5887 77.4968 32.325 77.665 32.0253C77.8333 31.7255 77.9408 31.3955 77.9816 31.0542C78.0223 30.7129 77.9954 30.3669 77.9024 30.036C77.8094 29.705 77.6521 29.3957 77.4395 29.1255C77.227 28.8554 76.9633 28.6297 76.6635 28.4615C76.3638 28.2933 76.0338 28.1857 75.6925 28.145C75.3512 28.1043 75.0052 28.1312 74.6742 28.2242C74.3433 28.3172 74.0339 28.4744 73.7638 28.687L59.731 39.6893L67.1111 28.2235C67.4893 27.6392 67.6199 26.9285 67.4741 26.2478C67.3284 25.5672 66.9182 24.9723 66.3338 24.5941C65.7495 24.2159 65.0388 24.0853 64.3582 24.231C63.6775 24.3768 63.0827 24.787 62.7044 25.3713L51.6593 42.5415H25.6118C24.9238 42.5415 24.2427 42.6771 23.6072 42.9406C22.9718 43.204 22.3945 43.5902 21.9084 44.0769C21.4223 44.5637 21.0369 45.1415 20.7743 45.7773C20.5117 46.4131 20.3771 47.0945 20.378 47.7824V50.385C20.378 60.0824 26.6385 68.9242 33.4767 71.5554ZM25.6331 47.7753H72.7655V50.385C72.7677 54.0388 71.6781 57.6099 69.6364 60.6401C67.5947 63.6702 64.6941 66.0212 61.3069 67.3912L60.3371 67.7833C60.147 67.8708 59.9845 68.0088 59.8676 68.1823C59.7506 68.3559 59.6836 68.5583 59.674 68.7673V71.3414H38.7033V68.7673C38.6929 68.5585 38.6256 68.3564 38.5087 68.183C38.3918 68.0096 38.2298 67.8714 38.0402 67.7833L37.0704 67.3912C33.6845 66.02 30.7854 63.6686 28.7451 60.6386C26.7047 57.6085 25.6161 54.038 25.6189 50.385L25.6331 47.7753Z" fill="#2E2F5B"/>
<path d="M43.937 35.005L43.8158 35.1049C43.2362 35.4878 42.8324 36.0853 42.6933 36.766C42.5543 37.4466 42.6913 38.1546 43.0742 38.7343C43.4572 39.3139 44.0547 39.7176 44.7353 39.8567C45.416 39.9958 46.124 39.8588 46.7036 39.4758C47.4605 38.9484 48.1233 38.2976 48.6645 37.5506C49.8558 35.9613 50.4997 34.0286 50.4997 32.0423C50.4997 30.0561 49.8558 28.1234 48.6645 26.534C48.1227 25.7895 47.4599 25.1412 46.7036 24.6159C46.4162 24.4263 46.0942 24.2952 45.756 24.23C45.4179 24.1648 45.0702 24.1669 44.7328 24.2361C44.3955 24.3053 44.0751 24.4402 43.7899 24.6333C43.5047 24.8263 43.2603 25.0736 43.0707 25.3611C42.6877 25.9416 42.5511 26.6506 42.6908 27.3319C42.8306 28.0132 43.2352 28.6111 43.8158 28.994L43.937 29.0939C44.1368 29.2728 44.3183 29.471 44.4789 29.6857C44.9881 30.3672 45.2633 31.1951 45.2633 32.0459C45.2633 32.8966 44.9881 33.7246 44.4789 34.4061C44.3187 34.6232 44.1371 34.8239 43.937 35.005Z" fill="#2E2F5B"/>
<path d="M33.4553 35.005L33.3341 35.1049C33.0471 35.2945 32.8003 35.5388 32.6077 35.8238C32.4151 36.1088 32.2805 36.4289 32.2116 36.766C32.1428 37.103 32.141 37.4503 32.2063 37.788C32.2717 38.1257 32.4029 38.4473 32.5925 38.7343C32.7821 39.0213 33.0264 39.2681 33.3115 39.4607C33.5965 39.6533 33.9166 39.7879 34.2536 39.8567C34.5907 39.9256 34.938 39.9274 35.2757 39.862C35.6134 39.7967 35.9349 39.6654 36.2219 39.4758C36.9788 38.9484 37.6416 38.2976 38.1828 37.5506C39.3741 35.9613 40.018 34.0286 40.018 32.0423C40.018 30.0561 39.3741 28.1234 38.1828 26.534C37.641 25.7895 36.9782 25.1412 36.2219 24.6159C35.9345 24.4263 35.6125 24.2952 35.2743 24.23C34.9362 24.1648 34.5885 24.1669 34.2511 24.2361C33.9138 24.3053 33.5934 24.4402 33.3082 24.6333C33.023 24.8263 32.7786 25.0736 32.589 25.3611C32.3993 25.6485 32.2682 25.9705 32.203 26.3087C32.1379 26.6469 32.1399 26.9945 32.2091 27.3319C32.2783 27.6692 32.4133 27.9897 32.6063 28.2748C32.7993 28.56 33.0466 28.8044 33.3341 28.994L33.4553 29.0939C33.6551 29.2727 33.8367 29.4709 33.9972 29.6857C34.5064 30.3672 34.7816 31.1951 34.7816 32.0459C34.7816 32.8966 34.5064 33.7246 33.9972 34.4061C33.837 34.6233 33.6555 34.824 33.4553 35.005V35.005Z" fill="#2E2F5B"/>
</svg>
