<svg width="100" height="100" viewBox="0 0 100 100" fill="none" xmlns="http://www.w3.org/2000/svg">
<path fill-rule="evenodd" clip-rule="evenodd" d="M50 4.7619C25.0157 4.7619 4.7619 25.0157 4.7619 50C4.7619 74.9843 25.0157 95.2381 50 95.2381C74.9843 95.2381 95.2381 74.9843 95.2381 50C95.2381 25.0157 74.9843 4.7619 50 4.7619ZM0 50C0 22.3858 22.3858 0 50 0C77.6142 0 100 22.3858 100 50C100 77.6142 77.6142 100 50 100C22.3858 100 0 77.6142 0 50Z" fill="#2E2F5B"/>
<path d="M76.9395 46.3771C77.5378 45.8146 77.5361 44.8727 76.9592 44.2883L75.7675 43.0811C75.1802 42.4863 74.2211 42.4898 73.609 43.0591C60.2706 55.4635 39.7294 55.4635 26.391 43.0591C25.7789 42.4898 24.8198 42.4863 24.2325 43.0811L23.0408 44.2883C22.4639 44.8727 22.4622 45.8146 23.0605 46.3771C25.3855 48.5628 27.9061 50.4091 30.5613 51.9245C31.2458 52.3151 31.5428 53.1563 31.2258 53.8778L27.9791 61.2661C27.6482 62.0193 27.9855 62.8984 28.7353 63.2368L30.2662 63.9277C31.0267 64.2709 31.9212 63.9275 32.2567 63.1636L35.4901 55.8003C35.8114 55.0685 36.6491 54.7205 37.4052 54.9793C37.6545 55.0646 37.9044 55.1474 38.155 55.2275C38.9093 55.4685 39.3781 56.2337 39.2154 57.0087L37.5513 64.9328C37.3817 65.7406 37.8965 66.5336 38.7034 66.7074L40.3368 67.0593C41.1496 67.2343 41.9497 66.7149 42.1206 65.9012L43.7835 57.9843C43.9472 57.2053 44.6906 56.693 45.4812 56.7855C45.7399 56.8157 45.9988 56.8434 46.2579 56.8685C47.048 56.945 47.6669 57.5983 47.6669 58.3921V66.5C47.6669 67.3284 48.3385 68 49.1669 68H50.8331C51.6615 68 52.3331 67.3284 52.3331 66.5V58.3914C52.3331 57.5976 52.952 56.9442 53.7421 56.8679C54.0024 56.8428 54.2625 56.815 54.5223 56.7847C55.3132 56.6923 56.0569 57.205 56.2203 57.9844L57.8798 65.8998C58.0505 66.7138 58.8507 67.2335 59.6637 67.0584L61.2972 66.7066C62.1038 66.5328 62.6187 65.7402 62.4495 64.9326L60.7882 57.0052C60.6261 56.2316 61.0931 55.4678 61.8459 55.2271C62.096 55.1472 62.3455 55.0646 62.5945 54.9794C63.3508 54.7207 64.1888 55.0687 64.5104 55.8005L67.7464 63.1636C68.0821 63.9276 68.9767 64.2707 69.7372 63.9271L71.2647 63.2371C72.0142 62.8985 72.3513 62.0196 72.0204 61.2666L68.7736 53.878C68.4565 53.1564 68.7536 52.3151 69.4381 51.9245C72.0938 50.4091 74.6144 48.5629 76.9395 46.3771Z" fill="#2E2F5B"/>
</svg>
