<svg width="100" height="100" viewBox="0 0 100 100" fill="none" xmlns="http://www.w3.org/2000/svg">
<path fill-rule="evenodd" clip-rule="evenodd" d="M50 4.7619C25.0157 4.7619 4.7619 25.0157 4.7619 50C4.7619 74.9843 25.0157 95.2381 50 95.2381C74.9843 95.2381 95.2381 74.9843 95.2381 50C95.2381 25.0157 74.9843 4.7619 50 4.7619ZM0 50C0 22.3858 22.3858 0 50 0C77.6142 0 100 22.3858 100 50C100 77.6142 77.6142 100 50 100C22.3858 100 0 77.6142 0 50Z" fill="#2E2F5B"/>
<path d="M29.8399 34.1597C29.8399 32.251 30.5993 30.4191 31.9493 29.0693C33.2993 27.7196 35.1312 26.96 37.0397 26.96H51.4397C53.3485 26.96 55.1803 27.7193 56.5301 29.0693C57.8798 30.4193 58.6394 32.2512 58.6394 34.1597V37.5197C60.3269 38.116 61.7857 39.2222 62.8188 40.6828C63.85 42.1453 64.4032 43.891 64.3994 45.6796V47.1196C64.3994 47.9146 63.7544 48.5596 62.9594 48.5596H48.5594C47.7645 48.5596 47.1194 47.9146 47.1194 47.1196V45.6796C47.1157 43.8909 47.6688 42.1452 48.7001 40.6828C49.7332 39.2222 51.192 38.1159 52.8794 37.5197V34.1597C52.8794 33.3647 52.2344 32.7197 51.4394 32.7197H37.0394C36.2445 32.7197 35.5994 33.3647 35.5994 34.1597V70.1597C35.5994 71.7497 34.3094 73.0397 32.7194 73.0397C31.1294 73.0397 29.8394 71.7497 29.8394 70.1597L29.8399 34.1597ZM55.7599 52.8797C54.5955 52.8797 53.5455 53.581 53.0993 54.6572C52.653 55.7335 52.9005 56.9728 53.7237 57.796C54.5468 58.6191 55.7862 58.8666 56.8624 58.4204C57.9387 57.9741 58.6399 56.9241 58.6399 55.7597C58.6399 54.1697 57.3499 52.8797 55.7599 52.8797V52.8797ZM49.9999 60.0797C48.8355 60.0797 47.7855 60.781 47.3393 61.8572C46.893 62.9335 47.1405 64.1728 47.9637 64.996C48.7868 65.8191 50.0262 66.0666 51.1024 65.6204C52.1787 65.1741 52.8799 64.1241 52.8799 62.9597C52.8799 61.3697 51.5899 60.0797 49.9999 60.0797ZM61.5199 65.8397C62.6843 65.8397 63.7343 65.1385 64.1806 64.0622C64.6268 62.986 64.3793 61.7466 63.5562 60.9235C62.7331 60.1004 61.4937 59.8528 60.4174 60.2991C59.3412 60.7453 58.6399 61.7953 58.6399 62.9597C58.6399 64.5497 59.9299 65.8397 61.5199 65.8397ZM55.7599 73.0397C56.9243 73.0397 57.9743 72.3385 58.4206 71.2622C58.8668 70.186 58.6193 68.9466 57.7962 68.1235C56.9731 67.3004 55.7337 67.0528 54.6574 67.4991C53.5812 67.9453 52.8799 68.9953 52.8799 70.1597C52.8799 71.7497 54.1699 73.0397 55.7599 73.0397V73.0397ZM67.2799 73.0397C68.4443 73.0397 69.4943 72.3385 69.9406 71.2622C70.3868 70.186 70.1393 68.9466 69.3162 68.1235C68.4931 67.3004 67.2537 67.0528 66.1774 67.4991C65.1012 67.9453 64.3999 68.9953 64.3999 70.1597C64.3999 71.7497 65.6899 73.0397 67.2799 73.0397ZM41.3599 70.1597C41.3599 71.3241 42.0612 72.3741 43.1374 72.8204C44.2137 73.2666 45.453 73.0191 46.2762 72.196C47.0993 71.3729 47.3468 70.1335 46.9006 69.0572C46.4543 67.981 45.4043 67.2797 44.2399 67.2797C42.6499 67.2797 41.3599 68.5697 41.3599 70.1597Z" fill="#2E2F5B"/>
</svg>
