<svg width="100" height="100" viewBox="0 0 100 100" fill="none" xmlns="http://www.w3.org/2000/svg">
<path fill-rule="evenodd" clip-rule="evenodd" d="M50 4.7619C25.0157 4.7619 4.7619 25.0157 4.7619 50C4.7619 74.9843 25.0157 95.2381 50 95.2381C74.9843 95.2381 95.2381 74.9843 95.2381 50C95.2381 25.0157 74.9843 4.7619 50 4.7619ZM0 50C0 22.3858 22.3858 0 50 0C77.6142 0 100 22.3858 100 50C100 77.6142 77.6142 100 50 100C22.3858 100 0 77.6142 0 50Z" fill="#2E2F5B"/>
<path d="M74.279 50.7551L62.6557 32.3512C61.7914 30.9441 60.2949 30.0616 58.6608 30.0012C57.388 29.9721 56.1583 30.4654 55.2489 31.3687C54.3374 32.27 53.8262 33.5063 53.8262 34.7968V37.7483C53.8262 38.1354 53.5224 38.4518 53.1426 38.4622H46.8362C46.4564 38.4518 46.1526 38.1354 46.1526 37.7483V34.9509C46.1731 32.7029 44.6827 30.7276 42.5375 30.1553C40.5646 29.6599 38.4994 30.4966 37.4073 32.2346L25.6999 50.7552C24.0105 53.4798 23.5547 56.8078 24.4477 59.8945C25.3427 62.9834 27.4983 65.5331 30.3721 66.9004C33.244 68.2679 36.5576 68.3199 39.4702 67.044C42.3832 65.7681 44.6188 63.287 45.6063 60.2294C45.7459 59.8048 46.138 59.5197 46.5794 59.5218H53.4114C53.8507 59.5197 54.2448 59.8048 54.3824 60.2294C55.3637 63.2974 57.5952 65.7891 60.5144 67.0733C63.4315 68.3554 66.753 68.3055 69.6314 66.9338C72.5095 65.5643 74.6691 63.0062 75.5579 59.9088C76.4468 56.8137 75.9828 53.4795 74.2789 50.7546L74.279 50.7551ZM35.0692 63.0648C32.5503 63.0628 30.2819 61.5225 29.3193 59.1622C28.3586 56.8039 28.8923 54.0877 30.6742 52.2832C32.454 50.4786 35.1331 49.9395 37.4589 50.9178C39.7848 51.896 41.3019 54.1981 41.3019 56.7497C41.3019 58.4253 40.6449 60.0322 39.4768 61.2165C38.3067 62.4008 36.7219 63.0669 35.0693 63.0648L35.0692 63.0648ZM49.9897 55.6945C49.1768 55.6945 48.446 55.1992 48.136 54.4394C47.824 53.6776 47.9964 52.8034 48.5712 52.2206C49.1439 51.6378 50.0082 51.465 50.7575 51.7794C51.5089 52.0936 51.9975 52.8367 51.9975 53.6609C51.9975 54.2 51.7861 54.7183 51.4083 55.0992C51.0326 55.4801 50.5215 55.6945 49.9898 55.6945L49.9897 55.6945ZM64.9102 63.0648C62.3913 63.0648 60.1209 61.5267 59.1561 59.1663C58.1934 56.8081 58.725 54.0919 60.5069 52.2852C62.2868 50.4806 64.9658 49.9395 67.2937 50.9177C69.6196 51.8939 71.1367 54.1959 71.1367 56.7497C71.1367 60.2382 68.3489 63.065 64.9101 63.065L64.9102 63.0648Z" fill="#2E2F5B"/>
</svg>
