<svg width="100" height="100" viewBox="0 0 100 100" fill="none" xmlns="http://www.w3.org/2000/svg">
<path fill-rule="evenodd" clip-rule="evenodd" d="M50 4.7619C25.0157 4.7619 4.7619 25.0157 4.7619 50C4.7619 74.9843 25.0157 95.2381 50 95.2381C74.9843 95.2381 95.2381 74.9843 95.2381 50C95.2381 25.0157 74.9843 4.7619 50 4.7619ZM0 50C0 22.3858 22.3858 0 50 0C77.6142 0 100 22.3858 100 50C100 77.6142 77.6142 100 50 100C22.3858 100 0 77.6142 0 50Z" fill="#2E2F5B"/>
<path d="M49.9999 52.7614C54.6804 52.7614 59.3611 49.881 59.3611 43.4614C59.3611 40.1614 54.7416 32.1226 51.9805 27.6808C51.0805 26.2418 48.9805 26.2418 48.0805 27.6808C45.3196 32.1199 40.6999 40.1614 40.6999 43.4614C40.639 49.8808 45.3195 52.7614 49.9999 52.7614ZM45.439 40.6396C45.4999 40.4006 45.739 40.2787 45.978 40.2787C46.2171 40.2787 46.4585 40.3982 46.5171 40.6396C47.9561 43.8787 49.8171 46.1006 52.0976 47.3008C52.3366 47.4204 52.4585 47.6618 52.3976 47.9008C52.3976 48.1399 52.2171 48.3204 51.978 48.3813C51.3171 48.6204 50.539 48.7422 49.939 48.7422C48.378 48.7422 44.7195 48.2618 44.7195 43.5813C44.7804 42.8008 45.0195 41.8399 45.439 40.6399L45.439 40.6396Z" fill="#2E2F5B"/>
<path d="M23.4805 59.2998C24.9195 59.2998 25.5805 59.8389 26.6 60.7998C27.739 61.8193 29.361 63.2608 32.361 63.2608C35.3 63.2608 36.9219 61.8217 38.1219 60.7998C39.1414 59.8998 39.7414 59.2998 41.2414 59.2998C42.6805 59.2998 43.3414 59.8389 44.361 60.7998C45.5 61.8193 47.1219 63.2608 50.1219 63.2608C53.061 63.2608 54.6829 61.8217 55.8829 60.7998C56.9024 59.8998 57.5024 59.2998 59.0024 59.2998C60.4414 59.2998 61.1024 59.8389 62.1219 60.7998C63.3219 61.8193 64.8829 63.2608 67.8829 63.2608C70.8219 63.2608 72.4438 61.8217 73.6438 60.7998C74.6634 59.8998 75.3243 59.2998 76.7634 59.2998C77.8438 59.2998 78.7438 58.3998 78.7438 57.3193C78.7438 56.2389 77.8438 55.3389 76.7634 55.3389C73.8243 55.3389 72.2024 56.7779 71.0024 57.7998C69.9829 58.6998 69.3219 59.2998 67.8829 59.2998C66.4438 59.2998 65.7829 58.7608 64.7634 57.7998C63.5634 56.7803 62.0024 55.3389 59.0024 55.3389C56.0634 55.3389 54.4414 56.7779 53.2414 57.7998C52.2219 58.6998 51.6219 59.2998 50.1219 59.2998C48.6829 59.2998 48.0219 58.7608 47.0024 57.7998C45.8634 56.7803 44.2414 55.3389 41.2414 55.3389C38.3024 55.3389 36.6805 56.7779 35.4805 57.7998C34.461 58.6998 33.861 59.2998 32.361 59.2998C30.9219 59.2998 30.261 58.7608 29.2414 57.7998C28.1024 56.7803 26.4805 55.3389 23.4805 55.3389C22.4 55.3389 21.5 56.2389 21.5 57.3193C21.5 58.4607 22.4 59.2998 23.4805 59.2998V59.2998Z" fill="#2E2F5B"/>
<path d="M76.5195 65.4805C73.5804 65.4805 71.9585 66.9195 70.7585 67.9414C69.739 68.8414 69.078 69.4414 67.639 69.4414C66.2 69.4391 65.6 68.9 64.5804 68C63.3804 66.9805 61.8194 65.5391 58.8194 65.5391C55.8804 65.5391 54.2585 66.9781 53.0585 68C52.0389 68.9 51.4389 69.5 49.9389 69.5C48.4999 69.5 47.8389 68.961 46.8194 68C45.6804 66.9805 44.0585 65.5391 41.0585 65.5391C38.1194 65.5391 36.4975 66.9781 35.2975 68C34.278 68.9 33.678 69.5 32.178 69.5C30.7389 69.5 30.078 68.961 29.0585 68C27.9194 66.9805 26.2975 65.5391 23.2975 65.5391C22.217 65.5391 21.317 66.4391 21.317 67.5196C21.317 68.6 22.217 69.5 23.2975 69.5C24.7365 69.5 25.3975 70.0391 26.417 71C27.5561 72.0196 29.178 73.461 32.178 73.461C35.117 73.461 36.7389 72.022 37.9389 71C38.9585 70.1 39.5585 69.5 41.0585 69.5C42.4975 69.5 43.1585 70.0391 44.178 71C45.4389 71.961 46.9998 73.4 49.9998 73.4C52.9389 73.4 54.5608 71.961 55.7608 70.9391C56.7803 70.0391 57.3803 69.4391 58.8803 69.4391C60.3194 69.4391 60.9803 69.9781 61.9998 70.9391C63.1998 71.9586 64.7608 73.4 67.7608 73.4C70.6998 73.4 72.3218 71.961 73.5218 70.9391C74.5413 70.0391 75.2022 69.4391 76.6413 69.4391C77.7218 69.4391 78.6218 68.5391 78.6218 67.4586C78.4999 66.3805 77.5999 65.4805 76.5194 65.4805H76.5195Z" fill="#2E2F5B"/>
</svg>
