<svg width="100" height="100" viewBox="0 0 100 100" fill="none" xmlns="http://www.w3.org/2000/svg">
<path fill-rule="evenodd" clip-rule="evenodd" d="M50 4.7619C25.0157 4.7619 4.7619 25.0157 4.7619 50C4.7619 74.9843 25.0157 95.2381 50 95.2381C74.9843 95.2381 95.2381 74.9843 95.2381 50C95.2381 25.0157 74.9843 4.7619 50 4.7619ZM0 50C0 22.3858 22.3858 0 50 0C77.6142 0 100 22.3858 100 50C100 77.6142 77.6142 100 50 100C22.3858 100 0 77.6142 0 50Z" fill="#2E2F5B"/>
<path d="M27.2624 45.8542L36.6203 52.3635C37.6894 53.1068 38.1371 54.4252 37.7291 55.628L34.1534 66.163C33.241 68.8542 36.4578 71.0917 38.8492 69.4293L48.2071 62.92C49.2762 62.1749 50.7231 62.1749 51.7922 62.92L61.1501 69.4293C63.5414 71.0914 66.7584 68.8542 65.8459 66.163L62.2721 55.628C61.8622 54.4252 62.3099 53.1068 63.3809 52.3635L72.7368 45.8542C75.1263 44.1902 73.9004 40.5695 70.9443 40.5695H59.3765C58.0562 40.5695 56.8813 39.7538 56.4752 38.5511L52.9014 28.0197C51.9872 25.3268 48.0131 25.3268 47.0967 28.0197L43.521 38.5511C43.1149 39.7538 41.9438 40.5695 40.6215 40.5695H29.0557C26.0996 40.5695 24.8737 44.1903 27.2632 45.8542H27.2624Z" fill="#2E2F5B"/>
</svg>
