<svg width="100" height="100" viewBox="0 0 100 100" fill="none" xmlns="http://www.w3.org/2000/svg">
<path fill-rule="evenodd" clip-rule="evenodd" d="M50 4.7619C25.0157 4.7619 4.7619 25.0157 4.7619 50C4.7619 74.9843 25.0157 95.2381 50 95.2381C74.9843 95.2381 95.2381 74.9843 95.2381 50C95.2381 25.0157 74.9843 4.7619 50 4.7619ZM0 50C0 22.3858 22.3858 0 50 0C77.6142 0 100 22.3858 100 50C100 77.6142 77.6142 100 50 100C22.3858 100 0 77.6142 0 50Z" fill="#2E2F5B"/>
<path d="M51.0725 20.0002C45.2696 19.9764 39.6724 22.0934 35.4052 25.9259C31.138 29.7585 28.517 35.0227 28.0687 40.661C27.6204 46.2994 29.3779 51.8943 32.9883 56.3217C36.5987 60.7491 41.7944 63.6812 47.5318 64.5289V78.1247C47.5318 78.6221 47.7346 79.0991 48.0954 79.4507C48.4563 79.8024 48.9458 80 49.4561 80H52.6696C53.18 80 53.6694 79.8024 54.0303 79.4507C54.3911 79.0991 54.5939 78.6221 54.5939 78.1247V64.5289C60.304 63.6537 65.4658 60.7131 69.0499 56.2936C72.6341 51.8741 74.3772 46.3003 73.9316 40.6839C73.486 35.0675 70.8846 29.8211 66.646 25.991C62.4074 22.1608 56.8431 20.0284 51.0629 20.019L51.0725 20.0002ZM66.5147 46.1042C66.4233 46.2483 66.3429 46.3987 66.2741 46.5543C61.8002 56.437 43.818 51.6269 45.7423 42.288C46.2618 39.7938 48.6287 37.5248 50.7261 37.4216C53.4489 37.281 55.6041 38.7718 55.6041 40.2345C55.6041 41.5472 55.123 41.8004 54.642 41.5472C53.8114 41.1232 52.842 41.0382 51.947 41.3107C51.0521 41.5833 50.3049 42.1911 49.8698 43.0006C49.4347 43.81 49.3474 44.7548 49.6271 45.6269C49.9068 46.4991 50.5305 47.2273 51.3611 47.6513C56.3834 50.2017 62.6661 46.9106 62.6661 40.2252C62.6661 34.2993 56.7202 30.2111 50.3509 30.5299C44.7801 30.7737 39.9695 35.5182 38.8053 40.919C37.0542 49.3578 42.8847 55.5181 50.3509 57.8716C47.0782 57.7248 43.9321 56.596 41.343 54.6397C38.7539 52.6834 36.8483 49.9952 35.8871 46.943C34.9258 43.8908 34.9559 40.6237 35.9731 37.5887C36.9902 34.5538 38.9449 31.8993 41.5695 29.9885C44.1942 28.0778 47.3606 27.0041 50.6354 26.9144C53.9102 26.8247 57.1335 27.7234 59.8641 29.4875C62.5947 31.2516 64.6993 33.7949 65.8897 36.7694C67.0802 39.7439 67.2985 43.0042 66.5147 46.1042Z" fill="#2E2F5B"/>
</svg>
