<svg width="100" height="100" viewBox="0 0 100 100" fill="none" xmlns="http://www.w3.org/2000/svg">
<path fill-rule="evenodd" clip-rule="evenodd" d="M50 4.7619C25.0157 4.7619 4.7619 25.0157 4.7619 50C4.7619 74.9843 25.0157 95.2381 50 95.2381C74.9843 95.2381 95.2381 74.9843 95.2381 50C95.2381 25.0157 74.9843 4.7619 50 4.7619ZM0 50C0 22.3858 22.3858 0 50 0C77.6142 0 100 22.3858 100 50C100 77.6142 77.6142 100 50 100C22.3858 100 0 77.6142 0 50Z" fill="#2E2F5B"/>
<path d="M77.4791 39.0514C76.5833 37.8778 75.0157 37.6577 73.8213 38.5379C73.7466 38.6113 73.5973 38.6846 73.3734 38.8313C72.9255 39.1247 72.4776 39.4181 71.955 39.7848C70.2381 40.8117 68.4465 41.7653 66.6549 42.6455C60.8322 45.4328 55.3081 46.8264 50.2319 46.8264C45.1558 46.8264 39.557 45.4328 33.6597 42.6455C31.7934 41.7653 29.9272 40.8117 28.2102 39.7848C27.613 39.4181 27.1651 39.1247 26.7172 38.8313C26.4186 38.6846 26.2693 38.5379 26.12 38.5379C25.5975 38.0978 24.9256 37.9511 24.1791 38.0245C23.5073 38.1712 22.9101 38.5379 22.5369 39.1247C22.1636 39.7115 21.9397 40.2983 22.0143 41.0318C22.1636 41.6919 22.5369 42.2787 23.1341 42.6455C23.2834 42.7188 23.4327 42.8655 23.7312 43.0856C24.2538 43.4523 24.7763 43.7457 25.3735 44.1858C27.0158 45.1394 28.7328 46.0929 30.599 46.9731V58.9291C30.599 59.0024 30.599 59.0758 30.599 59.0758C30.7483 64.7971 33.4357 70.1516 37.8401 73.7457C41.274 76.4597 45.6037 78 49.9333 78C54.4123 78 58.742 76.4597 62.1759 73.6724C66.5803 70.0782 69.193 64.7971 69.3423 59.1491C69.3423 59.0758 69.3423 59.0024 69.3423 59.0024V47.0465C71.2086 46.1663 72.9255 45.2127 74.6424 44.1858C75.2396 43.8191 75.8368 43.4523 76.2847 43.1589C76.5833 42.9389 76.8073 42.7922 76.8819 42.7188C78.0763 41.8386 78.3749 40.2249 77.4791 39.0514ZM58.8913 69.7115C56.3532 71.7653 53.2926 72.8655 50.008 72.8655C46.7981 72.8655 43.7374 71.7653 41.1993 69.7848C37.7654 67.0709 35.8245 62.9633 35.8245 58.5623V49.1736C39.8556 50.6406 43.7374 51.5208 47.3953 51.8875V61.7897C47.3953 63.0367 48.2164 64.0636 49.3361 64.357C50.1573 64.577 50.9784 64.357 51.5756 63.9169C52.1728 63.4034 52.5461 62.6699 52.5461 61.8631V51.8875C56.2786 51.5941 60.1604 50.7139 64.1168 49.2469V58.5623C64.1915 62.89 62.2506 66.9976 58.8913 69.7115Z" fill="#2E2F5B" stroke="#2E2F5B"/>
</svg>
