<svg width="100" height="100" viewBox="0 0 100 100" fill="none" xmlns="http://www.w3.org/2000/svg">
<path fill-rule="evenodd" clip-rule="evenodd" d="M50 4.7619C25.0157 4.7619 4.7619 25.0157 4.7619 50C4.7619 74.9843 25.0157 95.2381 50 95.2381C74.9843 95.2381 95.2381 74.9843 95.2381 50C95.2381 25.0157 74.9843 4.7619 50 4.7619ZM0 50C0 22.3858 22.3858 0 50 0C77.6142 0 100 22.3858 100 50C100 77.6142 77.6142 100 50 100C22.3858 100 0 77.6142 0 50Z" fill="#2E2F5B"/>
<path d="M75.9997 66.0001H71.1872L52.2785 31.3341L55.7551 24.9592C56.2837 23.9905 55.9269 22.7744 54.9582 22.2457C53.9895 21.7171 52.7733 22.0764 52.2447 23.0426L49.9999 27.1571L47.7551 23.0426C47.229 22.0738 46.0155 21.7145 45.0415 22.2457C44.0728 22.7743 43.7134 23.9905 44.2447 24.9592L47.7212 31.3341L28.8125 66.0001H24C22.8959 66.0001 22 66.8959 22 68C22 69.1041 22.8959 70 24 70H76C77.1041 70 78 69.1041 78 68C78 66.8959 77.1041 66.0001 76 66.0001H75.9997ZM55.9997 66.0001H43.9997V58.0002C43.9997 54.6852 46.6846 52.0003 49.9997 52.0003C53.3149 52.0003 55.9997 54.6852 55.9997 58.0002V66.0001Z" fill="#2E2F5B"/>
</svg>
