<svg width="100" height="100" viewBox="0 0 100 100" fill="none" xmlns="http://www.w3.org/2000/svg">
<path fill-rule="evenodd" clip-rule="evenodd" d="M50 4.7619C25.0157 4.7619 4.7619 25.0157 4.7619 50C4.7619 74.9843 25.0157 95.2381 50 95.2381C74.9843 95.2381 95.2381 74.9843 95.2381 50C95.2381 25.0157 74.9843 4.7619 50 4.7619ZM0 50C0 22.3858 22.3858 0 50 0C77.6142 0 100 22.3858 100 50C100 77.6142 77.6142 100 50 100C22.3858 100 0 77.6142 0 50Z" fill="#2E2F5B"/>
<path d="M64.5717 30.0001H38.0313C31.6299 30.0001 26.5825 37.5459 26.5825 47.2264V67.1582C26.5825 67.5749 26.739 67.9917 27.0501 68.3555L31.4735 72.7789C31.7865 73.092 32.2012 73.2465 32.6708 73.2465C33.1383 73.2465 33.5551 73.0899 33.8681 72.7789L37.1471 69.5L40.426 72.7789C41.1029 73.403 42.1437 73.403 42.7678 72.7789L46.0467 69.5L49.3257 72.7789C50.0026 73.403 51.0434 73.403 51.6675 72.7789L56.0909 68.3555C56.4039 68.0425 56.5584 67.6278 56.5584 67.1582V64.4525H64.6777C71.0791 64.4525 76.1265 56.9067 76.1265 47.2263C76.0208 37.5458 70.9733 30 64.572 30L64.5717 30.0001ZM34.3354 53.8349H31.7863C30.8492 53.8349 30.1214 53.1072 30.1214 52.1701C30.1214 51.2329 30.8492 50.5052 31.7863 50.5052H34.3354C35.2197 50.5052 36.0003 51.2329 36.0003 52.1701C36.0023 53.1052 35.2726 53.8349 34.3354 53.8349ZM42.7675 53.8349H40.2183C39.2812 53.8349 38.5535 53.1072 38.5535 52.1701C38.5535 51.2329 39.2812 50.5052 40.2183 50.5052H42.7675C43.6517 50.5052 44.4323 51.2329 44.4323 52.1701C44.4323 53.1052 43.7026 53.8349 42.7675 53.8349ZM51.2484 53.8349H48.6993C47.7622 53.8349 47.0344 53.1072 47.0344 52.1701C47.0344 51.2329 47.7622 50.5052 48.6993 50.5052H51.2484C52.1327 50.5052 52.9133 51.2329 52.9133 52.1701C52.9153 53.1052 52.1347 53.8349 51.2484 53.8349ZM64.5717 61.0674C60.1483 61.0674 56.4524 54.7191 56.4524 47.1733C56.4524 39.6275 60.1481 33.2791 64.5717 33.2791C68.9422 33.2791 72.691 39.6275 72.691 47.1733C72.691 54.7191 68.9953 61.0674 64.5717 61.0674Z" fill="#2E2F5B"/>
<path d="M64.5718 42.957C63.0106 42.957 62.1264 44.5182 62.1264 47.1731C62.1264 49.828 63.0635 51.3892 64.5718 51.3892C66.133 51.3892 67.0173 49.828 67.0173 47.1731C67.0173 44.5182 66.133 42.957 64.5718 42.957Z" fill="#2E2F5B"/>
</svg>
