<svg width="100" height="100" viewBox="0 0 100 100" fill="none" xmlns="http://www.w3.org/2000/svg">
<path fill-rule="evenodd" clip-rule="evenodd" d="M50 4.7619C25.0157 4.7619 4.7619 25.0157 4.7619 50C4.7619 74.9843 25.0157 95.2381 50 95.2381C74.9843 95.2381 95.2381 74.9843 95.2381 50C95.2381 25.0157 74.9843 4.7619 50 4.7619ZM0 50C0 22.3858 22.3858 0 50 0C77.6142 0 100 22.3858 100 50C100 77.6142 77.6142 100 50 100C22.3858 100 0 77.6142 0 50Z" fill="#2E2F5B"/>
<path d="M73.9662 43.3686C73.9669 49.0478 71.8753 54.5283 68.091 58.7631C64.3067 62.9978 59.0949 65.69 53.4513 66.3252V55.4354L63.6715 45.1948C64.155 44.7114 64.4266 44.0557 64.4266 43.372C64.4266 42.6883 64.155 42.0325 63.6715 41.5491C63.1881 41.0656 62.5324 40.794 61.8487 40.794C61.165 40.794 60.5092 41.0656 60.0258 41.5491L53.4513 48.1371V32.7019C53.4692 32.3519 53.4158 32.002 53.2942 31.6733C53.1726 31.3446 52.9854 31.0441 52.744 30.7901C52.5027 30.536 52.2121 30.3337 51.8901 30.1955C51.5681 30.0572 51.2213 29.986 50.8709 29.986C50.5204 29.986 50.1736 30.0572 49.8516 30.1955C49.5296 30.3337 49.2391 30.536 48.9977 30.7901C48.7563 31.0441 48.5691 31.3446 48.4476 31.6733C48.326 32.002 48.2725 32.3519 48.2904 32.7019V48.0357L41.8039 41.5491C41.5645 41.3093 41.2802 41.1189 40.9673 40.989C40.6543 40.859 40.3188 40.792 39.98 40.7916C39.6411 40.7913 39.3055 40.8578 38.9924 40.9871C38.6792 41.1165 38.3946 41.3063 38.1547 41.5457C37.9149 41.7851 37.7246 42.0694 37.5946 42.3823C37.4647 42.6952 37.3976 43.0307 37.3973 43.3696C37.3966 44.0539 37.6679 44.7105 38.1514 45.1948L48.2972 55.3407V66.3252C43.8663 65.824 39.6751 64.0513 36.2293 61.221C32.7835 58.3908 30.2303 54.6239 28.8777 50.3748C27.5251 46.1258 27.4309 41.5761 28.6065 37.2747C29.7821 32.9733 32.1773 29.104 35.503 26.1336C38.8288 23.1631 42.943 21.2185 47.3494 20.5343C51.7557 19.8502 56.2659 20.4556 60.3358 22.2777C64.4057 24.0998 67.8614 27.0607 70.286 30.803C72.7106 34.5454 74.0005 38.9094 74 43.3686H73.9662ZM48.2634 70.2145V81.1382H53.4513V70.2145C52.5932 70.3088 51.7307 70.3585 50.8675 70.3633C50.002 70.3588 49.1373 70.3091 48.2769 70.2145H48.2634Z" fill="#2E2F5B"/>
</svg>
