<svg width="100" height="100" viewBox="0 0 100 100" fill="none" xmlns="http://www.w3.org/2000/svg">
<path fill-rule="evenodd" clip-rule="evenodd" d="M50 4.7619C25.0157 4.7619 4.7619 25.0157 4.7619 50C4.7619 74.9843 25.0157 95.2381 50 95.2381C74.9843 95.2381 95.2381 74.9843 95.2381 50C95.2381 25.0157 74.9843 4.7619 50 4.7619ZM0 50C0 22.3858 22.3858 0 50 0C77.6142 0 100 22.3858 100 50C100 77.6142 77.6142 100 50 100C22.3858 100 0 77.6142 0 50Z" fill="#2E2F5B"/>
<path d="M64.7329 61.529C64.5622 61.3013 64.3483 61.1095 64.1035 60.9645C63.8587 60.8195 63.5877 60.7241 63.306 60.6839C63.0243 60.6436 62.7375 60.6593 62.4619 60.7299C62.1862 60.8005 61.9272 60.9248 61.6996 61.0955C61.472 61.2663 61.2802 61.4802 61.1353 61.7251C60.9903 61.97 60.895 62.241 60.8547 62.5228C60.8145 62.8045 60.8301 63.0914 60.9007 63.3671C60.9713 63.6428 61.0956 63.9019 61.2663 64.1295L67.7662 72.7981C68.111 73.2579 68.6243 73.5619 69.1931 73.6432C69.762 73.7244 70.3398 73.5764 70.7995 73.2315C71.2592 72.8867 71.5631 72.3733 71.6444 71.8043C71.7257 71.2353 71.5776 70.6573 71.2328 70.1975L64.7329 61.529Z" fill="#2E2F5B" stroke="#2E2F5B"/>
<path d="M35.2665 61.529L28.7666 70.1975C28.5959 70.4252 28.4717 70.6843 28.401 70.96C28.3304 71.2357 28.3148 71.5226 28.355 71.8043C28.3953 72.086 28.4906 72.3571 28.6356 72.602C28.7805 72.8468 28.9723 73.0608 29.1999 73.2315C29.4275 73.4023 29.6865 73.5265 29.9622 73.5971C30.2378 73.6678 30.5246 73.6834 30.8063 73.6432C31.088 73.6029 31.359 73.5076 31.6038 73.3626C31.8486 73.2176 32.0625 73.0258 32.2332 72.7981L38.7331 64.1295C39.0779 63.6697 39.226 63.0918 39.1447 62.5228C39.0634 61.9538 38.7595 61.4404 38.2998 61.0955C37.8401 60.7507 37.2623 60.6026 36.6934 60.6839C36.1246 60.7652 35.6113 61.0692 35.2665 61.529V61.529Z" fill="#2E2F5B" stroke="#2E2F5B"/>
<path d="M49.9998 62.8301C49.4251 62.8301 48.874 63.0584 48.4677 63.4648C48.0614 63.8712 47.8331 64.4225 47.8331 64.9972V75.8329C47.8331 76.4077 48.0614 76.9589 48.4677 77.3653C48.874 77.7717 49.4251 78 49.9998 78C50.5744 78 51.1255 77.7717 51.5318 77.3653C51.9381 76.9589 52.1664 76.4077 52.1664 75.8329V64.9972C52.1664 64.4225 51.9381 63.8712 51.5318 63.4648C51.1255 63.0584 50.5744 62.8301 49.9998 62.8301Z" fill="#2E2F5B" stroke="#2E2F5B"/>
<path d="M60.7192 33.6969C60.4517 31.0391 59.2069 28.5755 57.2263 26.7838C55.2456 24.9921 52.6703 24 49.9997 24C47.3292 24 44.7538 24.9921 42.7731 26.7838C40.7925 28.5755 39.5477 31.0391 39.2802 33.6969C30.8087 35.3656 24 39.0605 24 44.5759C24 52.318 37.3953 56.4952 49.9997 56.4952C62.6042 56.4952 75.9994 52.318 75.9994 44.5759C75.9994 39.0605 69.1908 35.3656 60.7192 33.6969ZM49.9997 28.3224C51.7236 28.3224 53.3769 29.0073 54.5959 30.2266C55.8148 31.4458 56.4996 33.0995 56.4996 34.8238V40.1495C55.5572 40.6209 53.5693 41.3252 49.9997 41.3252C46.4302 41.3252 44.4423 40.6155 43.4998 40.1495V34.8238C43.4998 33.0995 44.1846 31.4458 45.4036 30.2266C46.6225 29.0073 48.2758 28.3224 49.9997 28.3224V28.3224ZM49.9997 52.1609C36.5774 52.1609 28.3333 47.7453 28.3333 44.5759C28.3333 42.4088 32.3091 39.624 39.1665 38.1124V41.3252C39.1683 41.6098 39.2254 41.8913 39.3344 42.1541C39.4411 42.4177 39.5995 42.6571 39.8002 42.8585C40.2498 43.3298 42.9581 45.6595 49.9997 45.6595C57.0413 45.6595 59.7496 43.3298 60.1992 42.8585C60.4003 42.657 60.5598 42.418 60.6686 42.1549C60.7773 41.8918 60.8332 41.6099 60.8329 41.3252V38.1124C67.6904 39.624 71.6661 42.4088 71.6661 44.5759C71.6661 47.7453 63.4221 52.1609 49.9997 52.1609Z" fill="#2E2F5B" stroke="#2E2F5B"/>
</svg>
