<svg width="100" height="100" viewBox="0 0 100 100" fill="none" xmlns="http://www.w3.org/2000/svg">
<path fill-rule="evenodd" clip-rule="evenodd" d="M50 4.7619C25.0157 4.7619 4.7619 25.0157 4.7619 50C4.7619 74.9843 25.0157 95.2381 50 95.2381C74.9843 95.2381 95.2381 74.9843 95.2381 50C95.2381 25.0157 74.9843 4.7619 50 4.7619ZM0 50C0 22.3858 22.3858 0 50 0C77.6142 0 100 22.3858 100 50C100 77.6142 77.6142 100 50 100C22.3858 100 0 77.6142 0 50Z" fill="#2E2F5B"/>
<path d="M74.8502 39.0003C68.2279 31.9218 59.4145 28 50 28C40.5855 28 31.7715 31.9196 25.1498 39.0003C23.6167 40.639 23.6167 43.2124 25.1498 44.8511C25.9153 45.6693 26.901 46.0808 27.8868 46.0808C28.8725 46.0808 29.8582 45.6717 30.6237 44.8511C35.7682 39.2928 42.6661 36.2509 50 36.2509C57.3339 36.2509 64.232 39.2929 69.3763 44.8511C70.9094 46.4899 73.317 46.4899 74.8502 44.8511C76.3833 43.2124 76.3833 40.5795 74.8502 39.0003V39.0003Z" fill="#2E2F5B"/>
<path d="M35.4384 50.0612C33.9053 51.6999 33.9053 54.2733 35.4384 55.9121C36.2039 56.7302 37.1896 57.1417 38.1753 57.1417C39.1611 57.1417 40.1468 56.7326 40.9123 55.9121C45.9478 50.5297 54.1053 50.5297 59.0849 55.8526C60.5624 57.4913 63.0256 57.4913 64.5587 55.8526C66.0918 54.2139 66.0918 51.6405 64.5587 50.0017C56.5127 41.4583 43.4866 41.4583 35.4384 50.0612V50.0612Z" fill="#2E2F5B"/>
<path d="M56.0771 65.5639C56.0771 69.1178 53.3808 71.9999 50.0559 71.9999C46.7288 71.9999 44.0347 69.1178 44.0347 65.5639C44.0347 62.0077 46.7288 59.1279 50.0559 59.1279C53.3808 59.1279 56.0771 62.0077 56.0771 65.5639Z" fill="#2E2F5B"/>
</svg>
