<svg width="100" height="100" viewBox="0 0 100 100" fill="none" xmlns="http://www.w3.org/2000/svg">
<path fill-rule="evenodd" clip-rule="evenodd" d="M50 4.7619C25.0157 4.7619 4.7619 25.0157 4.7619 50C4.7619 74.9843 25.0157 95.2381 50 95.2381C74.9843 95.2381 95.2381 74.9843 95.2381 50C95.2381 25.0157 74.9843 4.7619 50 4.7619ZM0 50C0 22.3858 22.3858 0 50 0C77.6142 0 100 22.3858 100 50C100 77.6142 77.6142 100 50 100C22.3858 100 0 77.6142 0 50Z" fill="#2E2F5B"/>
<path d="M55.9274 57.5665C55.9915 57.545 56.0556 57.5214 56.1175 57.4999C56.2022 57.4719 56.2595 57.4526 56.2595 57.4526C56.2618 57.4504 56.2618 57.4504 56.2618 57.4483C61.3314 55.6855 64.4516 51.6868 64.4516 46.4179C64.4516 41.1145 61.6797 26.7951 61.5629 26.1886L61.4346 25.5136H38.57L38.4371 26.1908C38.3203 26.797 35.5484 41.1164 35.5484 46.42C35.5484 51.6891 38.6685 55.6877 43.7382 57.4504C43.7382 57.4526 43.7382 57.4526 43.7405 57.4547C43.7405 57.4547 43.8 57.4741 43.8848 57.502C43.9489 57.5235 44.0108 57.5472 44.0749 57.5665C45.2364 57.9771 49.1239 59.5679 49.1239 62.5238V72.8354H42.1323C41.6466 72.8354 41.2526 73.2052 41.2526 73.6609C41.2526 74.1167 41.6466 74.4864 42.1323 74.4864H57.8703C58.3559 74.4864 58.75 74.1167 58.75 73.6609C58.75 73.2052 58.3559 72.8354 57.8703 72.8354H50.8809V62.5238C50.8809 59.5679 54.7659 57.9771 55.9274 57.5665ZM37.8001 40.7703C38.4759 35.5807 39.6488 29.2242 40.0383 27.1643H59.9641C60.3261 29.0754 61.3615 34.6863 62.0488 39.6327C60.8736 39.536 57.5198 39.3898 53.4925 40.3163C52.3654 40.5356 51.1833 40.8581 49.9577 41.3246C45.5479 43.0078 39.9671 41.4883 37.8001 40.7703Z" fill="#2E2F5B"/>
<path fill-rule="evenodd" clip-rule="evenodd" d="M49.9577 41.3246C51.1833 40.8581 52.3654 40.5356 53.4925 40.3163C56.3304 39.6634 58.8338 39.5432 60.4762 39.563C61.1646 39.5713 61.7017 39.6041 62.0488 39.6327C61.9785 39.1268 61.9046 38.614 61.8281 38.0988C61.1568 33.5773 60.2891 28.88 59.9641 27.1643H40.0383C39.6488 29.2242 38.4759 35.5807 37.8001 40.7703C39.9671 41.4883 45.5479 43.0078 49.9577 41.3246ZM38.57 25.5136H61.4346L61.5629 26.1886L61.5674 26.2124C61.7379 27.0964 64.4516 41.1705 64.4516 46.4179C64.4516 51.6868 61.3314 55.6855 56.2618 57.4483C56.2618 57.4504 56.2618 57.4504 56.2595 57.4526C56.2595 57.4526 56.2022 57.4719 56.1175 57.4999C56.0938 57.5081 56.0697 57.5167 56.0454 57.5253C56.0064 57.5392 55.9669 57.5533 55.9274 57.5665C54.7659 57.9771 50.8809 59.5679 50.8809 62.5238V72.8354H57.8703C58.3559 72.8354 58.75 73.2052 58.75 73.6609C58.75 74.1167 58.3559 74.4864 57.8703 74.4864H42.1323C41.6466 74.4864 41.2526 74.1167 41.2526 73.6609C41.2526 73.2052 41.6466 72.8354 42.1323 72.8354H49.1239V62.5238C49.1239 59.5679 45.2364 57.9771 44.0749 57.5665C44.0343 57.5543 43.9946 57.5403 43.9547 57.5262C43.9316 57.5181 43.9083 57.5099 43.8848 57.502C43.8 57.4741 43.7405 57.4547 43.7405 57.4547C43.7392 57.4535 43.7386 57.453 43.7384 57.4523C43.7382 57.4519 43.7382 57.4513 43.7382 57.4504C38.6685 55.6877 35.5484 51.6891 35.5484 46.42C35.5484 41.168 38.2667 27.0744 38.433 26.2123C38.4346 26.2038 38.436 26.1967 38.4371 26.1908L38.57 25.5136ZM42.8961 58.7605C37.4435 56.7406 34 52.2628 34 46.42C34 43.6256 34.7168 38.5964 35.42 34.3045C36.1172 30.0494 36.8282 26.3632 36.9113 25.9324C36.913 25.9238 36.9144 25.9165 36.9155 25.9106L36.9165 25.9057L37.2904 24H62.7218L63.0845 25.9085L63.0852 25.9122L63.0891 25.9325C63.1741 26.3734 63.8839 30.0544 64.5799 34.3025C65.2832 38.5944 66 43.6235 66 46.4179C66 52.2606 62.5564 56.7383 57.104 58.7583L57.0866 58.7746L56.7653 58.8831L56.7529 58.8873L56.7215 58.8979L56.6283 58.9288C56.5985 58.9393 56.5059 58.9723 56.4444 58.9933C55.9174 59.1802 54.8291 59.6187 53.8976 60.3015C52.9331 61.0087 52.4293 61.7527 52.4293 62.5238V71.3218H57.8703C59.1509 71.3218 60.2983 72.3116 60.2983 73.6609C60.2983 75.0102 59.1509 76 57.8703 76H42.1323C40.8516 76 39.7042 75.0102 39.7042 73.6609C39.7042 72.3116 40.8516 71.3218 42.1323 71.3218H47.5756V62.5238C47.5756 61.7531 47.0717 61.0092 46.1063 60.3018C45.1845 59.6263 44.1091 59.19 43.5756 58.9995C43.5278 58.9844 43.4868 58.9702 43.4582 58.9602C43.4409 58.9541 43.4287 58.9498 43.4192 58.9465C43.4049 58.9414 43.3966 58.9385 43.3866 58.9351C43.3853 58.9347 43.384 58.9343 43.3826 58.9338L43.2898 58.9034L43.2543 58.8918L42.9205 58.7833L42.8961 58.7605ZM39.5062 39.7039C40.5136 39.9835 41.8103 40.28 43.2217 40.445C45.3138 40.6896 47.5234 40.6289 49.3945 39.9146L49.3959 39.9141C50.7016 39.4171 51.9621 39.0723 53.1638 38.837C56.003 38.1865 58.5222 38.0411 60.2557 38.0476C59.72 34.4748 59.0693 30.8252 58.6729 28.6779H41.3297C40.8715 31.1612 40.0735 35.6494 39.5062 39.7039Z" fill="#2E2F5B"/>
</svg>
