<svg width="100" height="100" viewBox="0 0 100 100" fill="none" xmlns="http://www.w3.org/2000/svg">
<path fill-rule="evenodd" clip-rule="evenodd" d="M50 4.7619C25.0157 4.7619 4.7619 25.0157 4.7619 50C4.7619 74.9843 25.0157 95.2381 50 95.2381C74.9843 95.2381 95.2381 74.9843 95.2381 50C95.2381 25.0157 74.9843 4.7619 50 4.7619ZM0 50C0 22.3858 22.3858 0 50 0C77.6142 0 100 22.3858 100 50C100 77.6142 77.6142 100 50 100C22.3858 100 0 77.6142 0 50Z" fill="#2E2F5B"/>
<path d="M38.7915 45.4023C38.7915 42.2439 36.2332 39.6846 33.0768 39.6846C29.921 39.6846 27.3633 42.2439 27.3633 45.4023C27.3633 48.5595 29.921 51.1194 33.0768 51.1194C36.2326 51.1194 38.7915 48.5595 38.7915 45.4023Z" fill="#2E2F5B"/>
<path d="M40.1196 41.3407L39.4817 50.6231C38.9515 56.8127 37.7043 62.9178 35.7646 68.8184C35.3481 70.0852 36.0364 71.4493 37.3024 71.8666C38.569 72.2834 39.9328 71.5946 40.3493 70.3273C42.2872 64.432 43.5736 58.3415 44.1835 52.1653C47.1255 52.017 50.0247 52.9262 52.3569 54.7276C57.3697 59.1316 61.4828 64.4654 64.4682 70.4352C65.167 71.8338 66.8677 72.4001 68.2643 71.6996C69.6615 71.0008 70.2268 69.2991 69.5273 67.9016C67.2707 63.3874 64.4266 59.1914 61.0716 55.4222C60.8782 55.2065 60.8712 54.8829 61.0546 54.659C61.2608 54.4081 61.6298 54.3712 61.8817 54.5763C65.8612 57.8367 69.3317 61.6739 72.1793 65.9619C73.0434 67.2639 74.7997 67.6179 76.1002 66.7527C77.4013 65.8875 77.7546 64.1301 76.8911 62.8287C76.8864 62.8229 76.8829 62.8164 76.8788 62.81L76.8911 62.8287C72.2268 55.8625 66.1424 49.963 59.037 45.5174C54.9339 42.5653 50.0271 40.9415 44.9743 40.8648C45.2467 34.5421 44.8127 28.2077 43.6773 21.9818C43.4383 20.6699 42.1811 19.8 40.8707 20.0397C39.5596 20.2789 38.6902 21.5363 38.9298 22.8482C40.0423 28.9586 40.4412 35.1781 40.1179 41.3812" fill="#2E2F5B"/>
</svg>
